<svg xmlns="http://www.w3.org/2000/svg" width="26.131" height="21.575" viewBox="0 0 26.131 21.575">
  <path id="Shape_15" data-name="Shape 15" d="M74,168.224v-19.6a1,1,0,0,1,1.052-.616q12.04.014,24.078,0a.973.973,0,0,1,1,.616v19.6a1.869,1.869,0,0,1-2.089,1.331c-3.814-.03-7.628-.012-11.443-.012H75.731a1.653,1.653,0,0,1-1.623-1.043Zm7.35-2.461h3.6a.818.818,0,0,0,.893-.883V155.4a.819.819,0,0,0-.906-.894H77.764a.819.819,0,0,0-.9.894v9.453a.823.823,0,0,0,.921.908Zm5.512-13.692H96.05a.8.8,0,0,0,.815-.829.815.815,0,0,0-.829-.789h-18.3a.826.826,0,0,0-.826.526.817.817,0,0,0,.839,1.1q4.555-.007,9.111-.007Zm5.715,4.06h3.441a.811.811,0,0,0,.831-.973.83.83,0,0,0-.883-.648H89.187a1.185,1.185,0,0,0-.278.025.809.809,0,0,0,.226,1.6C90.283,156.136,91.429,156.133,92.576,156.132Zm-.039,3.249h3.445a.812.812,0,1,0-.037-1.62H89.183a.821.821,0,1,0,.011,1.623Zm-.011,3.247h3.42a.813.813,0,1,0,.011-1.622H89.144a.815.815,0,1,0,.016,1.622Q90.842,162.631,92.526,162.628Zm7.6-14.006v19.6m-7.6-2.417h3.42a.813.813,0,1,0,.011-1.622H89.144a.815.815,0,1,0,.016,1.622q1.682.008,3.367.005Z" transform="translate(-74 -148.004)" fill="#2565af"/>
</svg>
