<svg xmlns="http://www.w3.org/2000/svg" width="24.714" height="20.798" viewBox="0 0 24.714 20.798">
  <g id="multiple-users-silhouette" transform="translate(0 -6.348)">
    <path id="Path_1132" data-name="Path 1132" d="M14.914,9.918A4.491,4.491,0,0,1,17,13.254a3.623,3.623,0,1,0-2.09-3.336Zm-2.375,7.421a3.624,3.624,0,1,0-3.625-3.624A3.625,3.625,0,0,0,12.539,17.339Zm1.538.247H11A4.646,4.646,0,0,0,6.36,22.227v3.761l.01.059.259.081a21.125,21.125,0,0,0,6.31,1.018,12.954,12.954,0,0,0,5.51-1.034l.242-.122h.026V22.227A4.645,4.645,0,0,0,14.077,17.586Zm6-3.742H17.022a4.467,4.467,0,0,1-1.379,3.111,5.515,5.515,0,0,1,3.939,5.277v1.159a12.489,12.489,0,0,0,4.864-1.022l.242-.123h.026V18.485A4.646,4.646,0,0,0,20.074,13.844ZM6.179,13.6a3.6,3.6,0,0,0,1.928-.559,4.486,4.486,0,0,1,1.686-2.861c0-.068.01-.135.01-.2A3.624,3.624,0,1,0,6.179,13.6Zm3.255,3.358a4.47,4.47,0,0,1-1.378-3.094c-.113-.008-.225-.017-.341-.017H4.641A4.646,4.646,0,0,0,0,18.485v3.762l.01.058.259.082a21.759,21.759,0,0,0,5.226.982V22.233A5.516,5.516,0,0,1,9.435,16.956Z" fill="#a6a6a6"/>
  </g>
</svg>
