<svg id="Group_72" data-name="Group 72" xmlns="http://www.w3.org/2000/svg" xmlns:xlink="http://www.w3.org/1999/xlink" width="760" height="569.842" viewBox="0 0 760 569.842">
  <defs>
    <clipPath id="clip-path">
      <rect id="Rectangle_5948" data-name="Rectangle 5948" width="760" height="569.842" fill="none"/>
    </clipPath>
    <clipPath id="clip-path-3">
      <rect id="Rectangle_5892" data-name="Rectangle 5892" width="445.634" height="65.761" fill="none"/>
    </clipPath>
    <clipPath id="clip-path-4">
      <rect id="Rectangle_5893" data-name="Rectangle 5893" width="233.253" height="34.42" fill="none"/>
    </clipPath>
    <clipPath id="clip-path-5">
      <rect id="Rectangle_5911" data-name="Rectangle 5911" width="3.665" height="13.249" fill="none"/>
    </clipPath>
    <clipPath id="clip-path-7">
      <rect id="Rectangle_5915" data-name="Rectangle 5915" width="3.664" height="9.115" fill="none"/>
    </clipPath>
    <clipPath id="clip-path-11">
      <rect id="Rectangle_5944" data-name="Rectangle 5944" width="4.087" height="4.088" fill="none"/>
    </clipPath>
    <clipPath id="clip-path-12">
      <rect id="Rectangle_5946" data-name="Rectangle 5946" width="4.251" height="6.794" fill="none"/>
    </clipPath>
  </defs>
  <g id="Group_71" data-name="Group 71" clip-path="url(#clip-path)">
    <g id="Group_70" data-name="Group 70" transform="translate(0 0)">
      <g id="Group_69" data-name="Group 69" clip-path="url(#clip-path)">
        <path id="Path_104" data-name="Path 104" d="M868.123,1359.1c0,25.379-109.873,45.954-245.408,45.954s-245.408-20.574-245.408-45.954,109.873-45.954,245.408-45.954,245.408,20.574,245.408,45.954" transform="translate(-239.982 -835.215)" fill="#61a3c5"/>
        <g id="Group_41" data-name="Group 41" transform="translate(152.772 490.789)" opacity="0.5" style="mix-blend-mode: multiply;isolation: isolate">
          <g id="Group_40" data-name="Group 40">
            <g id="Group_39" data-name="Group 39" clip-path="url(#clip-path-3)">
              <path id="Path_105" data-name="Path 105" d="M642.565,1348.469c-123.059,0-222.817,14.721-222.817,32.88s99.759,32.88,222.817,32.88,222.817-14.721,222.817-32.88-99.759-32.88-222.817-32.88m0,58.972c-97.652,0-176.814-11.682-176.814-26.092s79.162-26.092,176.814-26.092,176.814,11.682,176.814,26.092-79.162,26.092-176.814,26.092" transform="translate(-419.748 -1348.469)" fill="#61a3c5"/>
            </g>
          </g>
        </g>
        <g id="Group_44" data-name="Group 44" transform="translate(258.963 506.46)" opacity="0.5" style="mix-blend-mode: multiply;isolation: isolate">
          <g id="Group_43" data-name="Group 43">
            <g id="Group_42" data-name="Group 42" clip-path="url(#clip-path-4)">
              <path id="Path_106" data-name="Path 106" d="M944.766,1408.734c0,9.5-52.215,17.21-116.626,17.21s-116.626-7.705-116.626-17.21,52.215-17.21,116.626-17.21,116.626,7.705,116.626,17.21" transform="translate(-711.514 -1391.524)" fill="#61a3c5"/>
            </g>
          </g>
        </g>
        <rect id="Rectangle_5894" data-name="Rectangle 5894" width="142.13" height="97.276" transform="translate(193.285 9.47)" fill="#e2f2f1"/>
        <rect id="Rectangle_5895" data-name="Rectangle 5895" width="142.13" height="255.898" transform="translate(193.285 119.016)" fill="#e2f2f1"/>
        <path id="Path_107" data-name="Path 107" d="M666.4,381.773H506.1V0H666.4Zm-159.417-.887H665.518V.886H506.984Z" transform="translate(-321.9 0.002)" fill="#21111d"/>
        <path id="Path_108" data-name="Path 108" d="M672.862,122.963H529.849V24.8H672.862Zm-142.131-.887H671.979V25.686H530.732Z" transform="translate(-337.005 -15.773)" fill="#21111d"/>
        <path id="Path_109" data-name="Path 109" d="M672.862,582.568H529.849V325.782H672.862Zm-142.131-.887H671.979V326.669H530.732Z" transform="translate(-337.005 -207.21)" fill="#21111d"/>
        <path id="Path_110" data-name="Path 110" d="M612.151,100.965l-.557-.688,47.79-39.086.557.688Z" transform="translate(-388.998 -38.919)" fill="#21111d"/>
        <path id="Path_111" data-name="Path 111" d="M646.653,137.421l-.562-.684,28.918-24.012.562.683Z" transform="translate(-410.939 -71.697)" fill="#21111d"/>
        <path id="Path_112" data-name="Path 112" d="M760.182,576.738l-.681-.565,29.651-36.13.681.565Z" transform="translate(-483.073 -343.489)" fill="#21111d"/>
        <path id="Path_113" data-name="Path 113" d="M798.036,589.754l-.694-.549,18.139-23.136.693.55Z" transform="translate(-507.141 -360.042)" fill="#21111d"/>
        <rect id="Rectangle_5896" data-name="Rectangle 5896" width="142.13" height="97.276" transform="translate(9.084 9.47)" fill="#e2f2f1"/>
        <rect id="Rectangle_5897" data-name="Rectangle 5897" width="142.13" height="255.898" transform="translate(9.084 119.016)" fill="#e2f2f1"/>
        <path id="Path_114" data-name="Path 114" d="M160.3,381.773H0V0H160.3ZM.883,380.886H159.417V.886H.883Z" transform="translate(0 0.002)" fill="#21111d"/>
        <path id="Path_115" data-name="Path 115" d="M166.761,122.963H23.748V24.8H166.761Zm-142.13-.887H165.878V25.686H24.631Z" transform="translate(-15.105 -15.773)" fill="#21111d"/>
        <path id="Path_116" data-name="Path 116" d="M166.761,582.568H23.748V325.782H166.761Zm-142.13-.887H165.878V326.669H24.631Z" transform="translate(-15.105 -207.21)" fill="#21111d"/>
        <path id="Path_117" data-name="Path 117" d="M106.05,100.965l-.557-.688,47.79-39.086.557.688Z" transform="translate(-67.098 -38.919)" fill="#21111d"/>
        <path id="Path_118" data-name="Path 118" d="M140.552,137.421l-.562-.684,28.918-24.012.563.683Z" transform="translate(-89.039 -71.697)" fill="#21111d"/>
        <path id="Path_119" data-name="Path 119" d="M254.081,576.738l-.681-.565,29.651-36.13.681.565Z" transform="translate(-161.172 -343.489)" fill="#21111d"/>
        <path id="Path_120" data-name="Path 120" d="M291.935,589.754l-.694-.549,18.139-23.136.693.55Z" transform="translate(-185.241 -360.042)" fill="#21111d"/>
        <path id="Path_121" data-name="Path 121" d="M629.42,853.788H441.884a19.4,19.4,0,0,1-19.4-19.4V713.2a19.4,19.4,0,0,1,19.4-19.4H629.42a19.4,19.4,0,0,1,19.4,19.4V834.384a19.4,19.4,0,0,1-19.4,19.4" transform="translate(-268.715 -441.283)" fill="#fec786"/>
        <path id="Path_122" data-name="Path 122" d="M979.64,853.788h216.509a19.4,19.4,0,0,0,19.4-19.4V713.2a19.4,19.4,0,0,0-19.4-19.4H979.64a19.4,19.4,0,0,0-19.4,19.4V834.384a19.4,19.4,0,0,0,19.4,19.4" transform="translate(-610.748 -441.283)" fill="#fec786"/>
        <path id="Path_123" data-name="Path 123" d="M976.735,1065.088l-35.828-.119c-4.166.119-7.519-5.689-8.175-7.463l-9.855-16.771,36.528-6.2Z" transform="translate(-586.986 -658.008)" fill="#e2f2f1"/>
        <path id="Path_124" data-name="Path 124" d="M604.426,1220.379H345.512a19.4,19.4,0,0,1-19.4-19.4V1136.3a19.4,19.4,0,0,1,19.4-19.4H604.426a19.4,19.4,0,0,1,19.4,19.4v64.672a19.4,19.4,0,0,1-19.4,19.4" transform="translate(-207.418 -710.392)" fill="#f99247"/>
        <path id="Path_125" data-name="Path 125" d="M1059.249,1220.379h214.992a19.4,19.4,0,0,0,19.4-19.4V1136.3a19.4,19.4,0,0,0-19.4-19.4H1059.249a19.4,19.4,0,0,0-19.4,19.4v64.672a19.4,19.4,0,0,0,19.4,19.4" transform="translate(-661.383 -710.392)" fill="#f99247"/>
        <path id="Path_126" data-name="Path 126" d="M1656.248,1082.008h26.915a15.072,15.072,0,0,0,15.072-15.072V924.167a26.889,26.889,0,0,0-26.889-26.889h-3.281a26.889,26.889,0,0,0-26.889,26.889v142.769a15.072,15.072,0,0,0,15.072,15.072" transform="translate(-1043.853 -570.704)" fill="#f7ab48"/>
        <path id="Path_127" data-name="Path 127" d="M504.816,918.206S517.526,939,553.254,935.8s68.523-58.392,68.523-58.392L665.505,927s24.263-7.665,32.262-20.23c0,0-46.927-77.89-69.323-78.156S516.679,898.738,515.5,899.538s-10.687,18.668-10.687,18.668" transform="translate(-321.083 -527.031)" fill="#3f9896"/>
        <path id="Path_128" data-name="Path 128" d="M713.56,992.021a.447.447,0,0,0,.281-.1c26.86-21.465,46.57-55.839,46.766-56.183a.45.45,0,1,0-.782-.444c-.2.343-19.824,34.57-46.546,55.925a.45.45,0,0,0,.281.8" transform="translate(-453.566 -594.74)" fill="#21111d"/>
        <path id="Path_129" data-name="Path 129" d="M504.816,1029.986s12.71,20.793,48.438,17.594,91.308-2.814,91.308-2.814-78.42-40.133-100.817-40.4-27.066,6.152-28.242,6.952-10.687,18.668-10.687,18.668" transform="translate(-321.083 -638.811)" fill="#258d8c"/>
        <path id="Path_130" data-name="Path 130" d="M637.9,833.627c.889-.353,42.127.891,42.127.891l-1.422,17.242-21.864,3.2Z" transform="translate(-405.732 -530.179)" fill="#f07162"/>
        <path id="Path_131" data-name="Path 131" d="M406.354,896.973s10.685,35.245,33.215,65.908c0,0,13.068-5.175,32.064-21.185s-65.279-44.723-65.279-44.723" transform="translate(-258.457 -570.51)" fill="#f07162"/>
        <path id="Path_132" data-name="Path 132" d="M328.252,1077.556H301.338a15.072,15.072,0,0,1-15.072-15.072V919.239a26.888,26.888,0,0,1,26.889-26.889h3.281c14.851,0,26.794,13.185,26.794,28.036l.1,142.1a15.072,15.072,0,0,1-15.072,15.072" transform="translate(-182.077 -567.57)" fill="#f7ab48"/>
        <path id="Path_133" data-name="Path 133" d="M285.48,1063.874a.45.45,0,0,0,.45-.45V920.092a28.082,28.082,0,0,1,55.651-5.345.45.45,0,0,0,.883-.17,28.982,28.982,0,0,0-57.434,5.515v143.333a.45.45,0,0,0,.45.45" transform="translate(-181.29 -566.783)" fill="#21111d"/>
        <path id="Path_134" data-name="Path 134" d="M1641.1,1068.8a.45.45,0,0,0,.45-.45V925.021a28.082,28.082,0,0,1,55.651-5.345.45.45,0,0,0,.883-.17,28.982,28.982,0,0,0-57.434,5.515v143.333a.45.45,0,0,0,.45.45" transform="translate(-1043.518 -569.918)" fill="#21111d"/>
        <path id="Path_135" data-name="Path 135" d="M783.6,800.964H740.57c-2.042,0-3.771-1.659-3.541-3.4l8.243-62.357a2.658,2.658,0,0,1,2.815-2.154h43.029c2.042,0,3.771,1.659,3.541,3.4l-8.243,62.357a2.659,2.659,0,0,1-2.815,2.154" transform="translate(-468.767 -466.252)" fill="#7fc6a6"/>
        <path id="Path_136" data-name="Path 136" d="M752.625,845.4a2.267,2.267,0,0,0-2.514-1.785l-7.1.943a.526.526,0,0,1-.207-1.03l10.238-2.777a1.747,1.747,0,0,0,1.149-2.558,2.811,2.811,0,0,0-3.116-1.4l-10.44,2.832a.527.527,0,0,1-.609-.274l-.079-.159a.527.527,0,0,1,.237-.706l10.73-5.332A2.268,2.268,0,0,0,752,830.271a2.167,2.167,0,0,0-2.934-1.037l-10.811,5.372a.527.527,0,0,1-.706-.237l-.251-.505a.527.527,0,0,1,.178-.671l9.3-6.245a2.267,2.267,0,0,0,.7-3,2.167,2.167,0,0,0-3.044-.646s-14.653,8.747-17.064,9.931l4.415-3.221c4.105,2.542-.683-1.092-3.64-1.092-3.276,0-10.04,9.374-10.04,9.374-.248.74.443,2.141,1.268,3.134,4.8,11.854,5.639,13.641,7.228,16.718l12.03-6.493a32.512,32.512,0,0,1,11.164-3.618l.982-.131a2.167,2.167,0,0,0,1.853-2.5" transform="translate(-456.707 -523.416)" fill="#fe9f73"/>
        <path id="Path_137" data-name="Path 137" d="M405.406,692.975s-14.026,1.422-22.735,4.8-16.887,14.754-16.353,25.952,24.963,75.723,43.055,86.743,33.164,3.286,33.164,3.286l62.251-32.793s-5.333-24-12.976-30.751l-14.043,4.457-32.884-49.606s-10.521-18.842-39.478-12.087" transform="translate(-232.977 -439.829)" fill="#f07162"/>
        <path id="Path_138" data-name="Path 138" d="M490.893,882.752a.446.446,0,0,0,.171-.034c.6-.246,59.473-24.544,79.565-30.3.963,1.1,5.659,6.876,9.614,19.2a.45.45,0,0,0,.857-.274c-4.482-13.965-9.78-19.518-10-19.747l-.187-.192-.258.073c-19.881,5.63-79.333,30.165-79.932,30.412a.45.45,0,0,0,.173.866" transform="translate(-311.941 -541.524)" fill="#21111d"/>
        <path id="Path_139" data-name="Path 139" d="M480.873,841.569a.45.45,0,0,0,.373-.7c-.182-.271-18.341-27.249-28.349-44.762a.45.45,0,0,0-.781.446c10.025,17.543,28.2,44.548,28.384,44.819a.449.449,0,0,0,.373.2" transform="translate(-287.525 -506.21)" fill="#21111d"/>
        <path id="Path_140" data-name="Path 140" d="M596.954,804.285a.45.45,0,0,0,.353-.728c-.229-.291-22.959-29.175-29.4-39.7a.45.45,0,0,0-.768.47c6.472,10.565,29.234,39.492,29.463,39.783a.449.449,0,0,0,.354.172" transform="translate(-360.68 -485.709)" fill="#21111d"/>
        <path id="Path_141" data-name="Path 141" d="M386.681,787.917a.467.467,0,0,0,.118-.015.45.45,0,0,0,.317-.552c-1.52-5.636.291-7.934.309-7.956a.45.45,0,0,0-.689-.579c-.088.1-2.147,2.626-.489,8.77a.45.45,0,0,0,.435.333" transform="translate(-245.259 -495.256)" fill="#21111d"/>
        <path id="Path_142" data-name="Path 142" d="M396.725,794.035A.443.443,0,0,0,396.9,794a.449.449,0,0,0,.233-.591c-2.329-5.352-.873-7.891-.858-7.916a.45.45,0,0,0-.766-.471c-.072.116-1.739,2.912.8,8.746a.45.45,0,0,0,.413.27" transform="translate(-251.178 -499.168)" fill="#21111d"/>
        <path id="Path_143" data-name="Path 143" d="M605.653,1101.164c.477,0,.982-.018,1.518-.057a.45.45,0,1,0-.065-.9c-5.875.428-7.732-1.787-7.751-1.81a.45.45,0,0,0-.7.564c.078.1,1.834,2.2,7,2.2" transform="translate(-380.705 -698.519)" fill="#21111d"/>
        <path id="Path_144" data-name="Path 144" d="M611.136,1093.7a17.742,17.742,0,0,0,3.852-.461.45.45,0,0,0-.2-.878c-5.695,1.271-7.913-.639-7.935-.659a.45.45,0,0,0-.609.663c.076.071,1.494,1.336,4.888,1.336" transform="translate(-385.507 -694.295)" fill="#21111d"/>
        <path id="Path_145" data-name="Path 145" d="M464.994,727.093q.632,0,1.284-.021a.45.45,0,0,0-.03-.9c-18.676.617-23.523-12.6-23.563-12.734a.453.453,0,0,0-.552-.309.445.445,0,0,0-.318.537c.035.138,4.868,13.427,23.18,13.427" transform="translate(-281.003 -453.568)" fill="#21111d"/>
        <path id="Path_146" data-name="Path 146" d="M470.222,705.508c7.866-.041,12.45-5.133,15.106-10.589-6.263-3.021-15.3-4.844-27.733-1.943,0,0-4.1.417-9.25,1.333,2.431,3.68,9.006,11.266,21.877,11.2" transform="translate(-285.165 -439.83)" fill="#fe9f73"/>
        <path id="Path_147" data-name="Path 147" d="M536.818,748.7a.451.451,0,0,0,.443-.375l1-5.91-.1-.148-25.324-38.2a27.1,27.1,0,0,0-9.028-8.724c-5.775-3.572-15.83-7.09-30.937-3.566a.45.45,0,1,0,.2.876c14.781-3.448,24.59-.039,30.216,3.429a26.647,26.647,0,0,1,8.767,8.44l.018.029,25.235,38.067-.937,5.56a.451.451,0,0,0,.444.524" transform="translate(-300.543 -439.068)" fill="#21111d"/>
        <path id="Path_148" data-name="Path 148" d="M491.8,590.562v19.589s.262,6.3-5.248,7.084l1.029,8.4A6.557,6.557,0,0,1,483.1,632.7a17.2,17.2,0,0,1-5.2.8c-6.3,0-9.708-4.723-10.233-7.085s1.05-13.644,1.05-13.644l-.192-5.544.717-21.482Z" transform="translate(-297.383 -372.559)" fill="#fe9f73"/>
        <path id="Path_149" data-name="Path 149" d="M484.657,657.561s.37,10.54,13.533,11.547l-.759-6.2s-8.537,1.715-12.774-5.349" transform="translate(-308.261 -418.235)" fill="#f07162"/>
        <path id="Path_150" data-name="Path 150" d="M500.61,620.816s1.716,12.616-6.662,13.064c-11.987.642-13.148-6.2-13.86-11.8l-.12-11.554.385-3.353a5.989,5.989,0,0,1,1.479,3.435c.248,2.771.862,10.235,1.554,10.565.976.466,15.359-1.575,17.225-.36" transform="translate(-305.279 -386.188)" fill="#49263e"/>
        <path id="Path_151" data-name="Path 151" d="M491.942,622.873a.263.263,0,0,1-.189-.444c.036-.037,3.645-3.729,6.943-1.072a.262.262,0,1,1-.329.408c-2.922-2.354-6.1.888-6.235,1.027a.262.262,0,0,1-.189.081" transform="translate(-312.728 -394.596)" fill="#49263e"/>
        <path id="Path_152" data-name="Path 152" d="M467.555,603.326l5.663,1.179,1.023,1.061s-.49-9.494-1.557-11.36-5.13,9.121-5.13,9.121" transform="translate(-297.384 -377.802)" fill="#49263e"/>
        <path id="Path_153" data-name="Path 153" d="M521.66,619.756a.263.263,0,0,1-.172-.461c.106-.092,2.609-2.232,4.191-.875a.262.262,0,1,1-.341.4c-1.24-1.063-3.484.854-3.506.874a.262.262,0,0,1-.172.064" transform="translate(-331.63 -393.054)" fill="#49263e"/>
        <path id="Path_154" data-name="Path 154" d="M504.228,628.739a.787.787,0,1,1-.787-.787.788.788,0,0,1,.787.787" transform="translate(-319.707 -399.402)"/>
        <path id="Path_155" data-name="Path 155" d="M527.216,626.577a.787.787,0,1,1-.787-.787.787.787,0,0,1,.787.787" transform="translate(-334.329 -398.027)"/>
        <path id="Path_156" data-name="Path 156" d="M472.609,621.11a4.723,4.723,0,1,1-4.723-4.723,4.723,4.723,0,0,1,4.723,4.723" transform="translate(-294.59 -392.046)" fill="#fe9f73"/>
        <path id="Path_157" data-name="Path 157" d="M470.473,627.4a1.968,1.968,0,0,1-1.852-1.474,1.849,1.849,0,0,1,.745-2.158,2.22,2.22,0,0,1,2.48.087,2.132,2.132,0,0,0-.954-1.163,2.967,2.967,0,0,0-2.1-.135.131.131,0,1,1-.083-.249,3.178,3.178,0,0,1,2.3.153,2.552,2.552,0,0,1,1.205,1.72l.114.457-.334-.332a2.054,2.054,0,0,0-2.5-.316,1.605,1.605,0,0,0-.632,1.861,1.692,1.692,0,0,0,1.6,1.286h.027a.131.131,0,0,1,0,.262h-.028" transform="translate(-298.004 -395.719)" fill="#f07162"/>
        <path id="Path_158" data-name="Path 158" d="M514.379,631.66a.131.131,0,0,1-.041-.256l2.63-.87-.831-6.189a.131.131,0,0,1,.113-.147.129.129,0,0,1,.147.112l.86,6.4-2.837.938a.131.131,0,0,1-.041.007" transform="translate(-327.082 -397.013)" fill="#f07162"/>
        <path id="Path_159" data-name="Path 159" d="M509.011,651.488c.081-.016,5.2-.135,5.2-.135s-.642,2.115-2.543,2.165-2.652-2.029-2.652-2.029" transform="translate(-323.751 -414.286)" fill="#fbfdfc"/>
        <path id="Path_160" data-name="Path 160" d="M466.769,583.571s-1.594-9.2,1.221-12.624,18.976-9.427,20.935-7.713,0,3.8,0,3.8,6.488-2.081,7.957,3.673-12.487,8.2-20.812,5.509a18.581,18.581,0,0,0-9.3,7.36" transform="translate(-296.598 -358.047)" fill="#49263e"/>
        <path id="Path_161" data-name="Path 161" d="M496.461,920.946a.5.5,0,0,0,.062,0l12.228-1.679a.45.45,0,1,0-.122-.892L496.4,920.05a.45.45,0,0,0,.061.9" transform="translate(-315.483 -584.117)" fill="#21111d"/>
        <path id="Path_162" data-name="Path 162" d="M665.039,833.656a.45.45,0,0,0,.008-.9l-14-.254a.45.45,0,1,0-.016.9l14,.254Z" transform="translate(-413.804 -529.504)" fill="#21111d"/>
        <path id="Path_163" data-name="Path 163" d="M868.574,1003.851l.283-.1a129.267,129.267,0,0,0,19.2-8.687.45.45,0,1,0-.438-.786,129.848,129.848,0,0,1-18.768,8.523l-43.19-48.983a58.251,58.251,0,0,0,5.581-4.417.45.45,0,1,0-.6-.669,55.5,55.5,0,0,1-5.9,4.625l-.433.285Z" transform="translate(-524.291 -603.359)" fill="#21111d"/>
        <path id="Path_164" data-name="Path 164" d="M819.62,789.648a4.133,4.133,0,1,1-4.133-4.133,4.132,4.132,0,0,1,4.133,4.133" transform="translate(-516.054 -499.618)" fill="#fff"/>
        <path id="Path_165" data-name="Path 165" d="M739.86,789.528c.222,0-.206,2.077-.176,1.85l7.151-56.9a2.21,2.21,0,0,1,2.369-1.763h43.029a.45.45,0,1,0,0-.9H749.2a3.121,3.121,0,0,0-3.261,2.546l-7.174,55.893c-.032.246.118-.4.364-.364.02,0,.708-.364.728-.364" transform="translate(-469.883 -465.465)" fill="#21111d"/>
        <path id="Path_166" data-name="Path 166" d="M740.524,847.979l-3.852,2.118-1.337,12.432,1.337,2.755s2.752.266,2.84-.356,1.012-16.949,1.012-16.949" transform="translate(-467.702 -539.348)" fill="#fe9f73"/>
        <rect id="Rectangle_5898" data-name="Rectangle 5898" width="76.76" height="8.399" transform="translate(190.177 406.902)" fill="#f99247"/>
        <path id="Path_167" data-name="Path 167" d="M472.972,1161.636a.45.45,0,0,0,.362-.182l8.549-11.556a.45.45,0,1,0-.724-.535l-8.549,11.555a.45.45,0,0,0,.361.718" transform="translate(-300.543 -730.925)" fill="#21111d"/>
        <path id="Path_168" data-name="Path 168" d="M480.54,1179.4a.45.45,0,0,0,.362-.182l8.549-11.556a.45.45,0,0,0-.724-.535l-8.549,11.555a.45.45,0,0,0,.361.718" transform="translate(-305.356 -742.221)" fill="#21111d"/>
        <path id="Path_169" data-name="Path 169" d="M952.242,742.212a.449.449,0,0,0,.362-.182l8.549-11.556a.45.45,0,0,0-.723-.535l-8.549,11.555a.45.45,0,0,0,.361.718" transform="translate(-605.378 -464.154)" fill="#21111d"/>
        <path id="Path_170" data-name="Path 170" d="M959.81,759.971a.45.45,0,0,0,.362-.182l8.549-11.555A.45.45,0,0,0,968,747.7l-8.549,11.555a.451.451,0,0,0,.094.63.445.445,0,0,0,.267.088" transform="translate(-610.191 -475.449)" fill="#21111d"/>
        <path id="Path_171" data-name="Path 171" d="M604.893,985.38s54.594,5.459,67.333,6.187c10.181.582,86.622,11.647,86.622,11.647v30.034c0,.175-102.431-.516-102.431-.516s-67.2-24.692-68.643-25.1-12-6.962-12-6.962Z" transform="translate(-366.216 -626.74)" fill="#258d8c"/>
        <path id="Path_172" data-name="Path 172" d="M1246.431,972.084a.45.45,0,0,0,.362-.182l8.549-11.556a.45.45,0,1,0-.724-.535l-8.549,11.556a.45.45,0,0,0,.361.718" transform="translate(-792.494 -610.361)" fill="#21111d"/>
        <path id="Path_173" data-name="Path 173" d="M1254,989.844a.451.451,0,0,0,.362-.182l8.549-11.555a.45.45,0,0,0-.724-.536l-8.55,11.555a.451.451,0,0,0,.094.63.446.446,0,0,0,.267.088" transform="translate(-797.308 -621.658)" fill="#21111d"/>
        <path id="Path_174" data-name="Path 174" d="M1718.2,1319.8a.449.449,0,0,0,.369-.193l8.05-11.555a.45.45,0,1,0-.738-.514l-8.05,11.555a.451.451,0,0,0,.369.707" transform="translate(-1092.559 -831.521)" fill="#21111d"/>
        <path id="Path_175" data-name="Path 175" d="M1725.328,1337.556a.45.45,0,0,0,.37-.193l8.05-11.556a.45.45,0,0,0-.739-.514l-8.05,11.556a.45.45,0,0,0,.369.707" transform="translate(-1097.091 -842.816)" fill="#21111d"/>
        <path id="Path_176" data-name="Path 176" d="M333.912,958a.45.45,0,0,0,.369-.193l8.05-11.555a.45.45,0,0,0-.738-.515l-8.05,11.555a.449.449,0,0,0,.112.626.442.442,0,0,0,.257.081" transform="translate(-212.095 -601.402)" fill="#21111d"/>
        <path id="Path_177" data-name="Path 177" d="M341.038,975.756a.449.449,0,0,0,.369-.193l8.05-11.556a.45.45,0,1,0-.738-.514l-8.05,11.556a.45.45,0,0,0,.369.707" transform="translate(-216.628 -612.697)" fill="#21111d"/>
        <path id="Path_178" data-name="Path 178" d="M833.789,1265.85a.45.45,0,0,0,.362-.182l4.382-5.924a.45.45,0,0,0-.724-.536l-4.382,5.924a.45.45,0,0,0,.361.718" transform="translate(-530.037 -800.79)" fill="#21111d"/>
        <path id="Path_179" data-name="Path 179" d="M837.668,1274.955a.451.451,0,0,0,.362-.182l4.383-5.924a.45.45,0,1,0-.724-.535l-4.383,5.924a.45.45,0,0,0,.362.718" transform="translate(-532.504 -806.581)" fill="#21111d"/>
        <rect id="Rectangle_5899" data-name="Rectangle 5899" width="1.189" height="70.417" transform="translate(736.888 231.309)" fill="#49263e"/>
        <rect id="Rectangle_5900" data-name="Rectangle 5900" width="6.242" height="324.388" transform="translate(705.261 202.792)" fill="#f99247"/>
        <path id="Path_180" data-name="Path 180" d="M1888.047,487.069h-63.46l-19.843,74.665h103.145Z" transform="translate(-1147.889 -309.795)" fill="#61a3c5"/>
        <path id="Path_181" data-name="Path 181" d="M1889.978,1430.97H1864.12a6.381,6.381,0,0,0-6.381,6.38h64.477a6.38,6.38,0,0,0-6.381-6.38Z" transform="translate(-1181.596 -910.154)" fill="#f99247"/>
        <path id="Path_182" data-name="Path 182" d="M2023.449,840.41h-.213a1.743,1.743,0,0,1-1.743-1.743V826.83a1.743,1.743,0,0,1,1.743-1.743h.213a1.743,1.743,0,0,1,1.743,1.743v11.837a1.743,1.743,0,0,1-1.743,1.743" transform="translate(-1285.75 -524.788)" fill="#f99247"/>
        <rect id="Rectangle_5901" data-name="Rectangle 5901" width="76.091" height="0.9" transform="matrix(0.193, -0.981, 0.981, 0.193, 671.057, 251.853)" fill="#21111d"/>
        <rect id="Rectangle_5902" data-name="Rectangle 5902" width="74.672" height="0.9" transform="translate(698.922 251.933) rotate(-89.189)" fill="#21111d"/>
        <rect id="Rectangle_5903" data-name="Rectangle 5903" width="0.9" height="74.722" transform="translate(717.668 177.292) rotate(-2.248)" fill="#21111d"/>
        <rect id="Rectangle_5904" data-name="Rectangle 5904" width="0.9" height="75.919" transform="matrix(0.979, -0.202, 0.202, 0.979, 729.316, 177.365)" fill="#21111d"/>
        <rect id="Rectangle_5905" data-name="Rectangle 5905" width="109.412" height="111.252" transform="translate(11.522 410.358)" fill="#49263e"/>
        <rect id="Rectangle_5906" data-name="Rectangle 5906" width="81.186" height="48.486" transform="translate(25.605 420.88)"/>
        <rect id="Rectangle_5907" data-name="Rectangle 5907" width="53.654" height="9.115" transform="translate(39.336 460.252)" fill="#fec786"/>
        <rect id="Rectangle_5908" data-name="Rectangle 5908" width="53.654" height="13.249" transform="translate(32.57 447.003)" fill="#7fc6a6"/>
        <rect id="Rectangle_5909" data-name="Rectangle 5909" width="53.654" height="13.249" transform="translate(44.316 433.754)" fill="#61a3c5"/>
        <g id="Group_47" data-name="Group 47" transform="translate(48.31 433.754)" style="mix-blend-mode: multiply;isolation: isolate">
          <g id="Group_46" data-name="Group 46">
            <g id="Group_45" data-name="Group 45" clip-path="url(#clip-path-5)">
              <rect id="Rectangle_5910" data-name="Rectangle 5910" width="3.665" height="13.249" fill="#61a3c5"/>
            </g>
          </g>
        </g>
        <g id="Group_50" data-name="Group 50" transform="translate(35.671 447.003)" style="mix-blend-mode: multiply;isolation: isolate">
          <g id="Group_49" data-name="Group 49">
            <g id="Group_48" data-name="Group 48" clip-path="url(#clip-path-5)">
              <rect id="Rectangle_5912" data-name="Rectangle 5912" width="3.665" height="13.249" transform="translate(0 0)" fill="#61a3c5"/>
            </g>
          </g>
        </g>
        <g id="Group_53" data-name="Group 53" transform="translate(45.397 460.252)" style="mix-blend-mode: multiply;isolation: isolate">
          <g id="Group_52" data-name="Group 52">
            <g id="Group_51" data-name="Group 51" clip-path="url(#clip-path-7)">
              <rect id="Rectangle_5914" data-name="Rectangle 5914" width="3.665" height="9.115" transform="translate(0)" fill="#febac7"/>
            </g>
          </g>
        </g>
        <g id="Group_56" data-name="Group 56" transform="translate(84.392 460.252)" style="mix-blend-mode: multiply;isolation: isolate">
          <g id="Group_55" data-name="Group 55">
            <g id="Group_54" data-name="Group 54" clip-path="url(#clip-path-7)">
              <rect id="Rectangle_5916" data-name="Rectangle 5916" width="3.665" height="9.115" transform="translate(0)" fill="#febac7"/>
            </g>
          </g>
        </g>
        <g id="Group_59" data-name="Group 59" transform="translate(77.814 447.003)" style="mix-blend-mode: multiply;isolation: isolate">
          <g id="Group_58" data-name="Group 58">
            <g id="Group_57" data-name="Group 57" clip-path="url(#clip-path-5)">
              <rect id="Rectangle_5918" data-name="Rectangle 5918" width="3.665" height="13.249" transform="translate(0 0)" fill="#61a3c5"/>
            </g>
          </g>
        </g>
        <g id="Group_62" data-name="Group 62" transform="translate(91.157 433.754)" style="mix-blend-mode: multiply;isolation: isolate">
          <g id="Group_61" data-name="Group 61">
            <g id="Group_60" data-name="Group 60" clip-path="url(#clip-path-5)">
              <rect id="Rectangle_5920" data-name="Rectangle 5920" width="3.665" height="13.249" transform="translate(0)" fill="#61a3c5"/>
            </g>
          </g>
        </g>
        <rect id="Rectangle_5922" data-name="Rectangle 5922" width="6.514" height="0.952" transform="translate(44.614 452.89) rotate(-27.467)" fill="#21111d"/>
        <rect id="Rectangle_5923" data-name="Rectangle 5923" width="7.005" height="0.951" transform="translate(48.322 454.152) rotate(-29.321)" fill="#21111d"/>
        <rect id="Rectangle_5924" data-name="Rectangle 5924" width="6.514" height="0.951" transform="translate(77.241 438.702) rotate(-27.477)" fill="#21111d"/>
        <rect id="Rectangle_5925" data-name="Rectangle 5925" width="7.005" height="0.951" transform="translate(80.948 439.964) rotate(-29.321)" fill="#21111d"/>
        <rect id="Rectangle_5926" data-name="Rectangle 5926" width="6.514" height="0.952" transform="matrix(0.887, -0.461, 0.461, 0.887, 59.177, 465.753)" fill="#21111d"/>
        <rect id="Rectangle_5927" data-name="Rectangle 5927" width="7.005" height="0.951" transform="translate(62.885 467.016) rotate(-29.321)" fill="#21111d"/>
        <rect id="Rectangle_5928" data-name="Rectangle 5928" width="115.577" height="7.287" transform="translate(8.633 403.071)" fill="#683d46"/>
        <path id="Path_183" data-name="Path 183" d="M306.107,834.755S304.4,810.9,295.136,815.53s-16.81,35.028-17.816,35.934-.7,28.687-.7,28.687l10.77-5.434s2.865-66.4,18.722-39.962" transform="translate(-175.911 -518.33)" fill="#258d8c"/>
        <path id="Path_184" data-name="Path 184" d="M281.116,733.689s-20.75,18.565-26.411,50.4,12.229,41.2,12.229,41.2,2.546-66.933,14.182-91.6" transform="translate(-161.298 -466.655)" fill="#3f9896"/>
        <path id="Path_185" data-name="Path 185" d="M186.776,827.4s-3.473-67.765-20.987-97.145c0,0,30.748,18.344,40.943,66.493.574,2.71.915,5.724,1.349,8.625a47.65,47.65,0,0,1,.653,8.361c-.122,4.715-.776,8.766-.968,11.744-1.661,25.727-20.99,1.921-20.99,1.921" transform="translate(-105.448 -464.47)" fill="#258d8c"/>
        <path id="Path_186" data-name="Path 186" d="M165.559,857.916A55.043,55.043,0,0,0,154.8,831.3c-4.258-5.6-9.189-9.848-13.039-6.813C133.208,831.23,131.5,873.1,131.5,873.1s9.663-28.989,13.89-27.077,8.153,41.269,8.153,41.269l15.8,1.308Z" transform="translate(-83.637 -523.763)" fill="#3f9896"/>
        <path id="Path_187" data-name="Path 187" d="M208.679,824.659a118.867,118.867,0,0,0-5.515-42.2,110.065,110.065,0,0,0-14.907-29.611c-10.976-15.462-22.458-23.1-22.572-23.177l-.281.428c.114.075,11.529,7.674,22.449,23.064,10.075,14.2,21.778,38.126,20.315,71.478Z" transform="translate(-105.204 -464.096)" fill="#21111d"/>
        <path id="Path_188" data-name="Path 188" d="M290.05,825.106c.007-.167.66-16.954,2.726-36.535,1.906-18.06,5.436-42.255,11.431-54.964l-.463-.218c-6.026,12.774-9.568,37.031-11.478,55.132-2.068,19.6-2.722,36.4-2.729,36.567Z" transform="translate(-184.158 -466.464)" fill="#21111d"/>
        <path id="Path_189" data-name="Path 189" d="M306.09,898.233c0-.109.491-11.023,2.095-22.082,2.109-14.541,5.156-22.722,8.814-23.66,2.159-.553,4.628,1.433,7.34,5.9l.437-.265c-2.842-4.685-5.5-6.749-7.9-6.132-3.929,1.007-7.022,9.111-9.193,24.086-1.607,11.084-2.094,22.021-2.1,22.13Z" transform="translate(-194.36 -541.835)" fill="#21111d"/>
        <path id="Path_190" data-name="Path 190" d="M168.643,888.189l.508-.063-3.785-30.688A55.34,55.34,0,0,0,154.56,830.7c-3.711-4.876-7.008-7.529-9.8-7.883a4.684,4.684,0,0,0-3.6,1.023c-3.6,2.84-6.441,11.925-8.437,27-1.482,11.193-1.923,21.7-1.927,21.8l.511.021c.017-.417,1.8-41.832,10.169-48.427a4.2,4.2,0,0,1,3.223-.918c2.649.337,5.83,2.923,9.455,7.686A54.828,54.828,0,0,1,164.858,857.5Z" transform="translate(-83.191 -523.317)" fill="#21111d"/>
        <rect id="Rectangle_5929" data-name="Rectangle 5929" width="0.511" height="7.242" transform="translate(68.57 327.261) rotate(-27.276)" fill="#21111d"/>
        <rect id="Rectangle_5930" data-name="Rectangle 5930" width="0.511" height="6.882" transform="translate(68.573 331.614) rotate(-28.844)" fill="#21111d"/>
        <rect id="Rectangle_5931" data-name="Rectangle 5931" width="6.847" height="0.511" transform="matrix(0.414, -0.91, 0.91, 0.414, 102.988, 294.879)" fill="#21111d"/>
        <rect id="Rectangle_5932" data-name="Rectangle 5932" width="4.984" height="0.512" transform="matrix(0.485, -0.875, 0.875, 0.485, 102.996, 297.881)" fill="#21111d"/>
        <rect id="Rectangle_5933" data-name="Rectangle 5933" width="5.423" height="0.512" transform="translate(116.844 301.947) rotate(-27.007)" fill="#21111d"/>
        <rect id="Rectangle_5934" data-name="Rectangle 5934" width="3.346" height="0.512" transform="matrix(0.854, -0.52, 0.52, 0.854, 116.827, 304.055)" fill="#21111d"/>
        <path id="Path_191" data-name="Path 191" d="M232.427,971.97s-.9,49.54-14.171,48.379H195.712c-13.269,1.162-14.171-48.379-14.171-48.379,12.557-1.9,38.329-1.9,50.886,0" transform="translate(-115.467 -617.306)" fill="#f75553"/>
        <rect id="Rectangle_5935" data-name="Rectangle 5935" width="0.511" height="21.087" transform="translate(71.02 361.358) rotate(-43.441)" fill="#21111d"/>
        <rect id="Rectangle_5936" data-name="Rectangle 5936" width="0.511" height="12.165" transform="matrix(0.755, -0.656, 0.656, 0.755, 75.269, 371.206)" fill="#21111d"/>
        <path id="Path_192" data-name="Path 192" d="M63.591,1004.3v31.908a2.364,2.364,0,0,0,2.364,2.363h18.2a2.363,2.363,0,0,0,2.363-2.363v-1.637a13.075,13.075,0,1,0,0-26.151v-4.12Zm22.93,27.047v-19.7a9.851,9.851,0,1,1,0,19.7" transform="translate(-40.446 -638.774)" fill="#fd7583"/>
        <rect id="Rectangle_5937" data-name="Rectangle 5937" width="48.783" height="3.24" transform="translate(13.139 399.796)" fill="#61a3c5"/>
        <rect id="Rectangle_5938" data-name="Rectangle 5938" width="6.575" height="0.634" transform="matrix(0.514, -0.858, 0.858, 0.514, 32.688, 388.132)" fill="#49263e"/>
        <rect id="Rectangle_5939" data-name="Rectangle 5939" width="6.399" height="0.634" transform="matrix(0.499, -0.866, 0.866, 0.499, 29.021, 389.097)" fill="#49263e"/>
        <rect id="Rectangle_5940" data-name="Rectangle 5940" width="84.788" height="112.384" transform="translate(549.693 57.047)" fill="#683d46"/>
        <rect id="Rectangle_5941" data-name="Rectangle 5941" width="69.324" height="95.586" transform="translate(557.425 65.446)" fill="#61a3c5"/>
        <path id="Path_193" data-name="Path 193" d="M1566.568,252.319c-5.438-6.107-8.856-13.372-9.624-20.457-.779-7.2,1.258-13.36,5.739-17.349s10.836-5.3,17.9-3.7c6.949,1.581,13.771,5.814,19.209,11.921,11.3,12.691,13.044,29.651,3.885,37.807a17.976,17.976,0,0,1-12.2,4.335c-8.249,0-17.674-4.435-24.909-12.559m-2.688-36.463c-4.034,3.592-5.861,9.207-5.146,15.811.728,6.716,3.987,13.625,9.178,19.454,10.641,11.949,26.146,15.573,34.564,8.077s6.609-23.316-4.032-35.266c-5.191-5.83-11.677-9.865-18.265-11.364a23.907,23.907,0,0,0-5.3-.621,16.19,16.19,0,0,0-11,3.907" transform="translate(-990.175 -133.662)" fill="#21111d"/>
        <path id="Path_194" data-name="Path 194" d="M1583.623,266.227c-7.82-4.071-5.524-23.432,5.224-44.078,5.057-9.712,11.2-18.133,17.3-23.713,6.325-5.785,11.94-7.86,15.812-5.844s5.391,7.806,4.279,16.3c-1.072,8.2-4.447,18.061-9.5,27.773-9.421,18.095-21.757,30.3-29.927,30.3a6.808,6.808,0,0,1-3.187-.745m23.741-66.463c-5.949,5.441-11.958,13.686-16.92,23.217-9.94,19.092-12.683,38.165-5.99,41.65a5.159,5.159,0,0,0,2.419.559c7.27,0,19.4-12.328,28.267-29.352,4.962-9.53,8.27-19.181,9.316-27.175.992-7.582-.221-12.858-3.327-14.475a5.074,5.074,0,0,0-2.374-.543c-3.023,0-7.02,2.121-11.391,6.119" transform="translate(-1004.299 -122.018)" fill="#21111d"/>
        <rect id="Rectangle_5942" data-name="Rectangle 5942" width="56.772" height="85.099" transform="translate(459.295 131.342)" fill="#683d46"/>
        <rect id="Rectangle_5943" data-name="Rectangle 5943" width="46.418" height="72.38" transform="translate(464.472 137.702)" fill="#f75553"/>
        <path id="Path_195" data-name="Path 195" d="M1328.326,422.031V392.342l19.4-2.792v35.273Zm1.8-28.129v26.57l15.8,2.274V391.627Z" transform="translate(-844.868 -247.769)" fill="#21111d"/>
        <path id="Path_196" data-name="Path 196" d="M1300.58,475.533a35.459,35.459,0,0,1-11.405-30.213c.848-5.11,3.257-8.658,6.784-9.99s7.68-.261,11.694,3.014a35.462,35.462,0,0,1,11.4,30.213c-.847,5.11-3.256,8.658-6.784,9.99a8.719,8.719,0,0,1-3.1.558c-2.747,0-5.707-1.215-8.595-3.572m-3.985-38.519c-2.9,1.1-4.906,4.15-5.645,8.6a33.685,33.685,0,0,0,10.768,28.524c3.495,2.853,7.018,3.821,9.92,2.725s4.907-4.15,5.645-8.6a30.906,30.906,0,0,0-1.972-15.55c-3.612-9.568-10.445-16.145-16.227-16.145a7,7,0,0,0-2.488.445" transform="translate(-819.759 -276.532)" fill="#21111d"/>
        <path id="Path_197" data-name="Path 197" d="M442.853,913.2a41.392,41.392,0,0,1-10.207-1.328c-8.551-2.18-16.389-6.859-21.5-12.835-10.22-11.942-26.32-52.092-27-53.8a.546.546,0,0,1,1.014-.405c.166.416,16.713,41.685,26.816,53.491,9.529,11.135,30.207,18.226,44.643,10.6,13.94-7.366,34.131-17.916,34.334-18.022a.546.546,0,0,1,.506.967c-.2.106-20.392,10.655-34.33,18.02a30.449,30.449,0,0,1-14.273,3.309" transform="translate(-244.305 -537.13)" fill="#21111d"/>
        <path id="Path_198" data-name="Path 198" d="M649.719,1115.6l-206.943-.118v.9l206.942.119a.45.45,0,0,0,0-.9" transform="translate(-281.623 -709.49)" fill="#21111d"/>
        <path id="Path_199" data-name="Path 199" d="M746.932,835.932l-.62,4.69,4.565-2.6.335-2.644Z" transform="translate(-474.684 -531.334)" fill="#7fc6a6"/>
        <path id="Path_200" data-name="Path 200" d="M765.6,996.755a.536.536,0,0,1-.068,0c-.673-.083-67.809-8.4-110.25-11.279a.546.546,0,0,1,.074-1.09c42.471,2.88,109.637,11.2,110.31,11.286a.546.546,0,0,1-.067,1.088" transform="translate(-416.463 -626.105)" fill="#21111d"/>
        <path id="Path_201" data-name="Path 201" d="M875.06,1291.823s5.261-15.92,61.246-12.963c64,3.381,107.6-7.672,118.935,12.963l-88.7,32.924Z" transform="translate(-556.573 -813.172)" fill="#f75553"/>
        <path id="Path_202" data-name="Path 202" d="M973.273,1328.711s-50.787-30.6-68.6-35.192-30.148,1.465-32.085,6.827-3.757,19.833,8.088,28.365c5.126,3.693,63.709,21.115,79.2,25.182,0,0,14.375-6.047,13.4-25.182" transform="translate(-554.1 -821.695)" fill="#f75553"/>
        <path id="Path_203" data-name="Path 203" d="M1090.588,1127.017l2.054,42.725-18.354,2.782a51.3,51.3,0,0,1-16.442-.172c-7.17-1.241-16.473-2.86-16.717-2.941-.4-.134-29.463-7.732-29.6-8.666s1.733-28,1.733-28,0-7.333,3.866-9.6,35.417-16.265,36.173-16.265,37.283,20.131,37.283,20.131" transform="translate(-643.37 -704.023)" fill="#61a3c5"/>
        <path id="Path_204" data-name="Path 204" d="M1089.639,1266.56c-.336-.254-7.809-6.28-8.4-6.562-5.495,3.711-4.764,13.749-10.819,17.828,3.93.831,6.715,1.358,7.83,1.519l3.366,7.467.463,1.958a2.275,2.275,0,0,0,2.433,1.507c1.125-.095,1.859-.923,1.641-1.849l.193.819a2.276,2.276,0,0,0,2.433,1.506c1.125-.095,1.86-.923,1.641-1.849a2.276,2.276,0,0,0,2.433,1.506c1.125-.095,1.859-.923,1.641-1.849l-.194-.819a2.276,2.276,0,0,0,2.433,1.506c.066-.005.129-.014.192-.025h0a2.141,2.141,0,0,0,.213-.045c1.068-.255,1.517-.732,1.625-1.241.225-1.059-1.388-6.92-2.095-9.689-1.037-4.325-3-8.641-7.033-11.688" transform="translate(-680.832 -801.409)" fill="#f9956e"/>
        <path id="Path_205" data-name="Path 205" d="M1128.359,1316.771a.322.322,0,0,0,.109-.02.313.313,0,0,0,.184-.4l-4.43-11.9a.313.313,0,0,0-.587.219l4.429,11.9a.313.313,0,0,0,.294.2" transform="translate(-714.664 -829.554)" fill="#f07162"/>
        <path id="Path_206" data-name="Path 206" d="M1117.984,1321.334a.314.314,0,0,0,.294-.423l-4.018-10.791a.314.314,0,0,0-.588.219l4.018,10.79a.313.313,0,0,0,.294.2" transform="translate(-708.327 -833.159)" fill="#f07162"/>
        <path id="Path_207" data-name="Path 207" d="M1045.344,1241.111c5.925,4.822,16.575,13.517,18.769,15.491,3.074,2.766-11.283,14.708-11.283,14.708s-16.62-8.8-25.753-15.081Z" transform="translate(-653.262 -789.396)" fill="#f9956e"/>
        <path id="Path_208" data-name="Path 208" d="M1107.837,1324.415a.323.323,0,0,0,.109-.02.314.314,0,0,0,.184-.4l-3.23-8.673a.313.313,0,0,0-.587.219l3.229,8.673a.313.313,0,0,0,.294.2" transform="translate(-702.375 -836.466)" fill="#f07162"/>
        <path id="Path_209" data-name="Path 209" d="M1034.51,1030.464H987.341a26.189,26.189,0,0,0-20.237,9.557c-5.2,6.331-10.147,20.79-12.759,28.619-.413,1.061-.772,2.083-1.064,3.055-.094.313-.185.622-.277.932v0a10.888,10.888,0,0,0-.363,1.238c-3.67,12.615-5.465,22.725-.9,29.559,4.819,7.222,13.776,15.287,35.106,25.952l15.909-17.775-24-17.42.987-10,17.341-15.629,34.129,9.3-.645,1.341,7.279,26.328c13.1-4.044,37.629-17.632,38.822-34.239,1.606-22.351-32.352-40.926-42.156-40.825" transform="translate(-603.614 -655.416)" fill="#61a3c5"/>
        <path id="Path_210" data-name="Path 210" d="M1034.452,1196.5a.448.448,0,0,0,.336-.15l15.994-17.87-26.3-18.854,4.683-23.364a.45.45,0,1,0-.882-.177l-4.8,23.934.237.169,25.722,18.439-15.325,17.123a.45.45,0,0,0,.335.75" transform="translate(-650.977 -722.368)" fill="#21111d"/>
        <path id="Path_211" data-name="Path 211" d="M1007.462,1203.4a.45.45,0,0,0,.158-.029l5.932-2.222a.45.45,0,1,0-.316-.842l-5.932,2.222a.45.45,0,0,0,.158.871" transform="translate(-640.5 -763.422)" fill="#21111d"/>
        <path id="Path_212" data-name="Path 212" d="M1085.744,1045.53a.45.45,0,0,0,.027-.9c-13.688-.86-18.156-10.236-18.2-10.331a.45.45,0,0,0-.818.375c.045.1,4.713,9.959,18.963,10.854h.029" transform="translate(-678.472 -657.689)" fill="#21111d"/>
        <path id="Path_213" data-name="Path 213" d="M966.038,1218.1a.45.45,0,0,0,.267-.812c-4.7-3.46-4.715-6.387-4.715-6.416a.451.451,0,0,0-.44-.458h-.01a.448.448,0,0,0-.45.434c0,.137-.043,3.392,5.081,7.164a.448.448,0,0,0,.266.087" transform="translate(-611.037 -769.872)" fill="#21111d"/>
        <path id="Path_214" data-name="Path 214" d="M977.035,1217.163a.45.45,0,0,0,.211-.848c-5.156-2.735-5.6-5.628-5.6-5.656a.453.453,0,0,0-.5-.389.448.448,0,0,0-.391.5c.016.136.454,3.361,6.074,6.343a.446.446,0,0,0,.21.053" transform="translate(-617.434 -769.778)" fill="#21111d"/>
        <path id="Path_215" data-name="Path 215" d="M1107.721,1030.465H1077.54s14.978,18.552,30.181,0" transform="translate(-685.358 -655.416)" fill="#fe9f73"/>
        <path id="Path_216" data-name="Path 216" d="M1113.308,1159.464h12.4a2.463,2.463,0,0,0,2.275-2.616v-28.664a2.463,2.463,0,0,0-2.275-2.615h-12.4a2.463,2.463,0,0,0-2.275,2.615v28.664a2.463,2.463,0,0,0,2.275,2.616" transform="translate(-706.662 -715.906)" fill="#fec786"/>
        <path id="Path_217" data-name="Path 217" d="M1112.522,1159.129a.45.45,0,0,0,0-.9,2.019,2.019,0,0,1-1.825-2.165V1127.4a2.019,2.019,0,0,1,1.825-2.165h12.4a.45.45,0,1,0,0-.9h-12.4a2.913,2.913,0,0,0-2.724,3.065v28.664a2.913,2.913,0,0,0,2.724,3.065" transform="translate(-705.876 -715.121)" fill="#21111d"/>
        <g id="Group_65" data-name="Group 65" transform="translate(406.02 411.785)" opacity="0.5">
          <g id="Group_64" data-name="Group 64">
            <g id="Group_63" data-name="Group 63" clip-path="url(#clip-path-11)">
              <path id="Path_218" data-name="Path 218" d="M1119.647,1133.445a2.044,2.044,0,1,1-2.044-2.044,2.044,2.044,0,0,1,2.044,2.044" transform="translate(-1115.559 -1131.401)" fill="#f99247"/>
            </g>
          </g>
        </g>
        <path id="Path_219" data-name="Path 219" d="M1241.541,1301.979a.448.448,0,0,0,.294-.11l6.6-5.72a.45.45,0,0,0-.589-.68l-6.6,5.721a.45.45,0,0,0,.3.79" transform="translate(-789.383 -823.899)" fill="#21111d"/>
        <path id="Path_220" data-name="Path 220" d="M1007.744,1322.044a.45.45,0,0,0,.231-.836c-48.631-29.069-64.564-30.5-65.218-30.551a.444.444,0,0,0-.481.416.449.449,0,0,0,.416.481c.159.012,16.466,1.522,64.821,30.426a.448.448,0,0,0,.231.064" transform="translate(-599.324 -820.908)" fill="#21111d"/>
        <path id="Path_221" data-name="Path 221" d="M977.036,1295.393a.45.45,0,0,0,.372-.7,30.7,30.7,0,0,0-5.941-5.9.45.45,0,1,0-.54.719,30.414,30.414,0,0,1,5.736,5.681.449.449,0,0,0,.373.2" transform="translate(-617.434 -819.667)" fill="#21111d"/>
        <path id="Path_222" data-name="Path 222" d="M1017.8,1417.5l22.97-11.7-11.046-21.688-18.739,9.544s-30.979-.265-32.461,1.184,32.078,26.325,39.277,22.659" transform="translate(-622.35 -880.352)" fill="#fe9f73"/>
        <path id="Path_223" data-name="Path 223" d="M1025.69,1427.136c-6.594-7.27-10.182-17.812-11.3-21.558l-3.4,1.733s-30.979-.265-32.461,1.184,32.078,26.325,39.277,22.659Z" transform="translate(-622.35 -894.003)" fill="#e2f2f1"/>
        <path id="Path_224" data-name="Path 224" d="M1093.36,1328.711s50.787-30.6,68.6-35.192,30.148,1.465,32.085,6.827,3.756,19.833-8.088,28.365c-5.126,3.693-67.817,22.225-83.307,26.293,0,0-10.268-7.159-9.291-26.293" transform="translate(-695.379 -821.695)" fill="#f75553"/>
        <path id="Path_225" data-name="Path 225" d="M1101.978,1358.9a.45.45,0,0,0,.249-.826c-8.57-5.654-9.061-23.324-9.087-25.659,3.555-2.067,47.678-27.637,65.275-34.232a.45.45,0,1,0-.316-.843c-18.321,6.866-65.167,34.153-65.637,34.427l-.222.129,0,.256c-.007.829-.053,20.374,9.493,26.672a.447.447,0,0,0,.247.074" transform="translate(-694.707 -825.141)" fill="#21111d"/>
        <path id="Path_226" data-name="Path 226" d="M888.729,1307.965a.449.449,0,0,0,.365-.187c.029-.039,1.814-2.35,7.629-2.279a.44.44,0,0,0,.455-.445.45.45,0,0,0-.445-.455c-6.355-.078-8.292,2.546-8.372,2.657a.45.45,0,0,0,.367.71" transform="translate(-564.981 -829.775)" fill="#21111d"/>
        <path id="Path_227" data-name="Path 227" d="M896.667,1315.8a.45.45,0,0,0,.323-.136c.035-.036,2.139-2.059,7.879-1.139a.45.45,0,1,0,.143-.888c-6.283-1-8.576,1.3-8.67,1.4a.45.45,0,0,0,.325.761" transform="translate(-570.03 -835.366)" fill="#21111d"/>
        <path id="Path_228" data-name="Path 228" d="M1107.815,1176.494c-1.914-1.939-.141-4.4-.141-4.4-.711-2.933.073-4.218.073-4.218s8.05,2.387,12.624,4.079a5.283,5.283,0,0,0,3.492-1.648l.066.108c.051-2.236.113-5.033.113-5.348,0-.533.854-1.389,2.187.3s3.911,6.222,3.911,6.222l6.666-3.911,5.422,18.755s-16.174,2.287-18.662,2.464-11.152-1.863-13.729-4-2.022-4.044-2.022-4.044a3.268,3.268,0,0,1,0-4.361" transform="translate(-704.049 -740.584)" fill="#fe9f73"/>
        <path id="Path_229" data-name="Path 229" d="M1144.5,1160.969v5.809a5.281,5.281,0,0,1-5,2.056l-2.5-.925,1.967-8.443Z" transform="translate(-723.178 -737.466)" fill="#fec786"/>
        <path id="Path_230" data-name="Path 230" d="M1113.934,1187.943a.3.3,0,0,0,.092-.585,36.934,36.934,0,0,1-5.42-2.555.3.3,0,0,0-.3.52,36.793,36.793,0,0,0,5.535,2.605.3.3,0,0,0,.092.015" transform="translate(-704.831 -753.556)" fill="#f07162"/>
        <path id="Path_231" data-name="Path 231" d="M1114.181,1199.436a.3.3,0,0,0,.054-.595,18.63,18.63,0,0,1-5.24-1.942.3.3,0,0,0-.3.518,18.868,18.868,0,0,0,5.433,2.013.3.3,0,0,0,.055.005" transform="translate(-705.078 -761.249)" fill="#f07162"/>
        <path id="Path_232" data-name="Path 232" d="M1113.514,1211.39a.3.3,0,0,0,.063-.593,16.024,16.024,0,0,1-4.572-1.908.3.3,0,0,0-.324.505,16.373,16.373,0,0,0,4.769,1.989.276.276,0,0,0,.063.007" transform="translate(-705.078 -768.871)" fill="#f07162"/>
        <path id="Path_233" data-name="Path 233" d="M1089.776,1030.465c.839,1.986,3.6,6.667,11.087,7.047,5.942.3,10-3.869,12.216-7.047Z" transform="translate(-693.141 -655.416)" fill="#f07162"/>
        <path id="Path_234" data-name="Path 234" d="M1175.841,1170.4l9.182-2.287s5.176,12.836,5.176,13.266-2.588,11.753-2.912,11.7a36.76,36.76,0,0,1-3.265-3.095Z" transform="translate(-747.882 -742.967)" fill="#61a3c5"/>
        <path id="Path_235" data-name="Path 235" d="M1206.486,1122.508l-8.9-13.717a.546.546,0,1,1,.916-.594l8.516,13.121,3.824-.612a.546.546,0,1,1,.172,1.078Z" transform="translate(-761.654 -704.698)" fill="#21111d"/>
        <path id="Path_236" data-name="Path 236" d="M1183.05,1177.125l-9.094-21.767,17.543-10.463a.546.546,0,0,1,.559.937l-16.73,9.978,8.355,20a83.975,83.975,0,0,0,21.9-10.856.546.546,0,1,1,.621.9A83.621,83.621,0,0,1,1183.512,1177Z" transform="translate(-746.683 -728.149)" fill="#21111d"/>
        <path id="Path_237" data-name="Path 237" d="M1111.484,960.373a7.231,7.231,0,0,0-2.333-2.755,26.205,26.205,0,0,0-7.98-2.181h-.439a26.2,26.2,0,0,0-7.98,2.181,7.232,7.232,0,0,0-2.333,2.755,111.775,111.775,0,0,0-.76,11.277,19.271,19.271,0,0,0,3.2,11.15c1.656,2.43,4.035,4.607,7.328,4.928.229,0,.468.005.71.006h.1c.243,0,.481,0,.711-.006,3.293-.321,5.672-2.5,7.328-4.928a19.27,19.27,0,0,0,3.2-11.15,111.558,111.558,0,0,0-.76-11.277" transform="translate(-693.065 -607.696)" fill="#fe9f73"/>
        <path id="Path_238" data-name="Path 238" d="M1144.182,1000.612a3.705,3.705,0,1,0,3.705-3.706,3.705,3.705,0,0,0-3.705,3.706" transform="translate(-727.745 -634.072)" fill="#fe9f73"/>
        <path id="Path_239" data-name="Path 239" d="M1152.511,1006.126a1.559,1.559,0,0,0,1.468-1.168,1.466,1.466,0,0,0-.592-1.711,1.745,1.745,0,0,0-1.921.042,1.637,1.637,0,0,1,.724-.86,2.3,2.3,0,0,1,1.631-.1.119.119,0,0,0,.075-.226,2.511,2.511,0,0,0-1.82.122,2.017,2.017,0,0,0-.953,1.36l-.1.413.3-.3a1.6,1.6,0,0,1,1.94-.245,1.243,1.243,0,0,1,.489,1.442,1.312,1.312,0,0,1-1.259,1,.119.119,0,0,0,0,.237Z" transform="translate(-732.094 -637.299)" fill="#f07162"/>
        <path id="Path_240" data-name="Path 240" d="M1083.343,1000.612a3.706,3.706,0,1,1-3.705-3.706,3.706,3.706,0,0,1,3.705,3.706" transform="translate(-684.336 -634.072)" fill="#fe9f73"/>
        <path id="Path_241" data-name="Path 241" d="M1082.668,1006.126a1.56,1.56,0,0,1-1.469-1.168,1.466,1.466,0,0,1,.592-1.711,1.745,1.745,0,0,1,1.922.042,1.637,1.637,0,0,0-.725-.86,2.3,2.3,0,0,0-1.631-.1.119.119,0,0,1-.075-.226,2.51,2.51,0,0,1,1.82.122,2.018,2.018,0,0,1,.954,1.36l.1.413-.3-.3a1.6,1.6,0,0,0-1.94-.245,1.243,1.243,0,0,0-.489,1.442,1.311,1.311,0,0,0,1.259,1,.119.119,0,0,1,0,.237Z" transform="translate(-687.64 -637.299)" fill="#f07162"/>
        <path id="Path_242" data-name="Path 242" d="M1108.644,1007.845a.757.757,0,1,1-.756-.757.756.756,0,0,1,.756.757" transform="translate(-704.179 -640.548)"/>
        <path id="Path_243" data-name="Path 243" d="M1132.732,1008.25a.756.756,0,1,0,.756-.756.757.757,0,0,0-.756.756" transform="translate(-720.463 -640.806)"/>
        <path id="Path_244" data-name="Path 244" d="M1130.9,997.174a.467.467,0,0,1-.3-.111,3.78,3.78,0,0,0-3.316-.5.468.468,0,0,1-.3-.887,4.658,4.658,0,0,1,4.221.675.468.468,0,0,1-.3.825" transform="translate(-716.606 -633.139)" fill="#49263e"/>
        <path id="Path_245" data-name="Path 245" d="M1105.277,997.149a.468.468,0,0,1-.294-.832,4.659,4.659,0,0,1,4.237-.572.468.468,0,0,1-.322.879,3.776,3.776,0,0,0-3.327.422.467.467,0,0,1-.294.1" transform="translate(-702.702 -633.159)" fill="#49263e"/>
        <path id="Path_246" data-name="Path 246" d="M1092,1016.994s1.363,10.027,9.681,9.886Z" transform="translate(-694.558 -646.848)" fill="#fe9f73"/>
        <path id="Path_247" data-name="Path 247" d="M1132.961,1009.3s-1.363,10.306-9.681,10.165l6.1-14.129Z" transform="translate(-714.451 -639.436)" fill="#fe9f73"/>
        <path id="Path_248" data-name="Path 248" d="M1119.262,1005.252a.225.225,0,0,0,.021-.449l-2.434-.225.635-5.135a.225.225,0,1,0-.446-.055l-.693,5.6,2.9.267h.021" transform="translate(-710.04 -635.524)" fill="#f07162"/>
        <path id="Path_249" data-name="Path 249" d="M1100.4,946.688c-6.711-4.466-14.24-4.742-17.723-1.195-3.785,3.854-1.23,13.965.414,15.106s1.267-10.083,1.412-10.174,10,.638,10,.638Z" transform="translate(-687.376 -599.824)" fill="#49263e"/>
        <path id="Path_250" data-name="Path 250" d="M1132.732,952.592c.306-.046,4.667-.865,7.491.048,3.1,1,2.706,7.9,2.3,9.758-.843,3.87-1.416,6.08-1.416,6.08s-2.444-7.174-2.955-8.816-5.423-7.07-5.423-7.07" transform="translate(-720.463 -605.643)" fill="#49263e"/>
        <path id="Path_251" data-name="Path 251" d="M1081.765,961.315l.991,7.212a5.227,5.227,0,0,1,1.9.192s-.042-10.122,2.395-10.561,6.234,1.832,8.77.513,3.794-4.667,3.794-4.667-.114,4.007,2.1,5.327,4.465,9.74,4.465,9.74a4.226,4.226,0,0,1,1.414-.543s-1.394-10.076-1.688-10.663-6.381-5.087-6.381-5.087-3.08-.185-5.166-.334-6.226-.437-7.307,0-3.353.29-3.353,1.683-1,1.1-.352,2.712-1.583,4.477-1.583,4.477" transform="translate(-688.046 -605.644)" fill="#49263e"/>
        <path id="Path_252" data-name="Path 252" d="M1128.341,950.642l.432-.9s1.6,1.072,5.333.9,3.788,11.405,3.705,11.625.5,4.642.5,4.642a3.619,3.619,0,0,0-2.511.59s-1.739-10.509-1.959-11.352-5.5-5.506-5.5-5.506" transform="translate(-717.67 -604.075)" fill="#49263e"/>
        <path id="Path_253" data-name="Path 253" d="M1117.336,1020.532a2.544,2.544,0,0,0,1.762-.861.15.15,0,0,0-.211-.213,2.155,2.155,0,0,1-1.714.765,2.361,2.361,0,0,1-1.5-1,.15.15,0,0,0-.252.163,2.628,2.628,0,0,0,1.715,1.13,1.875,1.875,0,0,0,.2.011" transform="translate(-709.438 -648.226)" fill="#f07162"/>
        <path id="Path_254" data-name="Path 254" d="M1342.108,1359.484a.447.447,0,0,0,.3-.119c4.68-4.31,4.285-7.541,4.266-7.677a.45.45,0,0,0-.891.122c.006.051.293,2.954-3.985,6.893a.45.45,0,0,0,.3.781" transform="translate(-853.348 -859.481)" fill="#21111d"/>
        <path id="Path_255" data-name="Path 255" d="M1329.29,1359.754a.445.445,0,0,0,.253-.078c5.26-3.579,5.343-6.833,5.344-6.969a.45.45,0,0,0-.447-.453h0a.45.45,0,0,0-.45.443c0,.052-.143,2.965-4.95,6.235a.45.45,0,0,0,.253.822" transform="translate(-845.195 -860.086)" fill="#21111d"/>
        <path id="Path_256" data-name="Path 256" d="M1515.474,640.978a21.018,21.018,0,0,0,3.814-.716,10.984,10.984,0,0,1,12.161,7.713c2.39,7.474-1.268,17.1,1.356,22.343s2.465,9.928.954,11.785-16.3.9-16.3.9Z" transform="translate(-963.902 -407.125)" fill="#49263e"/>
        <path id="Path_257" data-name="Path 257" d="M1486.213,642.429c-.161,0-6.769-.636-9.243,2.438s-3.216,6.255-3.958,11.344-.425,12.3-2.545,17.811-.636,9.772,2.333,10.408,15.877,0,15.877,0Z" transform="translate(-934.641 -408.575)" fill="#49263e"/>
        <rect id="Rectangle_5945" data-name="Rectangle 5945" width="25.777" height="24.34" transform="translate(520.899 407.678) rotate(-26.196)" fill="#fe9f73"/>
        <path id="Path_258" data-name="Path 258" d="M1450.351,1335.558l-6.061-25.055-23.657,5.722,4.944,20.44s-7.433,30.075-6.367,31.853,33.04-25.108,31.14-32.961" transform="translate(-902.608 -833.532)" fill="#fe9f73"/>
        <path id="Path_259" data-name="Path 259" d="M1448.27,1355.7c-8.6,4.731-19.686,5.779-23.59,6l.9,3.711s-7.433,30.075-6.366,31.853,33.04-25.109,31.14-32.961Z" transform="translate(-902.608 -862.279)" fill="#e2f2f1"/>
        <path id="Path_260" data-name="Path 260" d="M1414.156,980.965c-.533,0-20.2,8.71-20.2,8.71l-6.269,4.088s9.578,65.235,11.355,82.655c0,0-13.864,9.776-27.907,10.132,0,0-28.974-100.99-28.974-113.819s61.626-43.225,61.626-43.225l28.041,16.184s42.136,3.464,51.824,10.038-75.219,45.031-75.219,45.031Z" transform="translate(-853.671 -591.202)" fill="#7fc6a6"/>
        <path id="Path_261" data-name="Path 261" d="M1480.455,1027.406s47.566-28.363,63.92-32.78,28.085-.684,29.863,4.471,3.555,19.731,0,24.53-65.591,27.729-79.811,31.64c0,0-12.658-14.707-13.971-27.861" transform="translate(-941.628 -631.376)" fill="#7fc6a6"/>
        <path id="Path_262" data-name="Path 262" d="M1656.047,987.719c-3.76-7.588-42.9-11.458-45.165-11.117a.45.45,0,0,1-.408-.795c.682-.462,11.665.866,11.776.88a173.9,173.9,0,0,1,21.274,3.849c7.609,2.008,12.094,4.289,13.329,6.783a.45.45,0,0,1-.806.4m-45.069-11.166h0" transform="translate(-1024.2 -620.59)" fill="#21111d"/>
        <path id="Path_263" data-name="Path 263" d="M1484.3,1038.78a.443.443,0,0,0,.241-.07.45.45,0,0,0,.138-.621,32.4,32.4,0,0,1-4.711-13.82,433.862,433.862,0,0,1,65.991-35.036.45.45,0,1,0-.354-.827c-39,16.684-66.09,35.08-66.359,35.264l-.207.142.012.25a32.526,32.526,0,0,0,4.868,14.509.449.449,0,0,0,.38.208" transform="translate(-940.731 -628.643)" fill="#21111d"/>
        <path id="Path_264" data-name="Path 264" d="M1638.859,991.547a.449.449,0,0,0,.354-.172,20.672,20.672,0,0,1,4.937-4.083.45.45,0,0,0-.453-.778,21.237,21.237,0,0,0-5.192,4.3.45.45,0,0,0,.354.728" transform="translate(-1042.093 -627.423)" fill="#21111d"/>
        <path id="Path_265" data-name="Path 265" d="M1351.6,1069.017a.49.49,0,0,0,.106-.012.45.45,0,0,0,.332-.543c-.093-.384-9.308-38.518-10.453-45.091-1.1-6.3,12.449-15.536,12.587-15.628a.45.45,0,0,0-.5-.746c-.579.391-14.167,9.658-12.97,16.529,1.149,6.6,10.371,44.763,10.465,45.147a.45.45,0,0,0,.437.344" transform="translate(-852.69 -640.44)" fill="#21111d"/>
        <path id="Path_266" data-name="Path 266" d="M1450.864,1102.836a.446.446,0,0,0,.242-.07l10.948-7a.45.45,0,1,0-.484-.758l-10.948,7a.45.45,0,0,0,.242.829" transform="translate(-922.521 -696.426)" fill="#21111d"/>
        <path id="Path_267" data-name="Path 267" d="M1420.866,1197.652a.435.435,0,0,0,.061,0c.811-.109,19.964-2.771,28.15-10.245l.174-.159-.032-.233-8.264-61.324-2.454-21.81a.444.444,0,0,0-.5-.4.45.45,0,0,0-.4.5l2.456,21.819,8.233,61.1c-8.083,7.167-27.295,9.835-27.489,9.862a.45.45,0,0,0,.059.9" transform="translate(-903.442 -701.854)" fill="#21111d"/>
        <path id="Path_268" data-name="Path 268" d="M1718.671,1066.7a.449.449,0,0,0,.267-.087c5.124-3.772,5.085-7.028,5.08-7.165a.45.45,0,0,0-.9.024c0,.048-.029,2.966-4.715,6.415a.45.45,0,0,0,.267.812" transform="translate(-1092.856 -673.57)" fill="#21111d"/>
        <path id="Path_269" data-name="Path 269" d="M1706.03,1065.762a.448.448,0,0,0,.211-.053c5.621-2.982,6.059-6.207,6.075-6.343a.45.45,0,0,0-.893-.108c-.007.048-.464,2.93-5.6,5.656a.45.45,0,0,0,.211.848" transform="translate(-1084.817 -673.479)" fill="#21111d"/>
        <path id="Path_270" data-name="Path 270" d="M1497.39,761.332l8.755-36.772H1530c2.532,0,6.022,1.671,6.172,1.742,9.574,5.1,34.325,23.92,33.01,42.213-1.193,16.607-23.509,23.515-47.333,27.362l-5.293-22.02,8.612-2.3Z" transform="translate(-952.399 -460.849)" fill="#e2f2f1"/>
        <path id="Path_271" data-name="Path 271" d="M1406.273,766.763v-42.2h-23.859c-2.532,0-6.022,1.671-6.171,1.742-9.574,5.1-35.792,20.789-34.478,39.082,1.193,16.607,25.72,30.2,38.823,34.239l7.279-26.328-.645-1.341Z" transform="translate(-853.385 -460.849)" fill="#e2f2f1"/>
        <path id="Path_272" data-name="Path 272" d="M1412.83,821.113l.3,46.027s41.663,7.612,78.759-2.255c.911-.242-1.74-38.039-1.74-38.039s0-7.332-3.866-9.6-35.417-16.264-36.172-16.264-37.284,20.13-37.284,20.13" transform="translate(-898.616 -509.456)" fill="#e2f2f1"/>
        <path id="Path_273" data-name="Path 273" d="M1521.8,739.625a.45.45,0,0,1-.028-.9c13.689-.86,18.157-10.236,18.2-10.331a.45.45,0,0,1,.818.375c-.046.1-4.714,9.959-18.963,10.854h-.028" transform="translate(-967.637 -463.121)" fill="#21111d"/>
        <path id="Path_274" data-name="Path 274" d="M1481.12,724.56H1511.3s-5.456,9.448-15.885,9.407c-4.783-.018-9.9-1.778-14.3-9.407" transform="translate(-942.051 -460.849)" fill="#fe9f73"/>
        <path id="Path_275" data-name="Path 275" d="M1498.649,853.559h-12.4a2.463,2.463,0,0,1-2.274-2.615V822.279a2.463,2.463,0,0,1,2.274-2.615h12.4a2.463,2.463,0,0,1,2.274,2.615v28.664a2.463,2.463,0,0,1-2.274,2.615" transform="translate(-943.865 -521.338)" fill="#fd7583"/>
        <path id="Path_276" data-name="Path 276" d="M1501.838,853.223a.45.45,0,0,1,0-.9,2.019,2.019,0,0,0,1.824-2.165V821.493a2.019,2.019,0,0,0-1.824-2.165h-12.4a.45.45,0,1,1,0-.9h12.4a2.913,2.913,0,0,1,2.724,3.065v28.664a2.913,2.913,0,0,1-2.724,3.065" transform="translate(-947.053 -520.552)" fill="#21111d"/>
        <path id="Path_277" data-name="Path 277" d="M1472.075,870.589c1.914-1.939.141-4.4.141-4.4.711-2.933-.074-4.218-.074-4.218s-8.049,2.387-12.623,4.08a5.284,5.284,0,0,1-3.492-1.648l-.067.108c-.051-2.236-.113-5.033-.113-5.348,0-.533-.854-1.389-2.187.3s-3.911,6.222-3.911,6.222l-6.667-3.911-5.422,18.756s16.173,2.287,18.662,2.465,11.152-1.864,13.729-4,2.022-4.044,2.022-4.044a3.268,3.268,0,0,0,0-4.361" transform="translate(-914.41 -546.016)" fill="#f78c63"/>
        <path id="Path_278" data-name="Path 278" d="M1483.971,855.065v5.809a5.28,5.28,0,0,0,5,2.056l2.5-.925-1.967-8.443Z" transform="translate(-943.865 -542.899)" fill="#fd7583"/>
        <path id="Path_279" data-name="Path 279" d="M1517.029,882.038a.3.3,0,0,1-.093-.585,36.957,36.957,0,0,0,5.421-2.555.3.3,0,1,1,.3.52,36.758,36.758,0,0,1-5.535,2.605.309.309,0,0,1-.092.014" transform="translate(-964.7 -558.988)" fill="#f07162"/>
        <path id="Path_280" data-name="Path 280" d="M1517.028,893.53a.3.3,0,0,1-.054-.595,18.625,18.625,0,0,0,5.24-1.942.3.3,0,1,1,.3.518,18.87,18.87,0,0,1-5.433,2.014.287.287,0,0,1-.055.005" transform="translate(-964.699 -566.681)" fill="#f07162"/>
        <path id="Path_281" data-name="Path 281" d="M1518.859,905.485a.3.3,0,0,1-.063-.593,16.017,16.017,0,0,0,4.572-1.908.3.3,0,1,1,.324.505,16.371,16.371,0,0,1-4.769,1.989.3.3,0,0,1-.064.006" transform="translate(-965.864 -574.303)" fill="#f07162"/>
        <path id="Path_282" data-name="Path 282" d="M1513.871,724.56c-.839,1.986-3.6,6.667-11.087,7.047-5.942.3-10-3.868-12.216-7.047Z" transform="translate(-948.061 -460.849)" fill="#f07162"/>
        <path id="Path_283" data-name="Path 283" d="M1440.651,864.5l-9.181-2.287s-5.176,12.836-5.176,13.266,2.588,11.753,2.912,11.7a36.725,36.725,0,0,0,3.265-3.095Z" transform="translate(-907.18 -548.399)" fill="#e2f2f1"/>
        <path id="Path_284" data-name="Path 284" d="M1410.671,816.6l-4.526-.724a.546.546,0,1,1,.173-1.078l3.824.612,8.516-13.121a.546.546,0,1,1,.916.594Z" transform="translate(-894.072 -510.131)" fill="#21111d"/>
        <path id="Path_285" data-name="Path 285" d="M1401.766,871.219l-.463-.127a83.629,83.629,0,0,1-22.692-11.147.546.546,0,1,1,.621-.9,83.921,83.921,0,0,0,21.9,10.856l8.355-20-16.73-9.978a.546.546,0,0,1,.56-.938l17.543,10.463Z" transform="translate(-876.701 -533.581)" fill="#21111d"/>
        <path id="Path_286" data-name="Path 286" d="M1423.259,747.077a.453.453,0,0,0,.37-.193c3.392-4.872,6.286-4.883,6.285-4.883h0a.45.45,0,0,0,0-.9h0c-.165,0-3.406.07-7.026,5.268a.45.45,0,0,0,.369.707" transform="translate(-904.963 -471.369)" fill="#21111d"/>
        <path id="Path_287" data-name="Path 287" d="M1425.91,758.044a.449.449,0,0,0,.4-.25c2.6-5.226,5.478-5.746,5.507-5.75a.452.452,0,0,0,.375-.512.448.448,0,0,0-.507-.378c-.135.019-3.348.542-6.18,6.24a.449.449,0,0,0,.4.65" transform="translate(-906.649 -477.761)" fill="#21111d"/>
        <g id="Group_68" data-name="Group 68" transform="translate(550.745 301.496)" opacity="0.5">
          <g id="Group_67" data-name="Group 67">
            <g id="Group_66" data-name="Group 66" clip-path="url(#clip-path-12)">
              <path id="Path_288" data-name="Path 288" d="M1516.1,835.168h-1.537a1.357,1.357,0,0,1-1.357-1.357v-4.08a1.357,1.357,0,0,1,1.357-1.357h1.537a1.357,1.357,0,0,1,1.357,1.357v4.08a1.357,1.357,0,0,1-1.357,1.357" transform="translate(-1513.203 -828.374)" fill="#e2f2f1"/>
            </g>
          </g>
        </g>
        <path id="Path_289" data-name="Path 289" d="M1478.824,856.968c-1.472-2.292.771-4.337.771-4.337-.089-3.017.943-4.112.943-4.112s7.383,4,11.508,6.6a5.284,5.284,0,0,0,3.757-.891l.043.119c.512-2.178,1.151-4.9,1.215-5.21.11-.521,1.122-1.182,2.077.746s2.542,6.9,2.542,6.9l7.33-2.449,1.431,19.47s-16.3-1.1-18.769-1.443-10.526-4.127-12.608-6.747-1.143-4.374-1.143-4.374a3.268,3.268,0,0,1,.9-4.267" transform="translate(-939.731 -539.691)" fill="#fe9f73"/>
        <path id="Path_290" data-name="Path 290" d="M1487.545,863.242a.3.3,0,0,0,.211-.554,36.87,36.87,0,0,1-4.775-3.62.3.3,0,0,0-.4.448,36.807,36.807,0,0,0,4.877,3.692.292.292,0,0,0,.087.034" transform="translate(-942.916 -546.353)" fill="#f07162"/>
        <path id="Path_291" data-name="Path 291" d="M1485.413,874.538a.3.3,0,0,0,.176-.571,18.628,18.628,0,0,1-4.726-2.982.3.3,0,1,0-.4.444,18.875,18.875,0,0,0,4.9,3.093.313.313,0,0,0,.053.016" transform="translate(-941.569 -553.931)" fill="#f07162"/>
        <path id="Path_292" data-name="Path 292" d="M1482.291,886.1a.3.3,0,0,0,.184-.568,16.018,16.018,0,0,1-4.079-2.81.3.3,0,0,0-.421.427,16.356,16.356,0,0,0,4.255,2.931.318.318,0,0,0,.061.02" transform="translate(-939.994 -561.389)" fill="#f07162"/>
        <path id="Path_293" data-name="Path 293" d="M1592.259,816.739l4.578.226a.546.546,0,0,0,.053-1.091l-3.868-.191-5.623-14.6a.546.546,0,0,0-1.019.392Z" transform="translate(-1008.978 -509.3)" fill="#21111d"/>
        <path id="Path_294" data-name="Path 294" d="M1550.057,860.006l4.719,22.6s9.706-7.9,9.706-8.763a97.873,97.873,0,0,0-3.4-11.576c-.323-.2-11.027-2.265-11.027-2.265" transform="translate(-985.898 -546.998)" fill="#e2f2f1"/>
        <path id="Path_295" data-name="Path 295" d="M1554.458,871.573l.479-.028a83.634,83.634,0,0,0,24.505-6.219.546.546,0,0,0-.422-1.007,83.93,83.93,0,0,1-23.671,6.1l-4.043-21.293,18.43-6.307a.546.546,0,1,0-.353-1.033l-19.327,6.613Z" transform="translate(-985.898 -535.389)" fill="#21111d"/>
        <path id="Path_296" data-name="Path 296" d="M1512.335,652.579a7.111,7.111,0,0,0-2.293-2.708,25.73,25.73,0,0,0-7.842-2.143h-.431a25.737,25.737,0,0,0-7.842,2.143,7.111,7.111,0,0,0-2.292,2.708,109.762,109.762,0,0,0-.747,11.082,18.937,18.937,0,0,0,3.148,10.956c1.627,2.388,3.965,4.527,7.2,4.842.225,0,.459.005.7.006h.1c.239,0,.473,0,.7-.006,3.235-.315,5.574-2.455,7.2-4.842a18.935,18.935,0,0,0,3.148-10.956,109.666,109.666,0,0,0-.746-11.082" transform="translate(-948.263 -411.98)" fill="#fe9f73"/>
        <path id="Path_297" data-name="Path 297" d="M1544.465,692.12a3.641,3.641,0,1,0,3.641-3.641,3.641,3.641,0,0,0-3.641,3.641" transform="translate(-982.341 -437.9)" fill="#fe9f73"/>
        <path id="Path_298" data-name="Path 298" d="M1552.65,697.537a1.533,1.533,0,0,0,1.443-1.148,1.44,1.44,0,0,0-.582-1.681,1.714,1.714,0,0,0-1.888.041,1.6,1.6,0,0,1,.712-.845,2.261,2.261,0,0,1,1.6-.1.116.116,0,0,0,.073-.221,2.464,2.464,0,0,0-1.788.119,1.984,1.984,0,0,0-.936,1.336l-.1.406.3-.294a1.569,1.569,0,0,1,1.906-.241,1.223,1.223,0,0,1,.481,1.418,1.288,1.288,0,0,1-1.238.98.117.117,0,0,0,0,.233h.022" transform="translate(-986.615 -441.07)" fill="#f07162"/>
        <path id="Path_299" data-name="Path 299" d="M1488.164,692.12a3.641,3.641,0,1,1-3.641-3.641,3.641,3.641,0,0,1,3.641,3.641" transform="translate(-941.899 -437.9)" fill="#fe9f73"/>
        <path id="Path_300" data-name="Path 300" d="M1487.5,697.537a1.533,1.533,0,0,1-1.443-1.148,1.44,1.44,0,0,1,.581-1.681,1.715,1.715,0,0,1,1.888.041,1.606,1.606,0,0,0-.712-.845,2.259,2.259,0,0,0-1.6-.1.116.116,0,1,1-.074-.221,2.464,2.464,0,0,1,1.788.119,1.983,1.983,0,0,1,.937,1.336l.1.406-.3-.294a1.57,1.57,0,0,0-1.907-.241,1.223,1.223,0,0,0-.48,1.418,1.288,1.288,0,0,0,1.238.98.117.117,0,0,1,.118.115.116.116,0,0,1-.115.118h-.022" transform="translate(-945.147 -441.07)" fill="#f07162"/>
        <path id="Path_301" data-name="Path 301" d="M1516.841,694.809a.134.134,0,0,0,.028-.264c-.859-.184-1.4-1.242-1.557-1.588a4.012,4.012,0,0,0,2.214-2.52,4.352,4.352,0,0,0-.694-3.233.134.134,0,0,0-.218.155,4.156,4.156,0,0,1,.653,3.017,3.822,3.822,0,0,1-2.186,2.4l-.107.055.043.112c.025.066.633,1.613,1.8,1.862l.028,0" transform="translate(-963.583 -437.053)" fill="#f07162"/>
        <path id="Path_302" data-name="Path 302" d="M1509.544,696.175a.743.743,0,1,1-.744-.743.743.743,0,0,1,.744.743" transform="translate(-959.184 -442.322)"/>
        <path id="Path_303" data-name="Path 303" d="M1533.213,696.573a.743.743,0,1,0,.744-.743.743.743,0,0,0-.744.743" transform="translate(-975.184 -442.575)"/>
        <path id="Path_304" data-name="Path 304" d="M1515.194,712.076c.07-.013,4.5-.111,4.5-.111s-.559,1.833-2.208,1.874-2.3-1.763-2.3-1.763" transform="translate(-963.724 -452.838)" fill="#fbfdfc"/>
        <path id="Path_305" data-name="Path 305" d="M1532.9,684.628a.3.3,0,0,0,.184-.538c-2.221-1.713-5.074-.621-5.194-.574a.3.3,0,0,0,.219.559c.026-.011,2.661-1.012,4.609.49a.3.3,0,0,0,.183.063" transform="translate(-971.677 -434.498)" fill="#49263e"/>
        <path id="Path_306" data-name="Path 306" d="M1501.518,685.244a.3.3,0,0,0,.188-.067c1.914-1.546,4.57-.6,4.6-.594a.3.3,0,0,0,.207-.563c-.122-.045-3-1.07-5.18.691a.3.3,0,0,0,.188.534" transform="translate(-954.834 -434.849)" fill="#49263e"/>
        <path id="Path_307" data-name="Path 307" d="M1493.192,708.218s1.339,9.853,9.513,9.715Z" transform="translate(-949.729 -450.454)" fill="#fe9f73"/>
        <path id="Path_308" data-name="Path 308" d="M1533.439,700.66s-1.339,10.127-9.513,9.989l6-13.883Z" transform="translate(-969.277 -443.17)" fill="#fe9f73"/>
        <path id="Path_309" data-name="Path 309" d="M1506.993,647.323s7.908,11.18,15.671,14.1c0,0,4.1-14.576-8.3-15.478s-7.372,1.381-7.372,1.381" transform="translate(-957.865 -410.711)" fill="#49263e"/>
        <path id="Path_310" data-name="Path 310" d="M1499.3,645.559s-8.89-1.247-10.384,5.114,0,8.989,0,8.989c.689-.234,7.094-7.478,9.638-11.295Z" transform="translate(-946.589 -410.538)" fill="#49263e"/>
        <path id="Path_311" data-name="Path 311" d="M1507.766,650.641s1.469,6.922,7.892,8.655c0,0-4.464-5.889-5.143-10.3s-2.749,1.644-2.749,1.644" transform="translate(-958.999 -411.764)" fill="#49263e"/>
      </g>
    </g>
  </g>
</svg>
