<svg id="Group_121" data-name="Group 121" xmlns="http://www.w3.org/2000/svg" xmlns:xlink="http://www.w3.org/1999/xlink" width="446" height="446" viewBox="0 0 446 446">
  <defs>
    <clipPath id="clip-path">
      <rect id="Rectangle_5968" data-name="Rectangle 5968" width="446" height="446" fill="none"/>
    </clipPath>
    <clipPath id="clip-path-2">
      <path id="Path_390" data-name="Path 390" d="M193.484,163.195l6.266,5.03,2.229,10.526,3.209-5.636L219.2,186.265l15.1-30.743Z" transform="translate(-193.484 -155.522)" fill="none"/>
    </clipPath>
    <clipPath id="clip-path-4">
      <path id="Path_407" data-name="Path 407" d="M181.826,268.082c-13.1,11.258-25.411,24.657-29.977,41.317-1.246,4.545-1.838,9.587.23,13.822,2.543,5.2,8.643,7.92,14.436,8.007,4.927.073,10.79-1.028,14.63-4.167a23.574,23.574,0,0,0,4.993-5.137c1.375-2.085,1.411-7.292,4.734-6.62,6.467,1.31,12.958,3.061,19.424,4.371,1.33-4.856,2.539-10.179,3.67-15.085q1.165-5.056,2.188-10.141c2.433-12.108,3.007-28.035-11.031-32.95a18.177,18.177,0,0,0-6.055-1.042c-6.392,0-12.3,3.377-17.241,7.626" transform="translate(-150.717 -260.456)" fill="none"/>
    </clipPath>
    <clipPath id="clip-path-6">
      <path id="Path_432" data-name="Path 432" d="M125.936,213.544a.385.385,0,0,0-.174.094c-.186,3.709.392,7.027-1.113,10.615a11.584,11.584,0,0,1-2.289,3.613,4.3,4.3,0,0,1-2.08,1.606,5.482,5.482,0,0,1-.755.221c-.1.036-.2.083-.3.115a.571.571,0,0,1-.329,0c-1.615.245-3.341.193-4.387,1.375a4.31,4.31,0,0,0-.873,2.026c-1.109,5.374,1.63,11.551,5.145,15.5a17.293,17.293,0,0,0,10.874,5.774c3.854.3,7.5-1.311,10.725-3.259,1.416-.855,2.755-1.69,4.021-2.6,3.809-2.746,7-5.6,7.161-10.563,0-.084.005-.167.005-.251,0-.121-.013-.241-.021-.361-1.31-2.606-5.249-1.782-7.7-2.507a4.8,4.8,0,0,1-1.33-.629c-.053-.036-.106-.07-.156-.108a5.314,5.314,0,0,1-1.838-2.548c-1.549-4.307-.045-8.76,1.158-13.048a1.286,1.286,0,0,0-.293-.254,2.852,2.852,0,0,0-2.057-.087,12.583,12.583,0,0,1-7.565-.944,21.378,21.378,0,0,1-3.234-1.885c-.574-.393-1.77-1.889-2.536-1.889a.473.473,0,0,0-.062,0" transform="translate(-113.386 -213.54)" fill="none"/>
    </clipPath>
    <clipPath id="clip-path-8">
      <path id="Path_444" data-name="Path 444" d="M138.67,321.79c-7.4.446-14.818,1.36-22.192.631-6.868-.681-12.3-.7-13.5,4.522a14.425,14.425,0,0,0-.037,5.214c1.078,7.574,7.649,14.343,14.064,17.985,7.3,4.142,15.805,5.586,24.168,6.257a150.228,150.228,0,0,0,35.5-1.369c.542-.086,3.843,19.407,4.035,21.022,1.4,11.757,4.29,23.277,7.176,34.759,6.571-.917,13.156-1.771,19.719-2.751,3.919-.585,4.159-.467,3.767-4.421-.343-3.461-.823-6.915-1.235-10.369q-2.42-20.339-4.843-40.681c-.61-5.125-1.234-10.3-3.015-15.149s-4.86-9.394-9.348-11.942c-4.448-2.524-9.767-2.852-14.875-3.12-8.955-.469-17.924-.939-26.887-.939-4.166,0-8.331.1-12.492.351" transform="translate(-102.721 -321.439)" fill="none"/>
    </clipPath>
    <clipPath id="clip-path-10">
      <path id="Path_477" data-name="Path 477" d="M46.031,196.841a21.252,21.252,0,1,0,21.252-21.252,21.251,21.251,0,0,0-21.252,21.252" transform="translate(-46.031 -175.589)" fill="none"/>
    </clipPath>
    <clipPath id="clip-path-12">
      <path id="Path_504" data-name="Path 504" d="M308.324,218.338c-1.592,4.173-1.222,8.418-3.121,12.454-5.362,11.4-6.05,22.719-7.647,35.274q-2.829,22.244-5.876,44.459-5.795,42.213-12.394,84.308a72.734,72.734,0,0,0,8.863,1.593,68.113,68.113,0,0,0,15.585-.164q7.59-38.275,16.227-76.334c2.883-12.691,5.3-25.1,8.28-37.15,2.024,19.681,3.771,39.393,4.994,59.142q.935,15.1,1.43,30.223c.263,8.356,1.826,17.439,1.485,25.624,5.953,1.056,13.062.092,19.162-.343.7-.05,5.915-.739,5.974-1.394,1.6-17.681,1.535-31.893,1.9-50.461.277-13.959-1.114-31.12-.735-44.806.409-14.73.717-28.954-1.61-43.595-1-6.277-6.185-27.925-14.054-29.1a3.019,3.019,0,0,0-1.194.049,17.92,17.92,0,0,0-2.434-6.164c-3.432-5.516-9.662-9.542-16.036-11.052a24.908,24.908,0,0,0-5.693-.691c-5.48,0-10.8,2.093-13.108,8.129" transform="translate(-279.285 -210.209)" fill="none"/>
    </clipPath>
    <clipPath id="clip-path-14">
      <path id="Path_522" data-name="Path 522" d="M360.088,173.057c5.165.318,7.459,1.291,12.329,2.867,4.79,1.55,9.619,2.637,13.709,5.769,4.117,3.151,7,8.505,5.7,13.525a13.321,13.321,0,0,1-6.368,7.766,36.556,36.556,0,0,1-9.643,3.533,46.12,46.12,0,0,1,3.2,16.367c.006.541,14.111-3.334,15.334-3.818a41.893,41.893,0,0,0,11.773-7.3,25.213,25.213,0,0,0,8.666-23.678c-2.912-17.371-19.94-29.143-36.091-34.305-9.233-2.951-18.984-3.944-28.672-4.251Z" transform="translate(-350.019 -149.534)" fill="none"/>
    </clipPath>
    <clipPath id="clip-path-15">
      <path id="Path_524" data-name="Path 524" d="M255.275,149.8c2.09,19.619,31.242,24.49,46.671,22.411-.26,4.409-1.511,15.427-1.895,18.486q-1.12,8.938-2.285,17.869-1.6,12.224-3.371,24.424c2.168-.037,4.291,1.164,6.395,1.639,2.623.593,5.273,1.074,7.932,1.47a138.638,138.638,0,0,0,16.633,1.4c2.718.075,32.539-1.011,32.465-1.513a95.294,95.294,0,0,1-1.324-10.561q-.44-11.895-.882-23.789-.776-20.934-1.554-41.869-.084-2.289-.169-4.577a11.36,11.36,0,0,0-4.621-8.834,5.367,5.367,0,0,0-1.23-.8,6.227,6.227,0,0,0-2.279-.359c-1.937-.062-4.076-.282-6.014-.343a3.3,3.3,0,0,1-1.592-.508,9.363,9.363,0,0,1-3.429,7.347c-3.087,2.28-7.379.877-9.854-1.661a9.129,9.129,0,0,1-1.621-2.263,7.141,7.141,0,0,1-.957-2.6c-9.178,2.506-20.218,2.7-29.666,2.2-4.532-.241-9.514-1.007-12.448-4.471-6.135-7.239-3.594-27.173-2.751-35.815a121.205,121.205,0,0,1-18.728-.81c-2.106,12.74-4.793,30.688-3.425,43.528" transform="translate(-254.903 -106.277)" fill="none"/>
    </clipPath>
  </defs>
  <g id="Group_90" data-name="Group 90">
    <g id="Group_89" data-name="Group 89" clip-path="url(#clip-path)">
      <path id="Path_377" data-name="Path 377" d="M305.1,286.774a20.484,20.484,0,0,1-3.027,7.442c-6.068,8.725-21.441,19.392-32.22,14.886-5.653-2.364-9.114-9.981-5.632-15.023,2.523-3.652,7.379-4.706,11.026-7.234,6.405-4.441,9.224-13.55,16.605-16.053,11.915-4.041,15.146,6.781,13.248,15.983" transform="translate(-28.385 -29.151)" fill="#e0adad"/>
      <path id="Path_378" data-name="Path 378" d="M86.774,274.409a5.816,5.816,0,0,1-.227,1.907,11.35,11.35,0,0,1-3.188,4.553c-5.376,5.382-24.752,27.3-29.093,9.957-2.363-9.446,10.661-22.143,18.942-23.77,3.2-.628,6.68-.566,9.51,1.05a8.017,8.017,0,0,1,4.056,6.3" transform="translate(-5.83 -28.802)" fill="#e0adad"/>
      <path id="Path_379" data-name="Path 379" d="M344.939,384.152c-2.594,1.662-5.4,2.912-7.929,4.666-2.91,2.017-7.867,6.61-11.764,5.794-3.085-.646-5.195-4.7-4.942-7.607a11.842,11.842,0,0,1,4.212-7.441,77.684,77.684,0,0,1,7.091-5.124,44.478,44.478,0,0,1,5.741-3.909,15.364,15.364,0,0,1,7.409-1.6,7.7,7.7,0,0,1,5.59,2.158,6.462,6.462,0,0,1,.73,6.718,13.679,13.679,0,0,1-4.638,5.307c-.49.365-.991.707-1.5,1.034" transform="translate(-34.591 -39.844)" fill="#e0adad"/>
      <path id="Path_380" data-name="Path 380" d="M177.959,144.4q-.314.309-.624.63c-2.408,2.5-4.926,5.07-8.159,6.331s-7.4.831-9.507-1.931a7.344,7.344,0,0,1-1.305-3.018c-.953-4.757,1.96-9.511,5.625-12.691,4.931-4.278,10.632-7.193,15.788-11.374,3.119-2.529,6.724-4.77,10.731-5.034s8.406,2.027,9.381,5.922c.717,2.867-.541,5.939-2.527,8.127a27.158,27.158,0,0,1-7.2,5.093c-4.36,2.418-8.646,4.453-12.2,7.944" transform="translate(-17.084 -12.668)" fill="#e0adad"/>
      <path id="Path_381" data-name="Path 381" d="M351.957,66.7a4.186,4.186,0,0,1,5.918-5.92" transform="translate(-37.879 -6.431)"/>
      <path id="Path_382" data-name="Path 382" d="M445.084,164.2a4.2,4.2,0,1,1-4.2-4.2A4.2,4.2,0,0,1,445.084,164.2Z" transform="translate(-47.162 -17.28)" fill="none" stroke="#000" stroke-width="0.5"/>
      <path id="Path_383" data-name="Path 383" d="M249.741,230.739a8.186,8.186,0,1,1-4,10.865A8.187,8.187,0,0,1,249.741,230.739Z" transform="translate(-26.458 -24.838)" fill="none" stroke="#000" stroke-width="0.5"/>
      <path id="Path_384" data-name="Path 384" d="M235.374,242.5a2.991,2.991,0,1,1-1.461,3.97,2.992,2.992,0,0,1,1.461-3.97" transform="translate(-25.233 -26.16)"/>
      <path id="Path_385" data-name="Path 385" d="M94.137,139.59a2.991,2.991,0,1,1-1.461,3.97,2.992,2.992,0,0,1,1.461-3.97" transform="translate(-9.979 -15.046)"/>
      <line id="Line_24" data-name="Line 24" x1="22.652" y2="22.652" transform="translate(304.394 50.971)" fill="none" stroke="#000" stroke-width="0.5"/>
      <line id="Line_25" data-name="Line 25" x1="22.652" y2="22.652" transform="translate(313.418 47.117)" fill="none" stroke="#000" stroke-width="0.5"/>
      <line id="Line_26" data-name="Line 26" x1="21.504" y2="21.504" transform="translate(393.745 139.454)" fill="none" stroke="#000" stroke-width="0.5"/>
      <line id="Line_27" data-name="Line 27" x1="21.504" y2="21.504" transform="translate(233.063 267.455)" fill="none" stroke="#000" stroke-width="0.5"/>
      <path id="Path_386" data-name="Path 386" d="M104.8,159.462l4.115-8.126,5.651,8.126,4.514-8.126,4.513,8.126,4.728-8.126,4.943,8.126,4.3-8.126" transform="translate(-11.318 -16.344)" fill="none" stroke="#000" stroke-width="0.5"/>
      <path id="Path_387" data-name="Path 387" d="M193.484,163.195l40.809-7.673-17.126,30.972-11.979-13.378-3.278,5.992-2.16-10.882Z" transform="translate(-20.896 -16.796)" fill="#9dd1c9"/>
      <path id="Path_388" data-name="Path 388" d="M193.484,163.195l40.809-7.673-17.126,30.972-11.979-13.378-3.278,5.992-2.16-10.882Z" transform="translate(-20.896 -16.796)" fill="none" stroke="#000" stroke-width="0.5"/>
    </g>
  </g>
  <g id="Group_92" data-name="Group 92" transform="translate(172.588 138.726)">
    <g id="Group_91" data-name="Group 91" clip-path="url(#clip-path-2)">
      <path id="Path_389" data-name="Path 389" d="M228.547,160.428l-22.97,13.218L204,184.756l-6.913-4.569,3.051-11.432Z" transform="translate(-193.873 -156.052)"/>
    </g>
  </g>
  <g id="Group_94" data-name="Group 94">
    <g id="Group_93" data-name="Group 93" clip-path="url(#clip-path)">
      <path id="Path_391" data-name="Path 391" d="M214.473,436.182l15.309-112.4a.306.306,0,0,1,.607-.021l16.69,112.421" transform="translate(-23.163 -34.938)" fill="none" stroke="#e0adad" stroke-width="3"/>
      <path id="Path_392" data-name="Path 392" d="M121.081,440.2l18.464-74.542,25.566,75" transform="translate(-13.077 -39.491)" fill="none" stroke="#e0adad" stroke-width="3"/>
      <path id="Path_393" data-name="Path 393" d="M197.376,308.568a45.994,45.994,0,0,1,1.515-14.782c.812-2.691,2.277-6.412,4.832-7.944,2.682-1.61,6.876-.872,9.337.78,3.307,2.218,4.957,6.315,5.188,10.291.621,10.689-3.828,21.929-6.459,32.16-.56,2.177-1.226,4.521-3.008,5.892-2.384,1.834-5.858,1.212-8.555-.12a4.542,4.542,0,0,1-1.764-1.318,5.311,5.311,0,0,1-.549-3.464q.242-3.828.154-7.667c-.1-4.585-.553-9.227-.691-13.827" transform="translate(-21.312 -30.774)" fill="#fff"/>
      <path id="Path_394" data-name="Path 394" d="M197.376,308.568a45.994,45.994,0,0,1,1.515-14.782c.812-2.691,2.277-6.412,4.832-7.944,2.682-1.61,6.876-.872,9.337.78,3.307,2.218,4.957,6.315,5.188,10.291.621,10.689-3.828,21.929-6.459,32.16-.56,2.177-1.226,4.521-3.008,5.892-2.384,1.834-5.858,1.212-8.555-.12a4.542,4.542,0,0,1-1.764-1.318,5.311,5.311,0,0,1-.549-3.464q.242-3.828.154-7.667C197.964,317.81,197.514,313.168,197.376,308.568Z" transform="translate(-21.312 -30.774)" fill="none" stroke="#222221" stroke-width="0.5"/>
      <path id="Path_395" data-name="Path 395" d="M206.525,328.413c-2.622-.548-5.215-1.227-7.791-1.959l-.624-.177c.005.194.018.388.022.581q.087,3.833-.154,7.667a5.313,5.313,0,0,0,.548,3.465,4.556,4.556,0,0,0,1.765,1.318c2.7,1.332,6.17,1.954,8.555.12,1.782-1.371,2.447-3.713,3.007-5.892.344-1.339.721-2.7,1.111-4.066-2.158-.268-4.307-.612-6.439-1.057" transform="translate(-21.377 -35.238)" fill="#f65e59"/>
      <path id="Path_396" data-name="Path 396" d="M206.525,328.413c-2.622-.548-5.215-1.227-7.791-1.959l-.624-.177c.005.194.018.388.022.581q.087,3.833-.154,7.667a5.313,5.313,0,0,0,.548,3.465,4.556,4.556,0,0,0,1.765,1.318c2.7,1.332,6.17,1.954,8.555.12,1.782-1.371,2.447-3.713,3.007-5.892.344-1.339.721-2.7,1.111-4.066C210.806,329.2,208.656,328.859,206.525,328.413Z" transform="translate(-21.377 -35.238)" fill="none" stroke="#000" stroke-width="0.5"/>
      <path id="Path_397" data-name="Path 397" d="M208.387,387.189c3.68-.888,3.409-1.5,6.966-2.767.005,16.327,4.39,44.311,4.316,49.007-4.568.326-6.973,4.324-11.592,4.178-3.623-5.813-6.685-20.838-8.732-27.117-.473-1.45,1.982-13.961-.323-22.193,4.521-.83,4.905-.03,9.365-1.108" transform="translate(-21.494 -41.518)" fill="#fff"/>
      <path id="Path_398" data-name="Path 398" d="M208.387,387.189c3.68-.888,3.409-1.5,6.966-2.767.005,16.327,4.39,44.311,4.316,49.007-4.568.326-6.973,4.324-11.592,4.178-3.623-5.813-6.685-20.838-8.732-27.117-.473-1.45,1.982-13.961-.323-22.193C203.543,387.466,203.927,388.267,208.387,387.189Z" transform="translate(-21.494 -41.518)" fill="none" stroke="#222221" stroke-width="0.5"/>
      <path id="Path_399" data-name="Path 399" d="M214.085,424.041c-3.748.634-7.5,1.312-11.268,1.788,1.639,6.088,3.558,12.6,5.669,15.984,4.621.145,7.025-3.851,11.593-4.178.029-1.85-.635-7.324-1.449-14.269-1.518.21-3.036.421-4.545.676" transform="translate(-21.904 -45.723)" fill="#f65e59"/>
      <path id="Path_400" data-name="Path 400" d="M214.085,424.041c-3.748.634-7.5,1.312-11.268,1.788,1.639,6.088,3.558,12.6,5.669,15.984,4.621.145,7.025-3.851,11.593-4.178.029-1.85-.635-7.324-1.449-14.269C217.111,423.575,215.593,423.786,214.085,424.041Z" transform="translate(-21.904 -45.723)" fill="none" stroke="#000" stroke-width="0.5"/>
      <path id="Path_401" data-name="Path 401" d="M109.14,355.979q4.465,1.559,9.033,2.8c5.926.481,11.886.61,17.825.574a159.209,159.209,0,0,0,27.841-2.119,61,61,0,0,0,13.248-3.882c3.583-1.556,7.578-3.595,10.072-6.694A20.552,20.552,0,0,0,191.4,336.23c-3.526-11.209-13.7-12.822-22.836-18.009a67.341,67.341,0,0,1-24.211-23.43c-5.469-9-8.681-19.086-13.053-28.615-4.079-8.891-9.374-13.475-18.714-16.742-6.928-2.423-14.582-4.083-21.538-1.741-9.668,3.255-15.427,13.5-17.108,23.565-2.611,15.619-.825,34.75,4.079,49.85,4.669,14.374,16.471,29.757,31.12,34.873" transform="translate(-7.856 -26.629)" fill="#f65e59"/>
      <path id="Path_402" data-name="Path 402" d="M109.14,355.979q4.465,1.559,9.033,2.8c5.926.481,11.886.61,17.825.574a159.209,159.209,0,0,0,27.841-2.119,61,61,0,0,0,13.248-3.882c3.583-1.556,7.578-3.595,10.072-6.694A20.552,20.552,0,0,0,191.4,336.23c-3.526-11.209-13.7-12.822-22.836-18.009a67.341,67.341,0,0,1-24.211-23.43c-5.469-9-8.681-19.086-13.053-28.615-4.079-8.891-9.374-13.475-18.714-16.742-6.928-2.423-14.582-4.083-21.538-1.741-9.668,3.255-15.427,13.5-17.108,23.565-2.611,15.619-.825,34.75,4.079,49.85C82.689,335.48,94.491,350.864,109.14,355.979Z" transform="translate(-7.856 -26.629)" fill="none" stroke="#000" stroke-width="0.5"/>
      <path id="Path_403" data-name="Path 403" d="M139.175,353.686q4.615.3,9.209.85c2.689.323,5.464.746,7.748,2.2.5.319,1.026.8.956,1.39-.062.53-.573.874-1.039,1.134-4.125,2.3-10.031,4.764-14.861,4.2-4.271-.5-9.233-.256-13.367-1.616a9.467,9.467,0,0,1-5.224-3.608c-.86-1.367-1.6-4.5.341-5.339,1.309-.567,5.375.444,6.876.455q4.684.036,9.361.336" transform="translate(-13.145 -38.094)" fill="#222221"/>
      <path id="Path_404" data-name="Path 404" d="M213.966,304.59c-1.131,4.906-2.34,10.229-3.67,15.085-6.467-1.309-12.957-3.06-19.424-4.37-3.324-.673-3.358,4.534-4.734,6.62a23.634,23.634,0,0,1-4.993,5.137c-3.84,3.139-9.7,4.241-14.63,4.167-5.793-.087-11.893-2.8-14.436-8.007-2.069-4.234-1.476-9.278-.231-13.822,4.567-16.66,16.876-30.059,29.978-41.316,6.473-5.563,14.591-9.632,23.3-6.584,14.038,4.915,13.465,20.842,11.032,32.95q-1.022,5.086-2.188,10.141" transform="translate(-16.277 -28.129)" fill="#7696ea"/>
      <path id="Path_405" data-name="Path 405" d="M213.966,304.59c-1.131,4.906-2.34,10.229-3.67,15.085-6.467-1.309-12.957-3.06-19.424-4.37-3.324-.673-3.358,4.534-4.734,6.62a23.634,23.634,0,0,1-4.993,5.137c-3.84,3.139-9.7,4.241-14.63,4.167-5.793-.087-11.893-2.8-14.436-8.007-2.069-4.234-1.476-9.278-.231-13.822,4.567-16.66,16.876-30.059,29.978-41.316,6.473-5.563,14.591-9.632,23.3-6.584,14.038,4.915,13.465,20.842,11.032,32.95Q215.132,299.534,213.966,304.59Z" transform="translate(-16.277 -28.129)" fill="none" stroke="#000" stroke-width="0.5"/>
    </g>
  </g>
  <g id="Group_96" data-name="Group 96" transform="translate(134.44 232.327)">
    <g id="Group_95" data-name="Group 95" clip-path="url(#clip-path-4)">
      <path id="Path_406" data-name="Path 406" d="M214.889,270.628a7.742,7.742,0,0,0,6.386-4.008,5.537,5.537,0,0,0,.827-2.156,5.867,5.867,0,0,0-1.034-3.646c-2.245-3.7-8.415-8.1-11.419-2.738-2.545,4.539-.97,12.47,5.24,12.549" transform="translate(-156.956 -259.93)" fill="#222221"/>
    </g>
  </g>
  <g id="Group_98" data-name="Group 98">
    <g id="Group_97" data-name="Group 97" clip-path="url(#clip-path)">
      <path id="Path_408" data-name="Path 408" d="M198.895,347.476c5.311,1.224,10.761,1.786,16.147,2.58,2.836.418,8.635,2.031,11.312.049,3.383-2.507-2.16-3.971-4.668-5.372-4.318-2.415-8.7-4.715-13.054-7.064-4.021-2.17-9.186-6.8-13.288-2.32-2.639,2.878-2.94,7.469-3.241,11.16a35.574,35.574,0,0,1,6.791.968" transform="translate(-20.747 -36.014)" fill="#222221"/>
      <path id="Path_409" data-name="Path 409" d="M102.973,326.944c1.208-5.219,6.636-5.2,13.5-4.522,7.374.73,14.8-.185,22.192-.631,13.112-.789,26.261-.1,39.378.588,5.108.268,10.427.6,14.875,3.121,4.489,2.548,7.567,7.1,9.348,11.941s2.4,10.023,3.015,15.149l4.844,40.681c.411,3.454.89,6.908,1.234,10.369.393,3.954.153,3.836-3.767,4.421-6.562.98-13.146,1.834-19.718,2.75-2.887-11.482-5.781-23-7.176-34.759-.192-1.615-3.492-21.108-4.035-21.022a150.183,150.183,0,0,1-35.5,1.369c-8.363-.672-16.872-2.116-24.168-6.257-6.415-3.642-12.986-10.411-14.065-17.985a14.436,14.436,0,0,1,.037-5.213" transform="translate(-11.094 -34.715)" fill="#7696ea"/>
      <path id="Path_410" data-name="Path 410" d="M102.973,326.944c1.208-5.219,6.636-5.2,13.5-4.522,7.374.73,14.8-.185,22.192-.631,13.112-.789,26.261-.1,39.378.588,5.108.268,10.427.6,14.875,3.121,4.489,2.548,7.567,7.1,9.348,11.941s2.4,10.023,3.015,15.149l4.844,40.681c.411,3.454.89,6.908,1.234,10.369.393,3.954.153,3.836-3.767,4.421-6.562.98-13.146,1.834-19.718,2.75-2.887-11.482-5.781-23-7.176-34.759-.192-1.615-3.492-21.108-4.035-21.022a150.183,150.183,0,0,1-35.5,1.369c-8.363-.672-16.872-2.116-24.168-6.257-6.415-3.642-12.986-10.411-14.065-17.985A14.436,14.436,0,0,1,102.973,326.944Z" transform="translate(-11.094 -34.715)" fill="none" stroke="#000" stroke-width="0.5"/>
      <path id="Path_411" data-name="Path 411" d="M209.835,448.077a2.322,2.322,0,0,0,.281.1h3.946c8.4-.533,16.763.054,25.157-.574a6.134,6.134,0,0,0,3.377-.952c2.135-1.664.26-4.216-1.7-5-6.942-2.764-16-2.292-20.594-9.155a89.888,89.888,0,0,1-14.087,6.446c.576-.206.892,4.105,1.022,4.583.4,1.476,1.122,3.833,2.6,4.553" transform="translate(-22.271 -46.709)" fill="#222221"/>
      <path id="Path_412" data-name="Path 412" d="M118.985,228.937a28.155,28.155,0,0,0-18.283,9.954c-4.422,5.054-6.235,11.868-7.738,18.25q-2.913,12.374-5.827,24.748a29.511,29.511,0,0,0-.97,5.878,43.105,43.105,0,0,0,1.574,10.325,4.6,4.6,0,0,0,1.674,2.9,18.849,18.849,0,0,1,7.412,9.172c.44,1.267.881,2.531,1.315,3.793a17.672,17.672,0,0,0,1.2,3.1c2.148-.029,4.3,0,6.449.037,7.274,0,13.8.123,20.822-1.928,7.078-2.068,14.6-1.724,21.722-3.576a1.918,1.918,0,0,0,1.408-.9,17.068,17.068,0,0,0,.182-3.423c.131-1.806.19-3.617.229-5.428.076-3.53.032-7.06-.027-10.589-.114-6.892-.314-13.791.092-20.678.489-4.886.645-9.874.7-14.775,7.187-.319,14.513-1.738,21.712-2.615,6.231-.759,12.388-1.259,16.746-6.348a9.423,9.423,0,0,0,1.276-1.841c3.089-6.081-1.445-12.8-7.8-13.929a22.171,22.171,0,0,0-3.84-.227c-10.343-.008-20.649-.374-30.983-.784-5.8-.231-9.769-.065-15.432-1.22-4.63-.945-8.987.108-13.607.108" transform="translate(-9.305 -24.671)" fill="#dea600"/>
      <path id="Path_413" data-name="Path 413" d="M118.985,228.937a28.155,28.155,0,0,0-18.283,9.954c-4.422,5.054-6.235,11.868-7.738,18.25q-2.913,12.374-5.827,24.748a29.511,29.511,0,0,0-.97,5.878,43.105,43.105,0,0,0,1.574,10.325,4.6,4.6,0,0,0,1.674,2.9,18.849,18.849,0,0,1,7.412,9.172c.44,1.267.881,2.531,1.315,3.793a17.672,17.672,0,0,0,1.2,3.1c2.148-.029,4.3,0,6.449.037,7.274,0,13.8.123,20.822-1.928,7.078-2.068,14.6-1.724,21.722-3.576a1.918,1.918,0,0,0,1.408-.9,17.068,17.068,0,0,0,.182-3.423c.131-1.806.19-3.617.229-5.428.076-3.53.032-7.06-.027-10.589-.114-6.892-.314-13.791.092-20.678.489-4.886.645-9.874.7-14.775,7.187-.319,14.513-1.738,21.712-2.615,6.231-.759,12.388-1.259,16.746-6.348a9.423,9.423,0,0,0,1.276-1.841c3.089-6.081-1.445-12.8-7.8-13.929a22.171,22.171,0,0,0-3.84-.227c-10.343-.008-20.649-.374-30.983-.784-5.8-.231-9.769-.065-15.432-1.22C127.961,227.885,123.6,228.937,118.985,228.937Z" transform="translate(-9.305 -24.671)" fill="none" stroke="#000" stroke-width="0.5"/>
      <path id="Path_414" data-name="Path 414" d="M187.178,229.179c.269-4.134,1.522-8.42,2.407-12.2,1.329-5.684,2.881-11.318,3.993-17.051A66.96,66.96,0,0,0,195,184.674a15.678,15.678,0,0,1,3.556-11,4.417,4.417,0,0,1,1.422-1.146,4.7,4.7,0,0,1,2.046-.28,13.037,13.037,0,0,1,4.96,1.017c-.621.4-1.248.8-1.863,1.208-.542.363-.6.4-.211.894a15.174,15.174,0,0,1,1.467,1.6c.582,1.019-.075,2.978-.414,3.993a16.171,16.171,0,0,1-2.025,3.972,4.874,4.874,0,0,0-.789,1.458,4.276,4.276,0,0,0-.1.979,79.449,79.449,0,0,0,.883,12.967c.644,4.593,1.1,9.213,1.32,13.847q.056,1.181.09,2.364c.225,7.719.293,15.661-3.967,22.392a12.127,12.127,0,0,1-2.2,2.743c-5.093,4.416-10.693-2.593-11.693-7.29a19.008,19.008,0,0,1-.305-5.211" transform="translate(-20.209 -18.602)" fill="#fff"/>
      <path id="Path_415" data-name="Path 415" d="M187.178,229.179c.269-4.134,1.522-8.42,2.407-12.2,1.329-5.684,2.881-11.318,3.993-17.051A66.96,66.96,0,0,0,195,184.674a15.678,15.678,0,0,1,3.556-11,4.417,4.417,0,0,1,1.422-1.146,4.7,4.7,0,0,1,2.046-.28,13.037,13.037,0,0,1,4.96,1.017c-.621.4-1.248.8-1.863,1.208-.542.363-.6.4-.211.894a15.174,15.174,0,0,1,1.467,1.6c.582,1.019-.075,2.978-.414,3.993a16.171,16.171,0,0,1-2.025,3.972,4.874,4.874,0,0,0-.789,1.458,4.276,4.276,0,0,0-.1.979,79.449,79.449,0,0,0,.883,12.967c.644,4.593,1.1,9.213,1.32,13.847q.056,1.181.09,2.364c.225,7.719.293,15.661-3.967,22.392a12.127,12.127,0,0,1-2.2,2.743c-5.093,4.416-10.693-2.593-11.693-7.29A19.008,19.008,0,0,1,187.178,229.179Z" transform="translate(-20.209 -18.602)" fill="none" stroke="#222221" stroke-width="0.5"/>
      <path id="Path_416" data-name="Path 416" d="M121.092,256.053a12.533,12.533,0,0,0-3.713,7.52c-1.868,10.275-3.538,20.684-6.291,30.785" transform="translate(-11.997 -27.654)" fill="none" stroke="#131834" stroke-width="0.5"/>
      <path id="Path_417" data-name="Path 417" d="M198.591,277.617c-2.459,10.6-8.086,26.691-8.191,37.568" transform="translate(-20.563 -29.983)" fill="none" stroke="#131834" stroke-width="0.5"/>
      <path id="Path_418" data-name="Path 418" d="M75.858,317.028c17.79-4.038,37.858-7.345,53.869.188,10.427,4.905,17.464,14.041,19.438,23.764s.34,14.347-5.66,22.888" transform="translate(-8.193 -33.772)" fill="none" stroke="#000" stroke-width="3"/>
      <path id="Path_419" data-name="Path 419" d="M84.165,343.2a23.945,23.945,0,0,0,16.929,15.006l.124.029c11.391,2.644,23.126,3.19,34.781,3.121,5.8-.034,11.65-.2,17.456-.723-1.259-.546-2.51-1.114-3.749-1.717-10.823-5.267-21.394-11.321-30.588-19.148a115.138,115.138,0,0,1-22.309-25.043,126.126,126.126,0,0,1-7.669-14.313c-2.207-4.634-4.447-9.253-6.457-13.976-2.821-6.628-5.628-13.91-6.461-21.268a38.886,38.886,0,0,0-2.28,8.093c-2.61,15.619-.825,34.75,4.08,49.849,2.033,6.261,3.694,13.514,6.144,20.088" transform="translate(-7.856 -28.639)" fill="#f65e59"/>
      <path id="Path_420" data-name="Path 420" d="M84.165,343.2a23.945,23.945,0,0,0,16.929,15.006l.124.029c11.391,2.644,23.126,3.19,34.781,3.121,5.8-.034,11.65-.2,17.456-.723-1.259-.546-2.51-1.114-3.749-1.717-10.823-5.267-21.394-11.321-30.588-19.148a115.138,115.138,0,0,1-22.309-25.043,126.126,126.126,0,0,1-7.669-14.313c-2.207-4.634-4.447-9.253-6.457-13.976-2.821-6.628-5.628-13.91-6.461-21.268a38.886,38.886,0,0,0-2.28,8.093c-2.61,15.619-.825,34.75,4.08,49.849C80.054,329.378,81.715,336.63,84.165,343.2Z" transform="translate(-7.856 -28.639)" fill="none" stroke="#000" stroke-width="0.5"/>
      <path id="Path_421" data-name="Path 421" d="M186.619,323.631c-11.452-1.742-18.822-.217-33.566-.217" transform="translate(-16.53 -34.862)" fill="none" stroke="#131834" stroke-width="0.5"/>
      <path id="Path_422" data-name="Path 422" d="M153.171,313.676a66.778,66.778,0,0,0-11.764-4.58,56,56,0,0,1-5.587-1.707,39.555,39.555,0,0,1-5.843-3.135l-11.178-6.83c-3.008-1.838-6.034-3.686-9.192-5.241a46.237,46.237,0,0,0-5.031-2.143c-4.64-1.639-12.74-3.642-16.662.254a8.116,8.116,0,0,0-1.8,2.662c2.08,4.4,4.147,8.809,6.336,13.155a27.552,27.552,0,0,0,4.176,1.681c5.821,1.872,11.906,2.659,17.95,3.424,6,.758,12.12,1.133,17.411,4.312,5.82,3.5,13.858,3.445,20.367,2.023,1.176-.257,2.614-.94,2.491-2.137-.086-.837-.923-1.359-1.674-1.738" transform="translate(-9.3 -31.109)" fill="#fff"/>
      <path id="Path_423" data-name="Path 423" d="M153.171,313.676a66.778,66.778,0,0,0-11.764-4.58,56,56,0,0,1-5.587-1.707,39.555,39.555,0,0,1-5.843-3.135l-11.178-6.83c-3.008-1.838-6.034-3.686-9.192-5.241a46.237,46.237,0,0,0-5.031-2.143c-4.64-1.639-12.74-3.642-16.662.254a8.116,8.116,0,0,0-1.8,2.662c2.08,4.4,4.147,8.809,6.336,13.155a27.552,27.552,0,0,0,4.176,1.681c5.821,1.872,11.906,2.659,17.95,3.424,6,.758,12.12,1.133,17.411,4.312,5.82,3.5,13.858,3.445,20.367,2.023,1.176-.257,2.614-.94,2.491-2.137C154.76,314.577,153.922,314.055,153.171,313.676Z" transform="translate(-9.3 -31.109)" fill="none" stroke="#222221" stroke-width="0.5"/>
      <line id="Line_28" data-name="Line 28" x1="0.196" transform="translate(179.721 268.623)" fill="#c98b77"/>
      <path id="Path_424" data-name="Path 424" d="M58.467,436.182l16.048-112.4a.323.323,0,0,1,.637-.021l17.5,112.421" transform="translate(-6.314 -34.938)" fill="none" stroke="#e0adad" stroke-width="3"/>
      <rect id="Rectangle_5970" data-name="Rectangle 5970" width="158.978" height="4.873" transform="translate(58.344 285.382)" fill="#e0adad"/>
      <line id="Line_29" data-name="Line 29" x1="161.402" transform="translate(57.132 285.429)" fill="none" stroke="#131834" stroke-width="0.5"/>
      <line id="Line_30" data-name="Line 30" x2="5.901" transform="translate(66.396 290.259)" fill="none" stroke="#131834" stroke-width="0.5"/>
      <line id="Line_31" data-name="Line 31" x2="5.901" transform="translate(204.081 290.259)" fill="none" stroke="#131834" stroke-width="0.5"/>
      <path id="Path_425" data-name="Path 425" d="M228.421,316.74H155.957a1.225,1.225,0,0,0-1.335,1.073v.966a1.226,1.226,0,0,0,1.335,1.073h72.463Z" transform="translate(-16.699 -34.208)"/>
      <path id="Path_426" data-name="Path 426" d="M229.588,314.681H166.211l5.514-36.418a2.573,2.573,0,0,1,2.512-2.208H232.59A2.47,2.47,0,0,1,235,278.942Z" transform="translate(-17.951 -29.814)" fill="#fff"/>
      <path id="Path_427" data-name="Path 427" d="M229.588,314.681H166.211l5.514-36.418a2.573,2.573,0,0,1,2.512-2.208H232.59A2.47,2.47,0,0,1,235,278.942Z" transform="translate(-17.951 -29.814)" fill="none" stroke="#222221" stroke-width="0.5"/>
      <line id="Line_32" data-name="Line 32" x2="2.749" y2="2.286" transform="translate(188.222 264.435)" fill="none" stroke="#131834" stroke-width="0.5"/>
      <line id="Line_33" data-name="Line 33" x2="2.749" y2="2.286" transform="translate(184.609 264.435)" fill="none" stroke="#131834" stroke-width="0.5"/>
      <line id="Line_34" data-name="Line 34" x2="2.749" y2="2.286" transform="translate(180.996 264.435)" fill="none" stroke="#131834" stroke-width="0.5"/>
      <path id="Path_428" data-name="Path 428" d="M146.708,195.8c-1.258-2.635-3.757.369-6.65-.029-2.515-.346-4.453-.719-6.887.216a9.516,9.516,0,0,0-5.156,4.465c-.284.566-.529,1.129-.747,1.689a35.144,35.144,0,0,0-.968,5.255,33.558,33.558,0,0,0,.057,4.394c.107.6.188,1.21.268,1.817,0,2.93.156,5.684-1.074,8.612a11.56,11.56,0,0,1-2.288,3.614,4.258,4.258,0,0,1-1.507,1.333,2.8,2.8,0,0,1,.46.454c2.863,3.632,8.476,4.089,12.736,3.723a19.793,19.793,0,0,0,6.647-1.6c-1.656-2.456-1-5.223-.279-8.471.063-.284.419-1.29.744-2.3a8.094,8.094,0,0,0,3.038-2.862,17.8,17.8,0,0,0,2.171-5.914c.667-3.146.819-11.493-.566-14.4" transform="translate(-13.15 -21.028)" fill="#fff"/>
      <path id="Path_429" data-name="Path 429" d="M146.708,195.8c-1.258-2.635-3.757.369-6.65-.029-2.515-.346-4.453-.719-6.887.216a9.516,9.516,0,0,0-5.156,4.465c-.284.566-.529,1.129-.747,1.689a35.144,35.144,0,0,0-.968,5.255,33.558,33.558,0,0,0,.057,4.394c.107.6.188,1.21.268,1.817,0,2.93.156,5.684-1.074,8.612a11.56,11.56,0,0,1-2.288,3.614,4.258,4.258,0,0,1-1.507,1.333,2.8,2.8,0,0,1,.46.454c2.863,3.632,8.476,4.089,12.736,3.723a19.793,19.793,0,0,0,6.647-1.6c-1.656-2.456-1-5.223-.279-8.471.063-.284.419-1.29.744-2.3a8.094,8.094,0,0,0,3.038-2.862,17.8,17.8,0,0,0,2.171-5.914C147.942,207.048,148.093,198.7,146.708,195.8Z" transform="translate(-13.15 -21.028)" fill="none" stroke="#222221" stroke-width="0.5"/>
      <path id="Path_430" data-name="Path 430" d="M128.168,210.261a17.51,17.51,0,0,1,.913-3.976c.613-1.31,1.988-1.6,2.67-2.756,1.429-2.429,1.357-5.313,4.363-6.689,3.107-1.423,6.914.61,10.117-.581a5.435,5.435,0,0,0,3.449-5.015,8.9,8.9,0,0,0-.824-3.286,7.557,7.557,0,0,0-2.282-3.324,7.059,7.059,0,0,0-5.4-.8,35.612,35.612,0,0,1-5.512.98c-2.371.04-4.739-.878-7.071-.452a6.385,6.385,0,0,0-4.813,4.189c-.65,1.971-.715,3.889-1.94,5.656-1.276,1.842-2.519,3.354-2.555,5.741-.029,1.943,1.421,3.76,2.143,5.488.646,1.545.937,3.226,1.658,4.737A4.869,4.869,0,0,0,126.8,213.2a1.165,1.165,0,0,0,.736-.14c.428-.289.409-.909.392-1.425a12.862,12.862,0,0,1,.238-1.375" transform="translate(-12.883 -19.834)"/>
    </g>
  </g>
  <g id="Group_100" data-name="Group 100" transform="translate(101.14 190.478)">
    <g id="Group_99" data-name="Group 99" clip-path="url(#clip-path-6)">
      <path id="Path_431" data-name="Path 431" d="M137.6,221.531a2.639,2.639,0,0,0,.371.081,13.574,13.574,0,0,0,7.088-.242c.624.132.525.64.4,1.545q-.257,1.9-.384,3.824l-7.633-5.242.155.034" transform="translate(-115.984 -214.386)" fill="#222221"/>
    </g>
  </g>
  <g id="Group_102" data-name="Group 102">
    <g id="Group_101" data-name="Group 101" clip-path="url(#clip-path)">
      <path id="Path_433" data-name="Path 433" d="M140.032,214a3.322,3.322,0,0,0,2.736,1.813,3.105,3.105,0,0,0,2.745-1.646Z" transform="translate(-15.123 -23.112)" fill="none" stroke="#222221" stroke-width="0.5"/>
      <path id="Path_434" data-name="Path 434" d="M132.654,208.623c-.516-2.623-3.227-4.706-5.9-3.589-2.609,1.09-3.5,5.3-1.667,7.416a4,4,0,0,0,3.91,1.227" transform="translate(-13.405 -22.11)" fill="#fff"/>
      <path id="Path_435" data-name="Path 435" d="M132.654,208.623c-.516-2.623-3.227-4.706-5.9-3.589-2.609,1.09-3.5,5.3-1.667,7.416a4,4,0,0,0,3.91,1.227" transform="translate(-13.405 -22.11)" fill="none" stroke="#222221" stroke-width="0.5"/>
      <path id="Path_436" data-name="Path 436" d="M128.227,207.887a2.5,2.5,0,0,1,2.656,3.262" transform="translate(-13.849 -22.45)" fill="none" stroke="#222221" stroke-width="0.5"/>
      <path id="Path_437" data-name="Path 437" d="M202.415,182.263a4.181,4.181,0,0,0,2.542-.186,4.481,4.481,0,0,0,1.936-1.347,3.389,3.389,0,0,0-.007-3.869,21.67,21.67,0,0,1-3.649,3.193,2.784,2.784,0,0,0-1,.954c-.346.7-.2,1.077.174,1.256" transform="translate(-21.821 -19.101)" fill="#fff"/>
      <path id="Path_438" data-name="Path 438" d="M202.89,179.148a2.224,2.224,0,0,1-.353.088,23.184,23.184,0,0,1-.614-2.936q-.261-1.231-.521-2.462-.253-1.191-.5-2.383c-.11-.517-.549-1.565.009-1.924a1.424,1.424,0,0,1,.52-.17,13.358,13.358,0,0,1,3.348-.309,5.362,5.362,0,0,1,3.113,1.14,2.159,2.159,0,0,1,.888,1.806,2.567,2.567,0,0,1-1.317,1.67c-.433.283-.87.615-1.275.941-.128.106.446.746.444.888,0,.379-.823,1.107-1.07,1.378a7.5,7.5,0,0,1-2.666,2.273" transform="translate(-21.668 -18.256)"/>
      <path id="Path_439" data-name="Path 439" d="M206.875,176.156a10.792,10.792,0,0,1-4.249,4.03" transform="translate(-21.884 -19.025)" fill="none" stroke="#222221" stroke-width="0.5"/>
      <path id="Path_440" data-name="Path 440" d="M158.634,259.144q.348-2.577.695-5.152" transform="translate(-17.132 -27.431)" fill="#dea600"/>
      <path id="Path_441" data-name="Path 441" d="M158.634,259.144q.348-2.577.695-5.152" transform="translate(-17.132 -27.431)" fill="none" stroke="#000" stroke-width="0.5"/>
      <path id="Path_442" data-name="Path 442" d="M142.529,229.831a20.068,20.068,0,0,1-2.226-.619,4.9,4.9,0,0,1-2.44,4.462,9.817,9.817,0,0,1-5.822.85c-3.477-.377-8.068-2.434-9.626-5.782a21.9,21.9,0,0,1-3.318.892,13.786,13.786,0,0,0,3.6,4.642,17.058,17.058,0,0,0,3.051,1.843,18.713,18.713,0,0,0,7.1,1.78,11.779,11.779,0,0,0,7.33-1.827,7.6,7.6,0,0,0,2.9-6.129q-.278-.052-.554-.112" transform="translate(-12.863 -24.704)"/>
    </g>
  </g>
  <g id="Group_104" data-name="Group 104" transform="translate(91.627 286.724)">
    <g id="Group_103" data-name="Group 103" clip-path="url(#clip-path-8)">
      <path id="Path_443" data-name="Path 443" d="M201.091,331.409a7.052,7.052,0,0,0,4.446,5.544c6.257,1.931,10.8-5.665,6.612-10.417-3.692-4.19-12.21-1.148-11.058,4.873" transform="translate(-113.334 -321.78)" fill="#222221"/>
    </g>
  </g>
  <g id="Group_106" data-name="Group 106">
    <g id="Group_105" data-name="Group 105" clip-path="url(#clip-path)">
      <path id="Path_445" data-name="Path 445" d="M185.555,358.209q-.87-4.706-1.406-9.463-.989,5.02-1.978,10.039c1.134-.145,2.259-.364,3.384-.576" transform="translate(-19.674 -37.665)" fill="#222221"/>
      <path id="Path_446" data-name="Path 446" d="M191.1,213l-.062.122" transform="translate(-20.632 -23.004)"/>
      <path id="Path_447" data-name="Path 447" d="M457.364,257.69a6.609,6.609,0,0,0-.274-1.274,7.442,7.442,0,0,0-5.126-4.671,10.472,10.472,0,0,0-7.042.734c-2.908,1.326-5.219,3.652-7.834,5.49-4.258,2.994-8.962,4.756-11.946,9.146-3.247,4.775-5.788,9.783-6.744,15.539-.069.409-.128.822-.18,1.234.186-1.491,2.771-3.8,3.728-4.764a24.743,24.743,0,0,1,4.833-3.808,28.409,28.409,0,0,1,12.269-3.787c7.7-.707,13.715-1.276,17.353-8.858a9.279,9.279,0,0,0,.964-4.981" transform="translate(-45.168 -27.154)" fill="#9dd1c9"/>
      <path id="Path_448" data-name="Path 448" d="M457.364,257.69a6.609,6.609,0,0,0-.274-1.274,7.442,7.442,0,0,0-5.126-4.671,10.472,10.472,0,0,0-7.042.734c-2.908,1.326-5.219,3.652-7.834,5.49-4.258,2.994-8.962,4.756-11.946,9.146-3.247,4.775-5.788,9.783-6.744,15.539-.069.409-.128.822-.18,1.234.186-1.491,2.771-3.8,3.728-4.764a24.743,24.743,0,0,1,4.833-3.808,28.409,28.409,0,0,1,12.269-3.787c7.7-.707,13.715-1.276,17.353-8.858A9.279,9.279,0,0,0,457.364,257.69Z" transform="translate(-45.168 -27.154)" fill="none" stroke="#000" stroke-width="0.5"/>
      <path id="Path_449" data-name="Path 449" d="M439.14,265.056c-6.868,2.911-13.862,6.8-18.138,13.12-4.69,6.936-6.413,14.4-7.18,22.67q-.874,9.429-1.748,18.857" transform="translate(-44.504 -28.626)" fill="none" stroke="#000" stroke-width="0.5"/>
      <path id="Path_450" data-name="Path 450" d="M426.316,217.25a11.463,11.463,0,0,0-10.45-.194c-4.365,2.151-7.219,6.606-8.647,11.259s-1.631,9.576-2.024,14.426c-.773,9.551-2.307,19.157-1.446,28.756.4,4.457,1.619,8.773,2.375,13.131.264,1.521,1.031,7.926,3,8.054a1.581,1.581,0,0,0,1.452-.881.53.53,0,0,1,.679-.2,1.291,1.291,0,0,0,1.068-.078,3.142,3.142,0,0,0,1.121-1.506,175.758,175.758,0,0,0,9.727-26.3c1.12-3.981,2.36-8.048,2.533-12.138a55.012,55.012,0,0,1,1.783-12.548c.91-3.239,2.3-6.344,2.96-9.643s.513-6.961-1.429-9.708a8.408,8.408,0,0,0-2.7-2.433" transform="translate(-43.577 -23.316)" fill="#9dd1c9"/>
      <path id="Path_451" data-name="Path 451" d="M426.316,217.25a11.463,11.463,0,0,0-10.45-.194c-4.365,2.151-7.219,6.606-8.647,11.259s-1.631,9.576-2.024,14.426c-.773,9.551-2.307,19.157-1.446,28.756.4,4.457,1.619,8.773,2.375,13.131.264,1.521,1.031,7.926,3,8.054a1.581,1.581,0,0,0,1.452-.881.53.53,0,0,1,.679-.2,1.291,1.291,0,0,0,1.068-.078,3.142,3.142,0,0,0,1.121-1.506,175.758,175.758,0,0,0,9.727-26.3c1.12-3.981,2.36-8.048,2.533-12.138a55.012,55.012,0,0,1,1.783-12.548c.91-3.239,2.3-6.344,2.96-9.643s.513-6.961-1.429-9.708A8.408,8.408,0,0,0,426.316,217.25Z" transform="translate(-43.577 -23.316)" fill="none" stroke="#000" stroke-width="0.5"/>
      <line id="Line_35" data-name="Line 35" x1="7.717" y2="69.659" transform="translate(364.737 220.181)" fill="none" stroke="#1c0c03" stroke-width="0.5"/>
      <path id="Path_452" data-name="Path 452" d="M395.354,277.039c-2.6-7.453-8.163-13.235-15.551-13.7a71.456,71.456,0,0,1-7.817-.453c-2.5-.434-5.01-1.438-7.49-.97-5.482,1.035-7.858,8.55-4.592,12.875a11.27,11.27,0,0,0,7.293,3.893,65.3,65.3,0,0,0,8.454.384,24.216,24.216,0,0,1,10.394,2.333c5.222,2.711,8.186,9.45,10.088,14.765a14.6,14.6,0,0,1,1.243,5.452c-.351-1.416.214-4.111.213-5.652,0-2.033-.021-4.067-.116-6.1a49.128,49.128,0,0,0-1.669-11.422q-.207-.713-.45-1.408" transform="translate(-38.709 -28.274)" fill="#dea600"/>
      <path id="Path_453" data-name="Path 453" d="M395.354,277.039c-2.6-7.453-8.163-13.235-15.551-13.7a71.456,71.456,0,0,1-7.817-.453c-2.5-.434-5.01-1.438-7.49-.97-5.482,1.035-7.858,8.55-4.592,12.875a11.27,11.27,0,0,0,7.293,3.893,65.3,65.3,0,0,0,8.454.384,24.216,24.216,0,0,1,10.394,2.333c5.222,2.711,8.186,9.45,10.088,14.765a14.6,14.6,0,0,1,1.243,5.452c-.351-1.416.214-4.111.213-5.652,0-2.033-.021-4.067-.116-6.1a49.128,49.128,0,0,0-1.669-11.422Q395.6,277.735,395.354,277.039Z" transform="translate(-38.709 -28.274)" fill="none" stroke="#000" stroke-width="0.5"/>
      <path id="Path_454" data-name="Path 454" d="M400.69,316.7c-.434-4.774-.629-19.946-1.81-24.576-1.112-4.366-2.6-8.733-5.237-12.221s-6.6-5.992-10.639-5.67" transform="translate(-41.364 -29.614)" fill="none" stroke="#1c0c03" stroke-width="0.5"/>
      <path id="Path_455" data-name="Path 455" d="M393.278,311.867H421.96l-1.67,12.881c-.905,6.985-6.273,12.17-12.6,12.17-6.272,0-11.608-5.093-12.579-12Z" transform="translate(-42.474 -33.682)" fill="#e0adad"/>
      <path id="Path_456" data-name="Path 456" d="M360.427,438.4V339.945h78.243V438.4" transform="translate(-38.926 -36.714)" fill="none" stroke="#222221" stroke-width="0.5"/>
      <line id="Line_36" data-name="Line 36" x2="89.873" transform="translate(316.214 328.754)" fill="none" stroke="#222221" stroke-width="0.5"/>
      <line id="Line_37" data-name="Line 37" x2="89.873" transform="translate(316.214 354.21)" fill="none" stroke="#222221" stroke-width="0.5"/>
      <line id="Line_38" data-name="Line 38" x2="89.873" transform="translate(316.214 379.666)" fill="none" stroke="#222221" stroke-width="0.5"/>
      <path id="Path_457" data-name="Path 457" d="M407.5,350.61a3.877,3.877,0,1,1-3.878-3.878A3.877,3.877,0,0,1,407.5,350.61Z" transform="translate(-43.173 -37.447)" fill="none" stroke="#222221" stroke-width="0.5"/>
      <path id="Path_458" data-name="Path 458" d="M407.5,380.123a3.877,3.877,0,1,1-3.878-3.878A3.877,3.877,0,0,1,407.5,380.123Z" transform="translate(-43.173 -40.634)" fill="none" stroke="#222221" stroke-width="0.5"/>
      <path id="Path_459" data-name="Path 459" d="M407.5,409.637a3.877,3.877,0,1,1-3.878-3.878A3.877,3.877,0,0,1,407.5,409.637Z" transform="translate(-43.173 -43.822)" fill="none" stroke="#222221" stroke-width="0.5"/>
      <path id="Path_460" data-name="Path 460" d="M407.5,439.151a3.877,3.877,0,1,1-3.878-3.878A3.877,3.877,0,0,1,407.5,439.151Z" transform="translate(-43.173 -47.009)" fill="none" stroke="#222221" stroke-width="0.5"/>
      <path id="Path_461" data-name="Path 461" d="M407.5,351.079a3.877,3.877,0,1,1-7.754,0" transform="translate(-43.173 -37.917)" fill="#161111"/>
      <path id="Path_462" data-name="Path 462" d="M407.5,380.592a3.877,3.877,0,1,1-7.754,0" transform="translate(-43.173 -41.104)" fill="#161111"/>
      <path id="Path_463" data-name="Path 463" d="M407.5,410.106a3.877,3.877,0,1,1-7.754,0" transform="translate(-43.173 -44.291)" fill="#161111"/>
      <path id="Path_464" data-name="Path 464" d="M407.5,439.62a3.877,3.877,0,1,1-7.754,0" transform="translate(-43.173 -47.479)" fill="#161111"/>
      <path id="Path_465" data-name="Path 465" d="M149.057,66.9c22.5,0,40.741,8.458,40.741,18.893,0,6.176-6,10.418-10.948,12.882a53.037,53.037,0,0,1-11.978,4.108,85.6,85.6,0,0,1-17.129,2.069,28.891,28.891,0,0,1-6.941,16.564c-1.516,1.731-3.39,3.351-5.669,3.678a35.638,35.638,0,0,0,5.142-20.467,65.087,65.087,0,0,1-21.245-5.122c-5.495-2.422-12.715-6.859-12.715-13.712,0-10.435,18.241-18.893,40.741-18.893" transform="translate(-11.698 -7.225)" fill="#7696ea"/>
      <path id="Path_466" data-name="Path 466" d="M149.057,66.9c22.5,0,40.741,8.458,40.741,18.893,0,6.176-6,10.418-10.948,12.882a53.037,53.037,0,0,1-11.978,4.108,85.6,85.6,0,0,1-17.129,2.069,28.891,28.891,0,0,1-6.941,16.564c-1.516,1.731-3.39,3.351-5.669,3.678a35.638,35.638,0,0,0,5.142-20.467,65.087,65.087,0,0,1-21.245-5.122c-5.495-2.422-12.715-6.859-12.715-13.712C108.316,75.36,126.557,66.9,149.057,66.9Z" transform="translate(-11.698 -7.225)" fill="none" stroke="#000" stroke-width="0.5"/>
      <path id="Path_467" data-name="Path 467" d="M178.8,85.924a6.619,6.619,0,0,1-13.213-.162c-.113-1.268.257-2.764,1.376-3.267a2.38,2.38,0,0,1,2.957,1.5,5.011,5.011,0,0,1-.252,3.71,8.945,8.945,0,0,1-8.981,5.458A9.164,9.164,0,0,1,153.05,85.8c-.239-1.3-.1-2.87.947-3.617,1.3-.925,3.241.166,3.694,1.739a5.51,5.51,0,0,1-1.157,4.59,10.065,10.065,0,0,1-8.555,3.973,8.991,8.991,0,0,1-4.547-1.29c-1.767-1.279-3.534-5.394-2.145-7.462a1.271,1.271,0,0,1,2.069-.3,3.268,3.268,0,0,1,.944,2.345,8.242,8.242,0,0,1-2.1,5.13,7.635,7.635,0,0,1-8.7,1.908,9.345,9.345,0,0,1-5.233-7.684c-.108-1.233.4-2.876,1.58-2.812.871.046,1.39,1.042,1.582,1.932a8.251,8.251,0,0,1-2.011,7.276,7.438,7.438,0,0,1-6.956,2.118" transform="translate(-13.227 -8.839)" fill="none" stroke="#000" stroke-width="0.5"/>
      <rect id="Rectangle_5973" data-name="Rectangle 5973" width="36.597" height="57.055" transform="translate(362.444 64.294)" fill="#9dd1c9"/>
      <rect id="Rectangle_5974" data-name="Rectangle 5974" width="36.597" height="57.055" transform="translate(362.444 64.294)" fill="none" stroke="#000" stroke-width="0.5"/>
      <rect id="Rectangle_5975" data-name="Rectangle 5975" width="36.597" height="70.532" transform="translate(362.444 58.76)" fill="none" stroke="#3a434b" stroke-width="0.5"/>
      <path id="Path_468" data-name="Path 468" d="M428.81,139.926a2.244,2.244,0,1,1-2.24-2.388,2.318,2.318,0,0,1,2.24,2.388" transform="translate(-45.828 -14.854)"/>
      <path id="Path_469" data-name="Path 469" d="M424.247,84.127a15.857,15.857,0,0,0-13.2,18.129" transform="translate(-44.372 -9.086)" fill="none" stroke="#3a434b" stroke-width="0.5"/>
      <path id="Path_470" data-name="Path 470" d="M425.556,89.369a11.124,11.124,0,0,0-9.259,12.717" transform="translate(-44.945 -9.652)" fill="none" stroke="#3a434b" stroke-width="0.5"/>
      <path id="Path_471" data-name="Path 471" d="M426.538,93.3a7.573,7.573,0,0,0-6.3,8.659" transform="translate(-45.375 -10.077)" fill="none" stroke="#3a434b" stroke-width="0.5"/>
      <path id="Path_472" data-name="Path 472" d="M427.651,97.756a3.55,3.55,0,0,0-2.955,4.059" transform="translate(-45.862 -10.558)" fill="none" stroke="#3a434b" stroke-width="0.5"/>
      <path id="Path_473" data-name="Path 473" d="M423.292,116.927a42.793,42.793,0,0,0,3.751-2.907,53.713,53.713,0,0,0,4.085-3.877,46.923,46.923,0,0,0,3.165-3.7c.007-.01.015-.019.023-.029a53.907,53.907,0,0,0,3.193-4.638,42.789,42.789,0,0,0,2.289-4.158,1.853,1.853,0,0,0,.035-1.849c-.787-1.818-2.888-2.944-4.777-3.536a.891.891,0,0,0-1.076.485c-.756,1.664-1.6,3.288-2.459,4.9-.321.6-.645,1.2-.946,1.807a.889.889,0,0,0,.2,1.063A10.277,10.277,0,0,0,433.7,102.3a.728.728,0,0,1,.415.929c-.363.538-.739,1.072-1.135,1.6-.169.224-.34.445-.511.665-.085.108-.168.216-.253.324-.254.318-.51.63-.77.937l-.118.142c-.271.318-.545.63-.821.938l-.11.123q-1.2,1.321-2.463,2.491a.727.727,0,0,1-.963-.274,10.314,10.314,0,0,0-2.247-2.607.889.889,0,0,0-1.082-.036c-.555.392-1.094.805-1.639,1.216-1.46,1.1-2.933,2.185-4.459,3.192a.889.889,0,0,0-.312,1.137c.879,1.774,2.317,3.675,4.236,4.169a1.852,1.852,0,0,0,1.821-.322" transform="translate(-45.051 -9.956)" fill="#f65e59"/>
      <path id="Path_474" data-name="Path 474" d="M423.292,116.927a42.793,42.793,0,0,0,3.751-2.907,53.713,53.713,0,0,0,4.085-3.877,46.923,46.923,0,0,0,3.165-3.7c.007-.01.015-.019.023-.029a53.907,53.907,0,0,0,3.193-4.638,42.789,42.789,0,0,0,2.289-4.158,1.853,1.853,0,0,0,.035-1.849c-.787-1.818-2.888-2.944-4.777-3.536a.891.891,0,0,0-1.076.485c-.756,1.664-1.6,3.288-2.459,4.9-.321.6-.645,1.2-.946,1.807a.889.889,0,0,0,.2,1.063A10.277,10.277,0,0,0,433.7,102.3a.728.728,0,0,1,.415.929c-.363.538-.739,1.072-1.135,1.6-.169.224-.34.445-.511.665-.085.108-.168.216-.253.324-.254.318-.51.63-.77.937l-.118.142c-.271.318-.545.63-.821.938l-.11.123q-1.2,1.321-2.463,2.491a.727.727,0,0,1-.963-.274,10.314,10.314,0,0,0-2.247-2.607.889.889,0,0,0-1.082-.036c-.555.392-1.094.805-1.639,1.216-1.46,1.1-2.933,2.185-4.459,3.192a.889.889,0,0,0-.312,1.137c.879,1.774,2.317,3.675,4.236,4.169A1.852,1.852,0,0,0,423.292,116.927Z" transform="translate(-45.051 -9.956)" fill="none" stroke="#000" stroke-width="0.5"/>
      <path id="Path_475" data-name="Path 475" d="M88.535,196.841a21.252,21.252,0,1,1-21.252-21.252,21.252,21.252,0,0,1,21.252,21.252" transform="translate(-4.971 -18.964)" fill="#9dd1c9"/>
      <circle id="Ellipse_27" data-name="Ellipse 27" cx="21.252" cy="21.252" r="21.252" transform="translate(33.799 187.381) rotate(-63.435)" fill="none" stroke="#000" stroke-width="0.5"/>
      <ellipse id="Ellipse_28" data-name="Ellipse 28" cx="16.131" cy="21.252" rx="16.131" ry="21.252" transform="translate(46.181 156.625)" fill="none" stroke="#000" stroke-width="0.5"/>
      <ellipse id="Ellipse_29" data-name="Ellipse 29" cx="5.943" cy="21.252" rx="5.943" ry="21.252" transform="translate(56.369 156.625)" fill="none" stroke="#000" stroke-width="0.5"/>
    </g>
  </g>
  <g id="Group_108" data-name="Group 108" transform="translate(41.06 156.625)">
    <g id="Group_107" data-name="Group 107" clip-path="url(#clip-path-10)">
      <ellipse id="Ellipse_30" data-name="Ellipse 30" cx="21.252" cy="14.841" rx="21.252" ry="14.841" transform="translate(0 30.794)" fill="none" stroke="#000" stroke-width="0.5"/>
      <path id="Path_476" data-name="Path 476" d="M88.535,170.874c0,8.2-9.515,14.841-21.252,14.841s-21.252-6.645-21.252-14.841,9.515-14.84,21.252-14.84S88.535,162.678,88.535,170.874Z" transform="translate(-46.031 -173.477)" fill="none" stroke="#000" stroke-width="0.5"/>
      <line id="Line_39" data-name="Line 39" x2="47.805" transform="translate(-3.138 22.468)" fill="none" stroke="#000" stroke-width="0.5"/>
    </g>
  </g>
  <g id="Group_110" data-name="Group 110">
    <g id="Group_109" data-name="Group 109" clip-path="url(#clip-path)">
      <path id="Path_478" data-name="Path 478" d="M349.567,123.791a2.47,2.47,0,0,0-2.174,2.812" transform="translate(-37.516 -13.369)" fill="#fff"/>
      <path id="Path_479" data-name="Path 479" d="M349.567,123.791a2.47,2.47,0,0,0-2.174,2.812" transform="translate(-37.516 -13.369)" fill="none" stroke="#222221" stroke-width="0.5"/>
      <path id="Path_480" data-name="Path 480" d="M367.942,217.613a5.258,5.258,0,0,1-.946-.365c-.858-.438-1.39-1.108-2.463-1.034-.628.043-1.323.5-1.252,1.128a1.332,1.332,0,0,0,.4.722c.783.837,1.88,1.328,2.653,2.175.421.461.736,1.02,1.2,1.437,2.088,1.872,4.943.178,6.7-1.214a1,1,0,0,0,.462-.682.849.849,0,0,0-.2-.515,3.15,3.15,0,0,0-1.956-1.105,18.124,18.124,0,0,0-2.289-.189,11.4,11.4,0,0,1-2.309-.358" transform="translate(-39.234 -23.351)" fill="#fff"/>
      <path id="Path_481" data-name="Path 481" d="M367.942,217.613a5.258,5.258,0,0,1-.946-.365c-.858-.438-1.39-1.108-2.463-1.034-.628.043-1.323.5-1.252,1.128a1.332,1.332,0,0,0,.4.722c.783.837,1.88,1.328,2.653,2.175.421.461.736,1.02,1.2,1.437,2.088,1.872,4.943.178,6.7-1.214a1,1,0,0,0,.462-.682.849.849,0,0,0-.2-.515,3.15,3.15,0,0,0-1.956-1.105,18.124,18.124,0,0,0-2.289-.189A11.4,11.4,0,0,1,367.942,217.613Z" transform="translate(-39.234 -23.351)" fill="none" stroke="#222221" stroke-width="0.5"/>
      <path id="Path_482" data-name="Path 482" d="M273.478,118.587c-.252-4.687-.386-9.362-.52-14.173.139-4.628,2.431-8.881,3.27-13.463a2.057,2.057,0,0,0-.069-1.35c-.221-.419-.861-.678-1.2-.373-.624,1.28-1.265,3.249-2.957,3.583-1.013-3.523,2.8-7.479.443-10.428-1.755-2.194-5.629-1.443-7.22.694s-1.617,4.993-1.772,7.659c-.513,8.8-2.38,18.474-4.564,27.851Z" transform="translate(-27.96 -8.755)" fill="#fff"/>
      <path id="Path_483" data-name="Path 483" d="M273.478,118.587c-.252-4.687-.386-9.362-.52-14.173.139-4.628,2.431-8.881,3.27-13.463a2.057,2.057,0,0,0-.069-1.35c-.221-.419-.861-.678-1.2-.373-.624,1.28-1.265,3.249-2.957,3.583-1.013-3.523,2.8-7.479.443-10.428-1.755-2.194-5.629-1.443-7.22.694s-1.617,4.993-1.772,7.659c-.513,8.8-2.38,18.474-4.564,27.851Z" transform="translate(-27.96 -8.755)" fill="none" stroke="#222221" stroke-width="0.5"/>
      <rect id="Rectangle_5977" data-name="Rectangle 5977" width="55.306" height="34.809" transform="translate(212.249 48.776)" fill="#dea600"/>
      <rect id="Rectangle_5978" data-name="Rectangle 5978" width="55.306" height="34.809" transform="translate(212.249 48.776)" fill="none" stroke="#000" stroke-width="0.5"/>
      <path id="Path_484" data-name="Path 484" d="M293.253,54.683S267.617,70.44,265.6,72.087l-27.653-17.4" transform="translate(-25.698 -5.906)" fill="none" stroke="#000" stroke-width="0.5"/>
      <path id="Path_485" data-name="Path 485" d="M274.546,105.37a27.225,27.225,0,0,1,1.592-7.44c.391-1.225.795-2.445,1.135-3.686a13,13,0,0,0,.414-1.506,4.049,4.049,0,0,1,.448-1.611,2.943,2.943,0,0,0,.275-.467.555.555,0,0,0-.04-.526.771.771,0,0,0-.823-.173,2.312,2.312,0,0,0-1.127.756c-.915,1.078-1.153,2.719-2.833,3.05" transform="translate(-29.547 -9.711)" fill="#fff"/>
      <path id="Path_486" data-name="Path 486" d="M274.546,105.37a27.225,27.225,0,0,1,1.592-7.44c.391-1.225.795-2.445,1.135-3.686a13,13,0,0,0,.414-1.506,4.049,4.049,0,0,1,.448-1.611,2.943,2.943,0,0,0,.275-.467.555.555,0,0,0-.04-.526.771.771,0,0,0-.823-.173,2.312,2.312,0,0,0-1.127.756c-.915,1.078-1.153,2.719-2.833,3.05" transform="translate(-29.547 -9.711)" fill="none" stroke="#222221" stroke-width="0.5"/>
      <path id="Path_487" data-name="Path 487" d="M294.866,431.847a2.141,2.141,0,0,1-.5.971,2.51,2.51,0,0,1-1.188.507q-5.525,1.27-11.135,1.988c1.034-8.3.756-16.852,2.437-25.034.695-3.384,1.873-6.9,4.567-9.069a9.023,9.023,0,0,1,9.874-.779c5.472,3.126,2.353,8.784,1.177,13.227q-2.415,9.128-5.23,18.188" transform="translate(-30.46 -43.126)" fill="#fff"/>
      <path id="Path_488" data-name="Path 488" d="M294.866,431.847a2.141,2.141,0,0,1-.5.971,2.51,2.51,0,0,1-1.188.507q-5.525,1.27-11.135,1.988c1.034-8.3.756-16.852,2.437-25.034.695-3.384,1.873-6.9,4.567-9.069a9.023,9.023,0,0,1,9.874-.779c5.472,3.126,2.353,8.784,1.177,13.227Q297.681,422.787,294.866,431.847Z" transform="translate(-30.46 -43.126)" fill="none" stroke="#222221" stroke-width="0.5"/>
      <path id="Path_489" data-name="Path 489" d="M293.143,435.415a25.572,25.572,0,0,1-5.521.332,21.006,21.006,0,0,1-8.181-1.763,35.431,35.431,0,0,1-2.954,2.077L265.742,440.7a38.542,38.542,0,0,0-7.765,4.081,3.092,3.092,0,0,0-1.311,1.6c-.726,2.956,6.537,2.051,8,2.036,3.912-.039,7.783-.419,11.691-.467,3.3-.04,6.613.057,9.9-.12,1.957-.105,5.071.789,6.523-.746,1.133-1.2,1.064-3.63.748-5.113a27.274,27.274,0,0,1-.384-6.561" transform="translate(-27.714 -46.87)" fill="#161111"/>
      <path id="Path_490" data-name="Path 490" d="M349.036,433.7a1.7,1.7,0,0,0,.317.958,2.01,2.01,0,0,0,1.094.482,104.057,104.057,0,0,0,10.791,1.767c.66-9.421,1.28-19.683.92-28.083a6.319,6.319,0,0,0-1.577-3.687,7.358,7.358,0,0,0-6.594-2.09c-2.016.272-6.191,1.726-7.116,3.688-1.012,2.144.3,6.735.455,8.952q.648,9.045,1.71,18.013" transform="translate(-37.421 -43.52)" fill="#fff"/>
      <path id="Path_491" data-name="Path 491" d="M349.036,433.7a1.7,1.7,0,0,0,.317.958,2.01,2.01,0,0,0,1.094.482,104.057,104.057,0,0,0,10.791,1.767c.66-9.421,1.28-19.683.92-28.083a6.319,6.319,0,0,0-1.577-3.687,7.358,7.358,0,0,0-6.594-2.09c-2.016.272-6.191,1.726-7.116,3.688-1.012,2.144.3,6.735.455,8.952Q347.973,424.729,349.036,433.7Z" transform="translate(-37.421 -43.52)" fill="none" stroke="#222221" stroke-width="0.5"/>
      <path id="Path_492" data-name="Path 492" d="M346,135.422c-.047.326-.1.652-.15.978-.821,5.044,1.127,10.311.121,15.529-.711,3.7-3.861,11.047-8.4,11.529-1.156.122-2.315-1.41-2.951-2.191a17.526,17.526,0,0,1-4.161-8.944,24.779,24.779,0,0,1,.1-4.83q.3-3.468.6-6.936a26.683,26.683,0,0,1,.416-3.239,11.467,11.467,0,0,1,2.569-5.237c2.7-3.035,6.637-3.278,10.451-3.349a2.206,2.206,0,0,1,1.251.235c.7.45.7,1.45.626,2.278-.13,1.4-.28,2.795-.479,4.177" transform="translate(-35.681 -13.903)" fill="#fff"/>
      <path id="Path_493" data-name="Path 493" d="M346,135.422c-.047.326-.1.652-.15.978-.821,5.044,1.127,10.311.121,15.529-.711,3.7-3.861,11.047-8.4,11.529-1.156.122-2.315-1.41-2.951-2.191a17.526,17.526,0,0,1-4.161-8.944,24.779,24.779,0,0,1,.1-4.83q.3-3.468.6-6.936a26.683,26.683,0,0,1,.416-3.239,11.467,11.467,0,0,1,2.569-5.237c2.7-3.035,6.637-3.278,10.451-3.349a2.206,2.206,0,0,1,1.251.235c.7.45.7,1.45.626,2.278C346.345,132.647,346.2,134.039,346,135.422Z" transform="translate(-35.681 -13.903)" fill="none" stroke="#222221" stroke-width="0.5"/>
      <path id="Path_494" data-name="Path 494" d="M337.33,140.751c2.407.725,8.694,1.7,8.694,1.7a45.86,45.86,0,0,1-.135-4.745c.014-.165.161-1.219.308-2.152a9.3,9.3,0,0,1,.289-1.5,3.915,3.915,0,0,1-1.57-.79c-.266-.236-.45-.551-.719-.8a6.144,6.144,0,0,0-6.382-1.081,7.569,7.569,0,0,0-3.144,2.429,10.327,10.327,0,0,0-1.234,2.069,8.335,8.335,0,0,0-.869,2.622c0,.008-.029.229-.078.6,1.6.6,3.207,1.152,4.84,1.643" transform="translate(-35.909 -14.142)" fill="#161111"/>
      <path id="Path_495" data-name="Path 495" d="M330.865,113.783a27.485,27.485,0,0,1,4.26.752c1.251.325,2.291.962,3.572,1.247,2.132.474,5.455,1.012,6.957,2.581,1.652,1.726,1.562,4.271,1.334,6.514a52.709,52.709,0,0,1-1.042,6.36,10.137,10.137,0,0,1-6.015,7.462,11.921,11.921,0,0,1-7.269.69c-3.567-.862-5.5-3.838-6.107-8-.109-.748-.136-3.189-.147-3.945a56.678,56.678,0,0,1,.732-6.844,19.572,19.572,0,0,1,1.312-6,1.638,1.638,0,0,1,.452-.657,1.747,1.747,0,0,1,1.19-.214c.257.018.514.038.77.063" transform="translate(-35.252 -12.28)" fill="#fff"/>
      <path id="Path_496" data-name="Path 496" d="M330.865,113.783a27.485,27.485,0,0,1,4.26.752c1.251.325,2.291.962,3.572,1.247,2.132.474,5.455,1.012,6.957,2.581,1.652,1.726,1.562,4.271,1.334,6.514a52.709,52.709,0,0,1-1.042,6.36,10.137,10.137,0,0,1-6.015,7.462,11.921,11.921,0,0,1-7.269.69c-3.567-.862-5.5-3.838-6.107-8-.109-.748-.136-3.189-.147-3.945a56.678,56.678,0,0,1,.732-6.844,19.572,19.572,0,0,1,1.312-6,1.638,1.638,0,0,1,.452-.657,1.747,1.747,0,0,1,1.19-.214C330.352,113.737,330.609,113.758,330.865,113.783Z" transform="translate(-35.252 -12.28)" fill="none" stroke="#222221" stroke-width="0.5"/>
      <path id="Path_497" data-name="Path 497" d="M329,107.075a8.953,8.953,0,0,1,3.775-.351l6.75.409a14.106,14.106,0,0,1,5.516,1.009,8.991,8.991,0,0,1,4.712,5.258,13.112,13.112,0,0,1,.255,5.248,44.628,44.628,0,0,1-.8,4.925c-.341,1.541-1.046,3.268-2.8,3.593-2.308.427-2.877-2.389-2.773-4.016q.086-1.33.169-2.66a4.615,4.615,0,0,0-.1-1.669,3.1,3.1,0,0,0-1.94-1.855,8.947,8.947,0,0,0-2.737-.423,45.059,45.059,0,0,1-8.712-.933,7.474,7.474,0,0,1-2.565-1.055c-1.846-1.31-1.4-5.121.015-6.649a3.378,3.378,0,0,1,1.234-.831" transform="translate(-35.265 -11.521)" fill="#161111"/>
      <path id="Path_498" data-name="Path 498" d="M326.1,125.033a1.476,1.476,0,0,0,.142.473c.976-1.219.836-3.931,1.112-5.439a8.9,8.9,0,0,1,2.242-4.907,7.425,7.425,0,0,0,1.109-1.119,1.338,1.338,0,0,0,.1-1.48,1.553,1.553,0,0,0-1.647-.376c-3.747.921-3.463,5.606-3.278,8.616a35.352,35.352,0,0,0,.217,4.232" transform="translate(-35.186 -12.108)" fill="#161111"/>
      <path id="Path_499" data-name="Path 499" d="M346.271,130.851a3.7,3.7,0,0,0,2.658.144,3.57,3.57,0,0,0,1.634-5.2,3.115,3.115,0,0,0-2.679-1.175,3.225,3.225,0,0,0-2.476,1.573" transform="translate(-37.304 -13.458)" fill="#fff"/>
      <path id="Path_500" data-name="Path 500" d="M346.271,130.851a3.7,3.7,0,0,0,2.658.144,3.57,3.57,0,0,0,1.634-5.2,3.115,3.115,0,0,0-2.679-1.175,3.225,3.225,0,0,0-2.476,1.573" transform="translate(-37.304 -13.458)" fill="none" stroke="#222221" stroke-width="0.5"/>
      <path id="Path_501" data-name="Path 501" d="M362.454,300.764c.409-14.73.717-28.954-1.61-43.595-1-6.277-6.185-27.925-14.054-29.1a3.022,3.022,0,0,0-1.2.051,17.879,17.879,0,0,0-2.433-6.164c-3.432-5.517-9.662-9.543-16.036-11.053-7.071-1.674-15.69-.714-18.8,7.437-1.593,4.174-1.222,8.419-3.121,12.455-5.363,11.4-6.05,22.719-7.647,35.274q-2.827,22.244-5.877,44.46-5.794,42.211-12.393,84.307a72.734,72.734,0,0,0,8.863,1.593,68.165,68.165,0,0,0,15.585-.163q7.59-38.276,16.226-76.335c2.884-12.691,5.3-25.1,8.28-37.149,2.024,19.68,3.771,39.393,4.994,59.141q.935,15.1,1.43,30.224c.263,8.356,1.826,17.439,1.485,25.624,5.952,1.057,13.062.092,19.162-.343.7-.05,5.915-.739,5.974-1.393,1.6-17.682,1.535-31.893,1.9-50.462.278-13.959-1.115-31.119-.735-44.806" transform="translate(-30.163 -22.703)" fill="#7696ea"/>
      <path id="Path_502" data-name="Path 502" d="M362.454,300.764c.409-14.73.717-28.954-1.61-43.595-1-6.277-6.185-27.925-14.054-29.1a3.022,3.022,0,0,0-1.2.051,17.879,17.879,0,0,0-2.433-6.164c-3.432-5.517-9.662-9.543-16.036-11.053-7.071-1.674-15.69-.714-18.8,7.437-1.593,4.174-1.222,8.419-3.121,12.455-5.363,11.4-6.05,22.719-7.647,35.274q-2.827,22.244-5.877,44.46-5.794,42.211-12.393,84.307a72.734,72.734,0,0,0,8.863,1.593,68.165,68.165,0,0,0,15.585-.163q7.59-38.276,16.226-76.335c2.884-12.691,5.3-25.1,8.28-37.149,2.024,19.68,3.771,39.393,4.994,59.141q.935,15.1,1.43,30.224c.263,8.356,1.826,17.439,1.485,25.624,5.952,1.057,13.062.092,19.162-.343.7-.05,5.915-.739,5.974-1.393,1.6-17.682,1.535-31.893,1.9-50.462C363.467,331.611,362.074,314.451,362.454,300.764Z" transform="translate(-30.163 -22.703)" fill="none" stroke="#000" stroke-width="0.5"/>
    </g>
  </g>
  <g id="Group_112" data-name="Group 112" transform="translate(249.122 187.506)">
    <g id="Group_111" data-name="Group 111" clip-path="url(#clip-path-12)">
      <path id="Path_503" data-name="Path 503" d="M364.647,390.369q.032-8.527.009-17.053-.047-17.053-.311-34.1t-.767-34.1c-.319-11.015-.59-22.047-1.208-33.049-.628-11.191-1.745-23.235-7.459-33.12a.234.234,0,0,0-.425.179,129.516,129.516,0,0,1,5.42,30.157c.661,10.91.915,21.85,1.226,32.774q.958,33.655,1.087,67.327.036,9.4.005,18.8-.016,4.81-.049,9.619a62.968,62.968,0,0,0,.216,9.437.965.965,0,0,0,1.848,0,54.517,54.517,0,0,0,.365-8.562q.028-4.155.044-8.308" transform="translate(-287.406 -213.3)"/>
    </g>
  </g>
  <g id="Group_114" data-name="Group 114">
    <g id="Group_113" data-name="Group 113" clip-path="url(#clip-path)">
      <path id="Path_505" data-name="Path 505" d="M331.081,132.765a3.612,3.612,0,0,0,7.222.208Z" transform="translate(-35.757 -14.339)" fill="#fff"/>
      <path id="Path_506" data-name="Path 506" d="M331.081,132.765a3.612,3.612,0,0,0,7.222.208Z" transform="translate(-35.757 -14.339)" fill="none" stroke="#222221" stroke-width="0.5"/>
      <path id="Path_507" data-name="Path 507" d="M297.76,208.655q-1.6,12.224-3.371,24.425c2.168-.037,4.292,1.163,6.395,1.639,2.623.592,5.272,1.074,7.931,1.47a138.649,138.649,0,0,0,16.634,1.4c2.717.074,32.539-1.011,32.464-1.514a95.241,95.241,0,0,1-1.322-10.56l-.883-23.79c-.518-13.956,3.189-27.466,2.672-41.423-.057-1.525-4.339-3.5-4.395-5.023a11.36,11.36,0,0,0-4.622-8.834,5.357,5.357,0,0,0-1.229-.8,6.231,6.231,0,0,0-2.279-.36c-1.937-.062-4.077-.281-6.014-.343a3.277,3.277,0,0,1-1.592-.508,9.361,9.361,0,0,1-3.429,7.347c-3.087,2.28-7.378.878-9.855-1.661a9.079,9.079,0,0,1-1.62-2.262,7.163,7.163,0,0,1-.958-2.6c-9.177,2.507-20.217,2.7-29.665,2.2-4.532-.241-10.879-.782-13.814-4.245-6.134-7.239-4.077-26.706-3.234-35.346a103.888,103.888,0,0,1-17.341-.811c-2.107,12.74-4.331,30-2.963,42.836,2.09,19.619,31.242,24.489,46.671,22.41a49.442,49.442,0,0,1-.562,9.337c-.365,3.06-.949,6.09-1.333,9.148q-1.12,8.938-2.285,17.869" transform="translate(-27.524 -11.562)" fill="#f65e59"/>
      <path id="Path_508" data-name="Path 508" d="M297.76,208.655q-1.6,12.224-3.371,24.425c2.168-.037,4.292,1.163,6.395,1.639,2.623.592,5.272,1.074,7.931,1.47a138.649,138.649,0,0,0,16.634,1.4c2.717.074,32.539-1.011,32.464-1.514a95.241,95.241,0,0,1-1.322-10.56l-.883-23.79c-.518-13.956,3.189-27.466,2.672-41.423-.057-1.525-4.339-3.5-4.395-5.023a11.36,11.36,0,0,0-4.622-8.834,5.357,5.357,0,0,0-1.229-.8,6.231,6.231,0,0,0-2.279-.36c-1.937-.062-4.077-.281-6.014-.343a3.277,3.277,0,0,1-1.592-.508,9.361,9.361,0,0,1-3.429,7.347c-3.087,2.28-7.378.878-9.855-1.661a9.079,9.079,0,0,1-1.62-2.262,7.163,7.163,0,0,1-.958-2.6c-9.177,2.507-20.217,2.7-29.665,2.2-4.532-.241-10.879-.782-13.814-4.245-6.134-7.239-4.077-26.706-3.234-35.346a103.888,103.888,0,0,1-17.341-.811c-2.107,12.74-4.331,30-2.963,42.836,2.09,19.619,31.242,24.489,46.671,22.41a49.442,49.442,0,0,1-.562,9.337c-.365,3.06-.949,6.09-1.333,9.148Q298.926,199.723,297.76,208.655Z" transform="translate(-27.524 -11.562)" fill="none" stroke="#000" stroke-width="0.5"/>
      <path id="Path_509" data-name="Path 509" d="M347.107,446.461l.019.119a1.186,1.186,0,0,0,.386.838,1.211,1.211,0,0,0,.641.15c8.7.378,17.271.732,25.975.978,1.97.055,10.276.071,10.822-2.746a1.989,1.989,0,0,0-.734-1.795,5.742,5.742,0,0,0-1.786-.942c-3.927-1.5-8.389-2.392-12.132-4.263-1.386-.692-2.7-1.674-4.1-2.407-.748-.392-3.822-2.775-4.509-2.622-4.284.949-9.165,1.65-13.528.922a24.888,24.888,0,0,0-1.053,11.768" transform="translate(-37.457 -46.846)" fill="#161111"/>
      <path id="Path_510" data-name="Path 510" d="M367.533,219.033c-3.567,1.522-7.609,1.409-11.443,1.8a1.819,1.819,0,0,0-1.192.685,1.074,1.074,0,0,0-.152,1.06c.034.1.331.776.512.631a1.812,1.812,0,0,0-.732,1.489,1.172,1.172,0,0,0,1.112,1.1.6.6,0,0,0-.07.722,1.4,1.4,0,0,0,.579.51,4.581,4.581,0,0,0,1.9.566c-1.015.024-.123,1.339.267,1.571a7.854,7.854,0,0,0,3.053.6,20.3,20.3,0,0,0,6.739-.486c3.415-.838,6.556-2.551,9.939-3.51a32.258,32.258,0,0,1,4.948-.943,16.311,16.311,0,0,0,4.059-.609c2.464-.974,5.1-1.4,6.959-3.485,1.7-1.9,2.188-5.057.508-6.975a5.752,5.752,0,0,0-5.329-1.5c-.163.029-.326.062-.485.1a27.158,27.158,0,0,0-5.723,2.562c-3.971,2-8.784,2.644-13.182,2.659" transform="translate(-38.288 -22.912)" fill="#fff"/>
      <path id="Path_511" data-name="Path 511" d="M367.533,219.033c-3.567,1.522-7.609,1.409-11.443,1.8a1.819,1.819,0,0,0-1.192.685,1.074,1.074,0,0,0-.152,1.06c.034.1.331.776.512.631a1.812,1.812,0,0,0-.732,1.489,1.172,1.172,0,0,0,1.112,1.1.6.6,0,0,0-.07.722,1.4,1.4,0,0,0,.579.51,4.581,4.581,0,0,0,1.9.566c-1.015.024-.123,1.339.267,1.571a7.854,7.854,0,0,0,3.053.6,20.3,20.3,0,0,0,6.739-.486c3.415-.838,6.556-2.551,9.939-3.51a32.258,32.258,0,0,1,4.948-.943,16.311,16.311,0,0,0,4.059-.609c2.464-.974,5.1-1.4,6.959-3.485,1.7-1.9,2.188-5.057.508-6.975a5.752,5.752,0,0,0-5.329-1.5c-.163.029-.326.062-.485.1a27.158,27.158,0,0,0-5.723,2.562c-3.971,2-8.784,2.644-13.182,2.659" transform="translate(-38.288 -22.912)" fill="none" stroke="#222221" stroke-width="0.5"/>
      <path id="Path_512" data-name="Path 512" d="M359.164,172.826c5.314.616,20.792,4,26.963,8.866,4.073,3.209,7,8.505,5.7,13.525a13.32,13.32,0,0,1-6.368,7.766,36.577,36.577,0,0,1-9.643,3.533,46.134,46.134,0,0,1,3.2,16.367c.005.54,14.111-3.334,15.333-3.819a41.841,41.841,0,0,0,11.773-7.3,25.209,25.209,0,0,0,8.666-23.678c-2.912-17.371-19.94-29.143-36.09-34.3-9.234-2.952-18.984-3.944-28.672-4.252" transform="translate(-37.802 -16.15)" fill="#f65e59"/>
      <path id="Path_513" data-name="Path 513" d="M359.164,172.826c5.314.616,20.792,4,26.963,8.866,4.073,3.209,7,8.505,5.7,13.525a13.32,13.32,0,0,1-6.368,7.766,36.577,36.577,0,0,1-9.643,3.533,46.134,46.134,0,0,1,3.2,16.367c.005.54,14.111-3.334,15.333-3.819a41.841,41.841,0,0,0,11.773-7.3,25.209,25.209,0,0,0,8.666-23.678c-2.912-17.371-19.94-29.143-36.09-34.3-9.234-2.952-18.984-3.944-28.672-4.252" transform="translate(-37.802 -16.15)" fill="none" stroke="#000" stroke-width="0.5"/>
      <path id="Path_514" data-name="Path 514" d="M358,229.3a27.7,27.7,0,0,0,9.109-.795" transform="translate(-38.664 -24.679)" fill="#fff"/>
      <path id="Path_515" data-name="Path 515" d="M358,229.3a27.7,27.7,0,0,0,9.109-.795" transform="translate(-38.664 -24.679)" fill="none" stroke="#222221" stroke-width="0.5"/>
      <path id="Path_516" data-name="Path 516" d="M355.773,227.26a40.839,40.839,0,0,0,10.641-1.552" transform="translate(-38.423 -24.376)" fill="#fff"/>
      <path id="Path_517" data-name="Path 517" d="M355.773,227.26a40.839,40.839,0,0,0,10.641-1.552" transform="translate(-38.423 -24.376)" fill="none" stroke="#222221" stroke-width="0.5"/>
      <path id="Path_518" data-name="Path 518" d="M355.347,224.347a47.067,47.067,0,0,0,11.224-1.657" transform="translate(-38.377 -24.051)" fill="#fff"/>
      <path id="Path_519" data-name="Path 519" d="M355.347,224.347a47.067,47.067,0,0,0,11.224-1.657" transform="translate(-38.377 -24.051)" fill="none" stroke="#222221" stroke-width="0.5"/>
      <path id="Path_520" data-name="Path 520" d="M333.98,287.991c-.2-9.527-.454-19.215-1.548-29.5" transform="translate(-35.903 -27.917)" fill="none" stroke="#131834" stroke-width="0.5"/>
    </g>
  </g>
  <g id="Group_116" data-name="Group 116" transform="translate(312.217 133.384)">
    <g id="Group_115" data-name="Group 115" clip-path="url(#clip-path-14)">
      <path id="Path_521" data-name="Path 521" d="M415.995,198.74a5.23,5.23,0,0,0,3.7,4.571c2.135.552,4.395-.5,6.029-1.986a7.475,7.475,0,0,0,2.2-3.175c2.481-7.784-12.766-8.96-11.925.59" transform="translate(-357.141 -154.114)" fill="#161111"/>
    </g>
  </g>
  <g id="Group_118" data-name="Group 118" transform="translate(227.373 94.799)">
    <g id="Group_117" data-name="Group 117" clip-path="url(#clip-path-15)">
      <path id="Path_523" data-name="Path 523" d="M259.9,155.917a6.052,6.052,0,0,1,4.976,4.574,5.577,5.577,0,0,1-2.894,6.019,6.834,6.834,0,0,1-2.531.61,6.7,6.7,0,0,1-5.014-1.537c-4.262-3.984.417-10.389,5.464-9.667" transform="translate(-254.672 -111.632)" fill="#161111"/>
    </g>
  </g>
  <g id="Group_120" data-name="Group 120">
    <g id="Group_119" data-name="Group 119" clip-path="url(#clip-path)">
      <path id="Path_525" data-name="Path 525" d="M343.629,184.1c-.08,1.477,0,3.4.048,4.879.128,4.024,2.563,8.966,7.523,8.124a4.911,4.911,0,0,0,3.213-2.358,11.157,11.157,0,0,0,1.32-3.866c.422-2.259.4-4.535.658-6.8-1.194.072-12.755-.128-12.763.017" transform="translate(-37.108 -19.877)" fill="#161111"/>
      <path id="Path_526" data-name="Path 526" d="M332.9,281.088c-.451,2.571-.827,5.166-1.154,7.755-.342,2.711-.454,5.445-.784,8.159-.136,1.115-.266,2.23-.375,3.349-.013.794-.023,1.59-.021,2.386.678.052,1.036-3.318,1.269-3.984.426-1.218.532-2.68.907-3.914.278-.986.752-3.82,1.041-4.8-.272-3.633-.115-8.511-.287-12.624-.167,1.228-.381,2.451-.595,3.675" transform="translate(-35.7 -29.961)" fill="#161111"/>
      <path id="Path_527" data-name="Path 527" d="M307.842,180.872q.116-2.657.234-5.314" transform="translate(-33.247 -18.96)" fill="#f65e59"/>
      <path id="Path_528" data-name="Path 528" d="M307.842,180.872q.116-2.657.234-5.314" transform="translate(-33.247 -18.96)" fill="none" stroke="#000" stroke-width="0.5"/>
      <line id="Line_40" data-name="Line 40" x2="367.663" transform="translate(36.382 401.163)" fill="none" stroke="#000" stroke-width="0.5"/>
    </g>
  </g>
</svg>
