<svg id="Group_156" data-name="Group 156" xmlns="http://www.w3.org/2000/svg" xmlns:xlink="http://www.w3.org/1999/xlink" width="551.485" height="406.929" viewBox="0 0 551.485 406.929">
  <defs>
    <clipPath id="clip-path">
      <rect id="Rectangle_5984" data-name="Rectangle 5984" width="551.485" height="406.929" fill="none"/>
    </clipPath>
    <clipPath id="clip-path-2">
      <rect id="Rectangle_5987" data-name="Rectangle 5987" width="393.898" height="285.328" fill="none"/>
    </clipPath>
  </defs>
  <line id="Line_41" data-name="Line 41" x2="428.286" transform="translate(60.765 105.812)" fill="none" stroke="#ded8d5" stroke-width="1.968"/>
  <g id="Group_124" data-name="Group 124">
    <g id="Group_123" data-name="Group 123" clip-path="url(#clip-path)">
      <rect id="Rectangle_5982" data-name="Rectangle 5982" width="428.286" height="264.985" rx="6.521" transform="translate(60.765 77.737)" fill="none" stroke="#ded8d5" stroke-width="1.968"/>
      <path id="Path_529" data-name="Path 529" d="M102.461,106.69a3.918,3.918,0,1,1-3.918-3.918,3.918,3.918,0,0,1,3.918,3.918" transform="translate(-13.469 -14.629)" fill="#ffb1a5"/>
      <path id="Path_530" data-name="Path 530" d="M120.213,106.69a3.918,3.918,0,1,1-3.918-3.918,3.918,3.918,0,0,1,3.918,3.918" transform="translate(-15.996 -14.629)" fill="#ead254"/>
      <path id="Path_531" data-name="Path 531" d="M137.966,106.69a3.917,3.917,0,1,1-3.918-3.918,3.918,3.918,0,0,1,3.918,3.918" transform="translate(-18.524 -14.629)" fill="#00857b"/>
      <path id="Path_532" data-name="Path 532" d="M101.878,309H5.884a4.9,4.9,0,0,1-4.9-4.9V220.41a4.9,4.9,0,0,1,4.9-4.9h95.994a4.9,4.9,0,0,1,4.9,4.9V304.1a4.9,4.9,0,0,1-4.9,4.9" transform="translate(-0.14 -30.677)" fill="#ededed"/>
      <rect id="Rectangle_5983" data-name="Rectangle 5983" width="105.793" height="93.494" rx="5.713" transform="translate(0.844 184.833)" fill="none" stroke="#ded8d5" stroke-width="1.968"/>
      <path id="Path_533" data-name="Path 533" d="M82.186,293.649H32.4a5.694,5.694,0,0,1-5.694-5.694V239.874A5.694,5.694,0,0,1,32.4,234.18H82.186a5.694,5.694,0,0,1,5.694,5.694v48.081a5.694,5.694,0,0,1-5.694,5.694" transform="translate(-3.801 -33.335)" fill="#ffb1a5"/>
      <path id="Path_534" data-name="Path 534" d="M47.71,254.4a17.3,17.3,0,1,0,24.459,0,17.365,17.365,0,0,0-24.459,0m24.42,2.491H66.617a34.827,34.827,0,0,0-2.142-5.194,15.624,15.624,0,0,1,7.655,5.194M53.588,265.62a27.931,27.931,0,0,1,.82-6.705H65.472a28.06,28.06,0,0,1,.819,6.705Zm12.635,2.023a32.959,32.959,0,0,1-1.19,6.705H54.845a32.827,32.827,0,0,1-1.188-6.705ZM59.94,251.028a15.727,15.727,0,0,1,2.443.19,31.863,31.863,0,0,1,2.507,5.673h-9.9a31.807,31.807,0,0,1,2.508-5.673,15.73,15.73,0,0,1,2.444-.19m-4.535.67a35.016,35.016,0,0,0-2.143,5.194H47.749A15.62,15.62,0,0,1,55.4,251.7m-9.029,7.217h6.313a30.03,30.03,0,0,0-.884,6.705H44.369a15.5,15.5,0,0,1,2.006-6.705m0,15.434a15.506,15.506,0,0,1-2.006-6.705h7.466a32.46,32.46,0,0,0,1.053,6.705Zm1.374,2.022h5.736a41.775,41.775,0,0,0,2.131,5.257,15.613,15.613,0,0,1-7.867-5.257m12.191,5.865A15.769,15.769,0,0,1,57.9,282.1a46.635,46.635,0,0,1-2.419-5.732H64.4a46.768,46.768,0,0,1-2.419,5.732,15.732,15.732,0,0,1-2.043.133m4.322-.607a41.782,41.782,0,0,0,2.132-5.257H72.13a15.615,15.615,0,0,1-7.868,5.257m9.241-7.28H66.99a32.455,32.455,0,0,0,1.055-6.705H75.51a15.511,15.511,0,0,1-2.007,6.705m2.007-8.728H68.075a30.081,30.081,0,0,0-.885-6.705H73.5a15.5,15.5,0,0,1,2.007,6.705" transform="translate(-6.074 -35.496)" fill="#fff"/>
      <path id="Path_535" data-name="Path 535" d="M96.979,61.048H10.015a3.253,3.253,0,1,1,0-6.506H96.979a3.253,3.253,0,1,1,0,6.506" transform="translate(-0.963 -7.764)" fill="#c98bd2"/>
      <path id="Path_536" data-name="Path 536" d="M631.678,308.732h-42.21a3.253,3.253,0,1,1,0-6.506h42.21a3.253,3.253,0,0,1,0,6.506" transform="translate(-83.445 -43.021)" fill="#56dfed"/>
      <path id="Path_537" data-name="Path 537" d="M603.492,352.071h-5.158a2.454,2.454,0,0,1-2.454-2.454v-4.842a2.454,2.454,0,0,1,2.454-2.454h5.158a2.454,2.454,0,0,1,2.454,2.454v4.842a2.454,2.454,0,0,1-2.454,2.454" transform="translate(-84.821 -48.728)" fill="#c98bd2"/>
      <path id="Path_538" data-name="Path 538" d="M33.444,378.349H28.286a2.454,2.454,0,0,1-2.454-2.454v-4.842a2.454,2.454,0,0,1,2.454-2.454h5.158a2.454,2.454,0,0,1,2.454,2.454v4.842a2.454,2.454,0,0,1-2.454,2.454" transform="translate(-3.677 -52.469)" fill="#ffb1a5"/>
      <path id="Path_539" data-name="Path 539" d="M480.307,53.874H394.469a2.583,2.583,0,0,1-2.582-2.583V30.333a2.583,2.583,0,0,1,2.582-2.583h85.837a2.584,2.584,0,0,1,2.583,2.583V51.291a2.584,2.584,0,0,1-2.583,2.583" transform="translate(-55.784 -3.95)" fill="#ffb1a5"/>
      <line id="Line_42" data-name="Line 42" x2="61.046" transform="translate(348.499 33.109)" fill="none" stroke="#fff" stroke-width="1.18"/>
      <line id="Line_43" data-name="Line 43" x2="24.865" transform="translate(348.499 39.374)" fill="none" stroke="#fff" stroke-width="1.18"/>
      <path id="Path_540" data-name="Path 540" d="M403.445,54.764V64.945l12.8-10.181Z" transform="translate(-57.429 -7.795)" fill="#ffb1a5"/>
      <path id="Path_541" data-name="Path 541" d="M240.98,51.478H199.428a7.307,7.307,0,0,1-7.307-7.307V5.54A5.54,5.54,0,0,1,197.661,0H240.98a5.54,5.54,0,0,1,5.54,5.54v40.4a5.54,5.54,0,0,1-5.54,5.54" transform="translate(-27.348)" fill="#56dfed"/>
      <path id="Path_542" data-name="Path 542" d="M234.594,31.438l-3.1-3.1a2.716,2.716,0,0,0-1.991-.941,2.868,2.868,0,0,0-1.991.885l-1.77,1.77-.332-.166a5.186,5.186,0,0,1-.553-.276,19.093,19.093,0,0,1-4.591-4.2,10.052,10.052,0,0,1-1.438-2.268c.443-.387.83-.829,1.217-1.217l.5-.5a2.93,2.93,0,0,0,.94-2.046,2.931,2.931,0,0,0-.94-2.047L219,15.784a4.876,4.876,0,0,1-.5-.553l-1.051-1.051a2.868,2.868,0,0,0-1.991-.885,2.744,2.744,0,0,0-1.991.885l-1.936,1.936a4.452,4.452,0,0,0-1.272,2.711,10.083,10.083,0,0,0,.719,4.2,22.64,22.64,0,0,0,4.315,7.246,26.881,26.881,0,0,0,8.85,6.914,14.685,14.685,0,0,0,4.978,1.493h.388a4.389,4.389,0,0,0,3.318-1.438l.056-.055a8.452,8.452,0,0,1,1-1l.719-.72a2.774,2.774,0,0,0,0-4.038m-1.272,2.877-.664.664c-.387.332-.719.719-1.106,1.106a2.629,2.629,0,0,1-1.991.829h-.276a11.659,11.659,0,0,1-4.315-1.328,25.184,25.184,0,0,1-8.241-6.471,23.984,23.984,0,0,1-4.038-6.693,6.853,6.853,0,0,1-.664-3.43,2.331,2.331,0,0,1,.774-1.6l1.88-1.881a1.163,1.163,0,0,1,.774-.388,1.057,1.057,0,0,1,.774.388l1,1a5.338,5.338,0,0,0,.553.553l1.549,1.549a1.3,1.3,0,0,1,.387.774,1.164,1.164,0,0,1-.387.774l-.5.5-1.383,1.383-.055.056a1.211,1.211,0,0,0-.332,1.383v.056a12.733,12.733,0,0,0,1.825,2.986,20.5,20.5,0,0,0,5.034,4.591,4.538,4.538,0,0,0,.719.388,5.106,5.106,0,0,1,.553.276l.056.056a1.272,1.272,0,0,0,1.549-.277l1.936-1.936a.912.912,0,0,1,1.493,0l3.1,3.1a1.048,1.048,0,0,1,0,1.6" transform="translate(-29.927 -1.892)" fill="#fff"/>
    </g>
  </g>
  <g id="Group_126" data-name="Group 126" transform="translate(100.216 56.701)">
    <g id="Group_125" data-name="Group 125" clip-path="url(#clip-path-2)">
      <path id="Path_543" data-name="Path 543" d="M448.859,286.586l-31.306-4.169.244,3.109-26.766,3.564s-17.253,43.285-2.047,138.481h21.772l7.836-96.528h2.783l7.59,96.528h21.772c15.206-95.2-1.88-140.985-1.88-140.985" transform="translate(-154.694 -96.902)" fill="#8e716c"/>
      <line id="Line_44" data-name="Line 44" x2="22.716" transform="translate(253.944 234.141)" fill="none" stroke="#282828" stroke-linecap="round" stroke-linejoin="round" stroke-width="1.233"/>
      <path id="Path_544" data-name="Path 544" d="M477.876,233.336c-2.678-4.275-17.723-4.124-18.518-4.217-4.067-.477,2.608,31.888,11.069,60.179a9.5,9.5,0,0,0,12.8,6.039l.169-.071a9.511,9.511,0,0,0,5.64-10.524c-4.024-21.348-8.065-46.462-11.162-51.405" transform="translate(-165.43 -89.315)" fill="#ffb1a5"/>
      <path id="Path_545" data-name="Path 545" d="M481.847,246.583l-19.209,7.454-1.8-9.114,19.891-4.962Z" transform="translate(-165.814 -90.859)" fill="#f3978e"/>
      <path id="Path_546" data-name="Path 546" d="M488.123,267.6s-9.1,12.221-8.666,11.659,7.136-19.749,7.136-19.749Z" transform="translate(-168.463 -93.641)" fill="#f3978e"/>
      <path id="Path_547" data-name="Path 547" d="M500.073,249.788,473.99,283.583a9.591,9.591,0,1,0,16.024,10.429l21.711-40.056Z" transform="translate(-167.402 -92.258)" fill="#ffb1a5"/>
      <path id="Path_548" data-name="Path 548" d="M511.368,256.421a10.759,10.759,0,1,1,13.546-6.931,10.759,10.759,0,0,1-13.546,6.931" transform="translate(-171.946 -90.212)" fill="#ffb1a5"/>
      <path id="Path_549" data-name="Path 549" d="M522.608,239.395s2.944-3.058-2.279-5.2-11.681-1.651-15.8,8.36Z" transform="translate(-172.033 -89.891)" fill="#ffb1a5"/>
      <path id="Path_550" data-name="Path 550" d="M529.224,215.511l10.921,4.735a1.126,1.126,0,0,1,.494,1.609l-14.367,26.836a1.374,1.374,0,0,1-1.706.655l-10.921-4.735a1.126,1.126,0,0,1-.494-1.609l14.367-26.836a1.374,1.374,0,0,1,1.706-.655" transform="translate(-173.239 -87.365)" fill="#372f5f"/>
      <path id="Path_551" data-name="Path 551" d="M528.007,214.957l10.921,4.735a1.126,1.126,0,0,1,.494,1.609l-14.367,26.836a1.374,1.374,0,0,1-1.706.655l-10.921-4.735a1.126,1.126,0,0,1-.494-1.609L526.3,215.612a1.374,1.374,0,0,1,1.706-.655" transform="translate(-173.066 -87.286)" fill="#261b43"/>
      <path id="Path_552" data-name="Path 552" d="M527.322,218.157l9.6,4.16-11.709,21.871-9.6-4.16Z" transform="translate(-173.611 -87.755)" fill="#e6e6e6"/>
      <path id="Path_553" data-name="Path 553" d="M536.918,222.317l-21.3,17.711,11.709-21.871Z" transform="translate(-173.611 -87.755)" fill="#fff"/>
      <path id="Path_554" data-name="Path 554" d="M517.84,233.327a17.41,17.41,0,0,1,4.626,1.718,2.455,2.455,0,0,1-.879,4.583l-5.678.716s-2.962,5.106-6.833,5.679l3.551-8.965Z" transform="translate(-172.681 -89.914)" fill="#ffb1a5"/>
      <path id="Path_555" data-name="Path 555" d="M426.547,184.417c-.627,0,40.263,5.658,47.011,52.278l-21.217,3.251-4.278,35.195H388.87l-11.752-65.026s13.114-18.795,37.464-25.7Z" transform="translate(-153.897 -82.952)" fill="#56dfed"/>
      <line id="Line_45" data-name="Line 45" y1="20.356" x2="1.841" transform="translate(298.442 136.638)" fill="none" stroke="#282828" stroke-linecap="round" stroke-linejoin="round" stroke-width="1.233"/>
      <path id="Path_556" data-name="Path 556" d="M435.286,182.506V166.313H416.31V182.7a36.861,36.861,0,0,0-5.1,2.068l14.8,8.816,15.131-8.817a24.687,24.687,0,0,0-5.857-2.257" transform="translate(-158.75 -80.375)" fill="#ffb1a5"/>
      <path id="Path_557" data-name="Path 557" d="M416.951,167.791s3.408,9.05,12.506,8.269c8.361-.719,7.031-13.258,7.031-13.258Z" transform="translate(-159.567 -79.875)" fill="#282828"/>
      <path id="Path_558" data-name="Path 558" d="M406.063,152.7c-2.974,2.7-9.625-7.535-6.751-10.408s5.066,1.635,5.066,1.635l1.283,3.054.968,4.137.23,1.083Z" transform="translate(-156.956 -76.82)" fill="#f3978e"/>
      <path id="Path_559" data-name="Path 559" d="M401.049,146.653s2.251-1.013,4.251,2.251" transform="translate(-157.304 -77.556)" fill="none" stroke="#282828" stroke-linecap="round" stroke-linejoin="round" stroke-width="0.993"/>
      <path id="Path_560" data-name="Path 560" d="M448.189,152.412c2.736,2.94,10.228-6.694,7.607-9.8s-5.186,1.2-5.186,1.2l-1.537,2.935-1.315,4.04-.321,1.06Z" transform="translate(-163.907 -76.841)" fill="#f3978e"/>
      <path id="Path_561" data-name="Path 561" d="M454.478,146.835s-2.158-1.2-4.426,1.883" transform="translate(-164.279 -77.57)" fill="none" stroke="#282828" stroke-linecap="round" stroke-linejoin="round" stroke-width="0.993"/>
      <path id="Path_562" data-name="Path 562" d="M401.218,127.291c0,13.546,10.328,19.97,23.067,19.97s23.068-6.425,23.068-19.97-10.328-22.76-23.068-22.76-23.067,9.215-23.067,22.76" transform="translate(-157.328 -71.581)" fill="#282828"/>
      <path id="Path_563" data-name="Path 563" d="M404.872,128.751a92.655,92.655,0,0,0,2.347,20.585c1.148,4.986,4.38,8.471,8.946,11.276l.832.51a15.7,15.7,0,0,0,15.98.178c4.947-2.884,8.411-6.687,9.477-12.038a135.391,135.391,0,0,0,2.151-20.511s1.845-20.993-19.583-20.585-20.151,20.585-20.151,20.585" transform="translate(-157.846 -72.097)" fill="#ffb1a5"/>
      <path id="Path_564" data-name="Path 564" d="M426.522,146.137v2.9a1.322,1.322,0,0,0,.094.488,1.3,1.3,0,0,0,1.543.714l1.333-.353" transform="translate(-160.93 -77.503)" fill="none" stroke="#282828" stroke-linecap="round" stroke-linejoin="round" stroke-width="1.232"/>
      <path id="Path_565" data-name="Path 565" d="M420.781,132.761l-10.65,2.5s.485-2.71,4.841-3.695,5.809,1.2,5.809,1.2" transform="translate(-158.597 -75.392)" fill="#282828"/>
      <path id="Path_566" data-name="Path 566" d="M433.57,132.761l10.283,2.5s-.467-2.71-4.674-3.695-5.609,1.2-5.609,1.2" transform="translate(-161.933 -75.392)" fill="#282828"/>
      <path id="Path_567" data-name="Path 567" d="M419.33,141.826a1.8,1.8,0,1,1-1.8-1.791,1.794,1.794,0,0,1,1.8,1.791" transform="translate(-159.395 -76.635)" fill="#282828"/>
      <path id="Path_568" data-name="Path 568" d="M439.182,141.826a1.8,1.8,0,1,1-1.8-1.791,1.794,1.794,0,0,1,1.8,1.791" transform="translate(-162.221 -76.635)" fill="#282828"/>
      <path id="Path_569" data-name="Path 569" d="M419.926,154.867h13.849s-6.138,7.468-13.849,0" transform="translate(-159.991 -78.746)" fill="#fff"/>
      <circle id="Ellipse_31" data-name="Ellipse 31" cx="7.637" cy="7.637" r="7.637" transform="translate(248.195 71.566) rotate(-76.717)" fill="none" stroke="#c98bd2" stroke-width="1.342"/>
      <circle id="Ellipse_32" data-name="Ellipse 32" cx="7.637" cy="7.637" r="7.637" transform="translate(266.957 71.566) rotate(-76.717)" fill="none" stroke="#c98bd2" stroke-width="1.342"/>
      <path id="Path_570" data-name="Path 570" d="M425.856,142.81a2.486,2.486,0,0,1,3.487,0" transform="translate(-160.835 -76.923)" fill="none" stroke="#c98bd2" stroke-width="1.342"/>
      <line id="Line_46" data-name="Line 46" x1="2.406" y1="0.061" transform="translate(247.34 65.827)" fill="none" stroke="#c98bd2" stroke-width="1.342"/>
      <line id="Line_47" data-name="Line 47" y1="0.061" x2="2.42" transform="translate(283.783 65.827)" fill="none" stroke="#c98bd2" stroke-width="1.342"/>
      <path id="Path_571" data-name="Path 571" d="M449.738,136.413s-8.567-11.582-6.591-23.315a16.88,16.88,0,0,1,8.015,11.459c1.656,8.26-1.424,11.856-1.424,11.856" transform="translate(-163.254 -72.8)" fill="#282828"/>
      <path id="Path_572" data-name="Path 572" d="M404.659,137.067s9.952-13.155,7.976-24.888a19.6,19.6,0,0,0-8.559,12.247c-1.656,8.26.582,12.641.582,12.641" transform="translate(-157.648 -72.669)" fill="#282828"/>
      <path id="Path_573" data-name="Path 573" d="M443.222,116.875s-11,12.043-41.1,9.981c0,0,4.609-17.672,19.2-19.555,0,0,16.842-2.011,21.9,9.573" transform="translate(-157.457 -71.956)" fill="#282828"/>
      <path id="Path_574" data-name="Path 574" d="M461.128,99.685a14.37,14.37,0,1,1-14.371-14.37,14.371,14.371,0,0,1,14.371,14.37" transform="translate(-161.765 -68.845)" fill="#282828"/>
      <path id="Path_575" data-name="Path 575" d="M233.642,286.132l-26.766-3.564.244-3.109-31.306,4.169s-17.086,45.789-1.88,140.985h21.772l7.59-96.528h2.783l7.836,96.528h21.772c15.206-95.2-2.047-138.481-2.047-138.481" transform="translate(-124.078 -96.481)" fill="#282828"/>
      <path id="Path_576" data-name="Path 576" d="M230.64,130.849a49.352,49.352,0,0,1-8.988-16.21c-2.647-7.49-11.312-4.445-11.312-4.445s-7.221-9.288-18.086-6.053-14.641,10.967-14.862,20.159-7.452,10.631-13.02,21.265c-9.83,18.774,6.72,34.587,36.844,30.2l.041-.292A31.607,31.607,0,0,0,212.3,176.5c36.19-2.148,32.7-28.767,18.343-45.654" transform="translate(-123.21 -71.428)" fill="#282828"/>
      <path id="Path_577" data-name="Path 577" d="M228.162,149.743c2.974,2.7,9.625-7.535,6.751-10.409s-5.066,1.635-5.066,1.635l-1.283,3.054-.968,4.137-.23,1.083Z" transform="translate(-132.581 -76.399)" fill="#f3978e"/>
      <path id="Path_578" data-name="Path 578" d="M233.841,143.694s-2.251-1.013-4.251,2.251" transform="translate(-132.897 -77.134)" fill="none" stroke="#282828" stroke-linecap="round" stroke-linejoin="round" stroke-width="0.993"/>
      <path id="Path_579" data-name="Path 579" d="M185.927,149.454c-2.736,2.94-10.228-6.694-7.607-9.8s5.186,1.2,5.186,1.2l1.537,2.935,1.315,4.04.321,1.06Z" transform="translate(-125.521 -76.42)" fill="#f3978e"/>
      <path id="Path_580" data-name="Path 580" d="M180.382,143.877s2.158-1.2,4.426,1.883" transform="translate(-125.893 -77.149)" fill="none" stroke="#282828" stroke-linecap="round" stroke-linejoin="round" stroke-width="0.993"/>
      <path id="Path_581" data-name="Path 581" d="M226.72,124.333c0,13.546-10.328,19.97-23.067,19.97s-23.068-6.424-23.068-19.97,10.328-22.761,23.068-22.761,23.067,9.215,23.067,22.761" transform="translate(-125.921 -71.16)" fill="#282828"/>
      <rect id="Rectangle_5985" data-name="Rectangle 5985" width="18.976" height="24.573" transform="translate(68.153 83.401)" fill="#ffb1a5"/>
      <path id="Path_582" data-name="Path 582" d="M193.085,161.568s5.282,10.542,11.781,12.188a9.147,9.147,0,0,0,5.264-.3c2.446-.866,5.547-4.513,6.075-8.548l.244-2.305s-11.563,6.3-23.364-1.03" transform="translate(-127.701 -79.7)" fill="#282828"/>
      <path id="Path_583" data-name="Path 583" d="M224.121,125.793a92.652,92.652,0,0,1-2.347,20.585c-1.148,4.986-4.38,8.471-8.946,11.276l-.832.51a15.7,15.7,0,0,1-15.98.178c-4.947-2.884-8.411-6.687-9.477-12.038a135.384,135.384,0,0,1-2.151-20.511s-1.845-20.993,19.584-20.585,20.15,20.585,20.15,20.585" transform="translate(-126.457 -71.676)" fill="#ffb1a5"/>
      <path id="Path_584" data-name="Path 584" d="M205.812,144.5v1.726a1.309,1.309,0,0,0,.093.486,1.3,1.3,0,0,0,1.543.712l1.333-.352" transform="translate(-129.513 -77.271)" fill="none" stroke="#282828" stroke-linecap="round" stroke-linejoin="round" stroke-width="1.23"/>
      <path id="Path_585" data-name="Path 585" d="M211.018,130.975l11.4,2.7s-.519-2.93-5.182-3.994-6.219,1.3-6.219,1.3" transform="translate(-130.254 -75.121)" fill="#282828"/>
      <path id="Path_586" data-name="Path 586" d="M202.123,130.975l-11.547,2.7s.525-2.93,5.248-3.994,6.3,1.3,6.3,1.3" transform="translate(-127.344 -75.121)" fill="#282828"/>
      <path id="Path_587" data-name="Path 587" d="M198.62,139.19a1.8,1.8,0,1,1-1.8-1.786,1.79,1.79,0,0,1,1.8,1.786" transform="translate(-127.977 -76.26)" fill="#282828"/>
      <path id="Path_588" data-name="Path 588" d="M218.472,139.19a1.8,1.8,0,1,1-1.8-1.786,1.791,1.791,0,0,1,1.8,1.786" transform="translate(-130.803 -76.26)" fill="#282828"/>
      <path id="Path_589" data-name="Path 589" d="M197.833,151.395H213.6s-1.112,4.331-8.26,4.331a8.36,8.36,0,0,1-7.5-4.331" transform="translate(-128.377 -78.252)" fill="#fff"/>
      <path id="Path_590" data-name="Path 590" d="M184.4,133.455s8.567-11.582,6.591-23.315a16.88,16.88,0,0,0-8.015,11.459c-1.656,8.259,1.424,11.856,1.424,11.856" transform="translate(-126.192 -72.379)" fill="#282828"/>
      <path id="Path_591" data-name="Path 591" d="M229.371,132.939s-9.952-11.984-7.976-23.718a19.592,19.592,0,0,1,8.559,12.247c1.656,8.259-.582,11.47-.582,11.47" transform="translate(-131.694 -72.248)" fill="#282828"/>
      <path id="Path_592" data-name="Path 592" d="M185.553,113.916s9.83,13.214,39.928,11.153c0,0-3.438-18.843-18.024-20.725,0,0-16.842-2.011-21.9,9.572" transform="translate(-126.629 -71.535)" fill="#282828"/>
      <path id="Path_593" data-name="Path 593" d="M152.2,336.879c-.437.689,25.05-110.9,17.483-109.212-.69.154-13.943,1.384-15.913,5.389-5.71,11.609-9.806,102.976-9.806,102.976Z" transform="translate(-120.708 -89.106)" fill="#ffb1a5"/>
      <path id="Path_594" data-name="Path 594" d="M143.879,353.636S139.771,372.7,155.3,374.782a2.183,2.183,0,0,0,2.349-1.443l.045-.129a2.182,2.182,0,0,0-1.208-2.7c-2.532-1.132-6.46-3.992-4.511-10.489,0,0,2.245-.274,3.484,3.913a1.795,1.795,0,0,0,3.505-.729c-.372-2.933-1.847-9.993-7.508-11.888Z" transform="translate(-120.627 -106.71)" fill="#ffb1a5"/>
      <path id="Path_595" data-name="Path 595" d="M150.055,262.482s14.685,20.681,14.763,20.282,5.135-29.037,5.135-29.037l-17.82-7.719Z" transform="translate(-121.576 -91.719)" fill="#f3978e"/>
      <path id="Path_596" data-name="Path 596" d="M190.487,187.24c.627,0-36.294.658-43.042,47.277l21.218,3.251,4.278,35.2h59.192l11.752-65.027s-8.354-14.089-32.7-20.99Z" transform="translate(-121.204 -83.312)" fill="#00857b"/>
      <path id="Path_597" data-name="Path 597" d="M176.59,192.267s5.218,6.926,26.6,6.926c21.18,0,26.6-7.289,26.6-7.289a91.334,91.334,0,0,0-26.974-9.233,96,96,0,0,0-26.218,9.6" transform="translate(-125.353 -82.704)" fill="#ffb1a5"/>
      <path id="Path_598" data-name="Path 598" d="M261.288,366.063l.051,92.974h45.994l3.535-92.974Z" transform="translate(-137.409 -108.809)" fill="#005683"/>
      <path id="Path_599" data-name="Path 599" d="M369.5,366.063l-.051,92.974H323.455l-3.535-92.974Z" transform="translate(-145.755 -108.809)" fill="#005683"/>
      <rect id="Rectangle_5986" data-name="Rectangle 5986" width="47.556" height="32.301" transform="translate(151.069 257.253)" fill="#005683"/>
      <path id="Path_600" data-name="Path 600" d="M406.486,271.459c2.852,31.505-.156,54.46.675,112.432l-27.452,1.149-4.09-108.512Z" transform="translate(-153.684 -95.342)" fill="#ffb1a5"/>
      <path id="Path_601" data-name="Path 601" d="M379.565,297.473s17-1.557,28.623-9.222l-.306-6.748-28.327,3.859Z" transform="translate(-154.244 -96.772)" fill="#f3978e"/>
      <path id="Path_602" data-name="Path 602" d="M347.768,186.884s54,13.579,63.781,82.119c0,0-26.428,11.457-52.912,6.528l5.958-22.923Z" transform="translate(-149.719 -83.303)" fill="#c98bd2"/>
      <path id="Path_603" data-name="Path 603" d="M156.987,220.113l40.205,47.481-12.3,34.647s-30.558-42.486-44.289-75.323Z" transform="translate(-120.23 -88.033)" fill="#ffb1a5"/>
      <path id="Path_604" data-name="Path 604" d="M156.407,217.467s-14.118,7.976-17.709,5.091c-6.275-5.042-11.462-23.5-11.462-23.5s26.4-9.953,26.153-9.565,3.017,27.972,3.017,27.972" transform="translate(-118.328 -83.673)" fill="#ffb1a5"/>
      <path id="Path_605" data-name="Path 605" d="M160.455,217.834c-.25-1.421,5.235-16.754,7.115-22.5a2.536,2.536,0,0,0-2.008-3.2,2.93,2.93,0,0,0-3.266,1.339l-6.622,11.318Z" transform="translate(-122.376 -84.041)" fill="#ffb1a5"/>
      <path id="Path_606" data-name="Path 606" d="M159.046,198.648,154.5,176.029a2.846,2.846,0,0,0-3.291-2.256,2.451,2.451,0,0,0-2.013,2.72l1.981,16.843Z" transform="translate(-121.451 -81.43)" fill="#ffb1a5"/>
      <path id="Path_607" data-name="Path 607" d="M148.257,190.067l-6.175-16.152a2.833,2.833,0,0,0-3.507-1.727,2.442,2.442,0,0,0-1.615,2.9l4.582,18.664Z" transform="translate(-119.702 -81.192)" fill="#ffb1a5"/>
      <path id="Path_608" data-name="Path 608" d="M140.183,195.683l-7.812-15.87a3.106,3.106,0,0,0-3.965-1.52,2.7,2.7,0,0,0-1.4,3.571l6.227,14.985Z" transform="translate(-118.264 -82.047)" fill="#ffb1a5"/>
      <path id="Path_609" data-name="Path 609" d="M126.186,198.512l-6.13-9.722a2.2,2.2,0,0,1,1.072-2.934,2.508,2.508,0,0,1,3.063.892l8.06,11.182Z" transform="translate(-117.276 -83.127)" fill="#ffb1a5"/>
      <path id="Path_610" data-name="Path 610" d="M157.558,200.8s-9.205-.966-10.151,11.3" transform="translate(-121.199 -85.282)" fill="none" stroke="#282828" stroke-linecap="round" stroke-linejoin="round" stroke-width="1.532"/>
      <path id="Path_611" data-name="Path 611" d="M182.733,285.7s7.562,26.17,22.63,22.69,38.554-35.663,38.554-35.663l-5.257-54.953-42.293,52.054Z" transform="translate(-126.227 -87.701)" fill="#ffb1a5"/>
      <path id="Path_612" data-name="Path 612" d="M213.925,258.834s14.279,21.538,26.46,29.133l7.973-10.064L217.6,254.111Z" transform="translate(-130.667 -92.873)" fill="#f3978e"/>
      <path id="Path_613" data-name="Path 613" d="M276.1,185.5s-41.922,9.45-64.262,58.171c0,0,13.5,20.338,35.136,29.378L261.463,255.3Z" transform="translate(-130.37 -83.106)" fill="#c98bd2"/>
      <path id="Path_614" data-name="Path 614" d="M282.34,184.719a104.987,104.987,0,0,0-26.671,19.54L258.9,346.681H362.1l-.334-141.688s-13.008-12.729-27.106-18.935c-11.975-5.271-40.676-7.31-52.318-1.339" transform="translate(-136.609 -82.477)" fill="#c98bd2"/>
      <path id="Path_615" data-name="Path 615" d="M341.322,261.475h0a14.354,14.354,0,0,1-14.354-14.354V232.767h28.707v14.355A14.354,14.354,0,0,1,341.322,261.475Z" transform="translate(-146.759 -89.835)" fill="none" stroke="#282828" stroke-linecap="round" stroke-linejoin="round" stroke-width="1.397"/>
      <line id="Line_48" data-name="Line 48" y1="46.59" x2="1.339" transform="translate(225.321 146.167)" fill="none" stroke="#282828" stroke-linecap="round" stroke-linejoin="round" stroke-width="1.397"/>
      <line id="Line_49" data-name="Line 49" x1="2.23" y1="40.386" transform="translate(118.415 144.607)" fill="none" stroke="#282828" stroke-linecap="round" stroke-linejoin="round" stroke-width="1.397"/>
      <path id="Path_616" data-name="Path 616" d="M287.382,118.425l-4.3-21.283c-.242-1.733-.914-4.408-.091-6.922,1.363-4.159,6.371-12.145,14.929-8.488l1.851,8.426s-8.889,1.794-12.454,13.422Z" transform="translate(-140.442 -68.203)" fill="#282828"/>
      <path id="Path_617" data-name="Path 617" d="M297.6,87.009c-.156,2.8-2.624,15.032-11.3,19.489,0,0-7.6-16.3,11.3-19.489" transform="translate(-140.755 -69.087)" fill="#282828"/>
      <path id="Path_618" data-name="Path 618" d="M328.045,174.756h0V138.617H294.73v36.139l-9.917,4.521s2.326,14.978,26.924,15.31,27.069-14.573,27.069-14.573Z" transform="translate(-140.758 -76.433)" fill="#ffb1a5"/>
      <path id="Path_619" data-name="Path 619" d="M300.462,80.215s6.114-16.129,24.968-7.555c11.411,5.191,14.608,12.149,15.967,17.079a19.8,19.8,0,0,1,.509,5.751l-4.561,21.417-17.8-29.634-17.229,1.367Z" transform="translate(-142.986 -66.687)" fill="#282828"/>
      <path id="Path_620" data-name="Path 620" d="M343.14,124.288a5.549,5.549,0,0,1,6.878-1.816c4.632,1.757,2.537,13.008-4.412,14.441a5.5,5.5,0,0,1-4.444-1.162s1.709-8.31,1.978-11.463" transform="translate(-148.779 -74.066)" fill="#f3978e"/>
      <path id="Path_621" data-name="Path 621" d="M349.316,127.16s-3.882-1.3-6.636,4.419" transform="translate(-148.995 -74.784)" fill="none" stroke="#282828" stroke-linecap="round" stroke-linejoin="round" stroke-width="1.397"/>
      <path id="Path_622" data-name="Path 622" d="M286.625,124.288a5.549,5.549,0,0,0-6.878-1.816c-4.633,1.757-2.537,13.008,4.412,14.441a5.5,5.5,0,0,0,4.444-1.162s-1.709-8.31-1.978-11.463" transform="translate(-139.684 -74.066)" fill="#f3978e"/>
      <path id="Path_623" data-name="Path 623" d="M281.228,127.16s3.881-1.3,6.635,4.419" transform="translate(-140.248 -74.784)" fill="none" stroke="#282828" stroke-linecap="round" stroke-linejoin="round" stroke-width="1.397"/>
      <path id="Path_624" data-name="Path 624" d="M335.973,108.222c0,6.782-.664,20.971-4.833,29.394-3.915,7.907-10.39,12.162-18.878,12.416s-14.813-3.019-19.88-13.281-4.826-28.4-4.826-28.4,0-24.228,23.946-24.228c25.22,0,24.471,24.1,24.471,24.1" transform="translate(-141.148 -68.675)" fill="#ffb1a5"/>
      <path id="Path_625" data-name="Path 625" d="M296.668,151.384s2.79,14.156,15.11,15.783c14.179,1.871,17.954-15.423,17.954-15.423s-6.265,7.851-16.173,7.863a21.68,21.68,0,0,1-16.891-8.222" transform="translate(-142.445 -78.25)" fill="#282828"/>
      <path id="Path_626" data-name="Path 626" d="M313.791,123.95v5.607a1.826,1.826,0,0,0,.131.683,1.8,1.8,0,0,0,2.153,1l1.859-.495" transform="translate(-144.883 -74.345)" fill="none" stroke="#282828" stroke-linecap="round" stroke-linejoin="round" stroke-width="1.397"/>
      <path id="Path_627" data-name="Path 627" d="M304.821,120.466a2.18,2.18,0,1,1-2.18-2.18,2.18,2.18,0,0,1,2.18,2.18" transform="translate(-142.986 -73.539)" fill="#282828"/>
      <path id="Path_628" data-name="Path 628" d="M328.651,120.466a2.18,2.18,0,1,1-2.18-2.18,2.18,2.18,0,0,1,2.18,2.18" transform="translate(-146.378 -73.539)" fill="#282828"/>
      <path id="Path_629" data-name="Path 629" d="M320.328,107.817l14.656,3.786s-.666-4.111-6.662-5.6-7.994,1.819-7.994,1.819" transform="translate(-145.813 -71.734)" fill="#282828"/>
      <path id="Path_630" data-name="Path 630" d="M307.276,107.817,292.62,111.6s.666-4.111,6.662-5.6,7.994,1.819,7.994,1.819" transform="translate(-141.869 -71.734)" fill="#282828"/>
      <path id="Path_631" data-name="Path 631" d="M306.31,137.075s2.162,1.657,7.848,1.657a19.88,19.88,0,0,0,8.4-1.657" transform="translate(-143.818 -76.213)" fill="none" stroke="#282828" stroke-linecap="round" stroke-linejoin="round" stroke-width="1.397"/>
      <path id="Path_632" data-name="Path 632" d="M310.045,120.033a9.263,9.263,0,1,1-9.263-9.262A9.262,9.262,0,0,1,310.045,120.033Z" transform="translate(-141.713 -72.469)" fill="none" stroke="#fff" stroke-width="1.951"/>
      <path id="Path_633" data-name="Path 633" d="M336.577,120.033a9.263,9.263,0,1,1-9.263-9.262A9.263,9.263,0,0,1,336.577,120.033Z" transform="translate(-145.489 -72.469)" fill="none" stroke="#fff" stroke-width="1.951"/>
      <path id="Path_634" data-name="Path 634" d="M313.12,121.419s2.194-2.046,4.23,0" transform="translate(-144.787 -73.855)" fill="none" stroke="#fff" stroke-width="1.951"/>
      <line id="Line_50" data-name="Line 50" x1="3.106" y1="0.079" transform="translate(146.701 47.485)" fill="none" stroke="#fff" stroke-width="1.951"/>
      <line id="Line_51" data-name="Line 51" y1="0.057" x2="3.467" transform="translate(191.088 47.508)" fill="none" stroke="#fff" stroke-width="1.951"/>
      <path id="Path_635" data-name="Path 635" d="M296.668,86.761s4.449,12.638,24.521,12.25c13.639-.263,16.9,9.607,16.9,9.607s-2.374-22.064-3-21.856-20.754-5.371-20.754-5.371Z" transform="translate(-142.445 -68.287)" fill="#282828"/>
    </g>
  </g>
</svg>
