<svg xmlns="http://www.w3.org/2000/svg" width="24.197" height="24.196" viewBox="0 0 24.197 24.196">
  <path id="Shape_10" data-name="Shape 10" d="M283.274,172.2a1.269,1.269,0,0,1-.791-.327l-3.209-3.207a.949.949,0,0,0-.566-.235h-9.077a.557.557,0,0,1-.557-.557V161.6a.239.239,0,0,0-.239-.239h-6.272a.557.557,0,0,1-.557-.557v-12.24a.557.557,0,0,1,.557-.557h16.013a.557.557,0,0,1,.557.557v6.274a.239.239,0,0,0,.239.239h6.274a.557.557,0,0,1,.557.557v12.243a.557.557,0,0,1-.557.557h-1.562a.239.239,0,0,0-.239.239v2.973a.557.557,0,0,1-.557.557ZM263.82,149.584a.239.239,0,0,0-.239.239v9.729a.239.239,0,0,0,.239.239h5.016a.239.239,0,0,0,.239-.239v-3.917a.557.557,0,0,1,.557-.557h7.688a.239.239,0,0,0,.239-.239v-5.016a.239.239,0,0,0-.239-.239Z" transform="translate(-262.007 -148.008)" fill="#2565af"/>
</svg>
