<svg xmlns="http://www.w3.org/2000/svg" width="24.213" height="24.817" viewBox="0 0 24.213 24.817">
  <path id="tab_icon_contact" d="M471.885,172.812H453.213a1.446,1.446,0,0,1-1.549-1.549v-4.245h-.857a.826.826,0,1,1,0-1.652h.857v-2.493h-.857a.826.826,0,0,1,0-1.652h.857v-2.463H450.8a.839.839,0,0,1,0-1.676h.866v-2.47h-.86a.826.826,0,0,1,0-1.652h.86v-3.37A1.515,1.515,0,0,1,453.249,148h18.637a2.315,2.315,0,0,1,2.3,2.326v20.16A2.314,2.314,0,0,1,471.885,172.812Zm-2.667-7.678a2.08,2.08,0,0,0-1.126-1.756c-.191-.1-.382-.207-.581-.3-.346-.15-1.815-.77-1.815-.77a.81.81,0,0,1-.528-.739,4.56,4.56,0,0,1,.017-.62,1.067,1.067,0,0,1,.254-.606,1.469,1.469,0,0,0,.322-.671c.021-.109.035-.221.05-.332s.029-.228.052-.342a.373.373,0,0,1,.1-.184,1.168,1.168,0,0,0,.356-.587,4.983,4.983,0,0,0,.089-.534c.039-.329-.032-.462-.31-.543,0-.1-.006-.2-.008-.3a5.728,5.728,0,0,0-.053-.773,2.05,2.05,0,0,0-1.508-1.772,2.98,2.98,0,0,0-.861-.123,3.843,3.843,0,0,0-.542.04,2.1,2.1,0,0,0-1.816,1.5,3.782,3.782,0,0,0-.131,1.3l-.025.089a.587.587,0,0,0-.294.577,1.3,1.3,0,0,0,.349,1,.7.7,0,0,1,.227.524,1.92,1.92,0,0,0,.413,1.167,1.178,1.178,0,0,1,.2.386,2.039,2.039,0,0,1,.021.981.744.744,0,0,1-.5.556l-.612.266c-.441.191-.883.382-1.322.581a3.1,3.1,0,0,0-1,.62,2.291,2.291,0,0,0-.577,1.872.321.321,0,0,0,.292.3,2.1,2.1,0,0,0,.31.026h9.953a2.315,2.315,0,0,0,.259-.015.345.345,0,0,0,.358-.382,3.667,3.667,0,0,0-.011-.441Z" transform="translate(-449.977 -147.998)" fill="#2565af"/>
</svg>
