<svg id="Group_154" data-name="Group 154" xmlns="http://www.w3.org/2000/svg" xmlns:xlink="http://www.w3.org/1999/xlink" width="678.018" height="344.777" viewBox="0 0 678.018 344.777">
  <defs>
    <clipPath id="clip-path">
      <rect id="Rectangle_6022" data-name="Rectangle 6022" width="678.018" height="344.777" fill="none"/>
    </clipPath>
    <clipPath id="clip-path-2">
      <rect id="Rectangle_5995" data-name="Rectangle 5995" width="678.017" height="344.778" fill="none"/>
    </clipPath>
    <clipPath id="clip-path-3">
      <path id="Path_822" data-name="Path 822" d="M2110.521,468.9l-1.237.443a3.707,3.707,0,0,0-2.235,4.727l2.157,6.02a3.707,3.707,0,0,0,4.726,2.233l1.237-.443a3.707,3.707,0,0,0,2.234-4.727l-2.157-6.02a3.712,3.712,0,0,0-3.49-2.448,3.666,3.666,0,0,0-1.237.215" transform="translate(-2106.834 -468.684)" fill="none"/>
    </clipPath>
    <clipPath id="clip-path-5">
      <path id="Rectangle_6019" data-name="Rectangle 6019" d="M4.128,0h0A4.127,4.127,0,0,1,8.256,4.127V8.879a4.128,4.128,0,0,1-4.128,4.128h0A4.128,4.128,0,0,1,0,8.879V4.128A4.128,4.128,0,0,1,4.128,0Z" fill="none"/>
    </clipPath>
    <clipPath id="clip-path-7">
      <rect id="Rectangle_6020" data-name="Rectangle 6020" width="114.626" height="114.626" fill="none"/>
    </clipPath>
  </defs>
  <g id="Group_153" data-name="Group 153" clip-path="url(#clip-path)">
    <g id="Group_141" data-name="Group 141" transform="translate(0 -0.001)">
      <g id="Group_140" data-name="Group 140" clip-path="url(#clip-path-2)">
        <path id="Path_689" data-name="Path 689" d="M369.628,892.611s-21.947-60.086-42.347-51.533,30.525,46.844,38.164,69.308Z" transform="translate(-238.33 -620.957)" fill="#9ea03d"/>
        <path id="Path_690" data-name="Path 690" d="M260.378,886.322s-56.685-74.241-79.676-54.308,60,48.122,79.619,74.2Z" transform="translate(-130.594 -612.362)" fill="#c4c461"/>
        <path id="Path_691" data-name="Path 691" d="M119.038,952.331s-29.979-41.721-77.9-34.3-55.448,64.3-14.8,71.816,77.73-24.384,92.555-14.415.14-23.1.14-23.1" transform="translate(0 -677.791)" fill="#dde298"/>
        <path id="Path_692" data-name="Path 692" d="M58.357,1035a.458.458,0,0,1-.288-.738c.07-.088,7.175-8.87,21.65-15.064a78.6,78.6,0,0,1,27.748-6.1c12.388-.518,25.727,1.531,39.648,6.088a.458.458,0,1,1-.285.871c-13.8-4.518-27.019-6.553-39.286-6.045a77.712,77.712,0,0,0-27.415,6.008c-14.282,6.1-21.275,14.727-21.344,14.814a.459.459,0,0,1-.429.167" transform="translate(-42.84 -748.644)" fill="#9ea03d"/>
        <path id="Path_693" data-name="Path 693" d="M2149.365,935.5s37.259-91.434,61.69-80.392-38.542,55.737-48.546,82.7Z" transform="translate(-1588.426 -631.255)" fill="#dde298"/>
        <path id="Path_694" data-name="Path 694" d="M2198.823,986.886s10.166-45.394,52.719-56.219,69.009,33.881,37.813,54.573-73.4,7.275-82.216,20.842-8.316-19.2-8.316-19.2" transform="translate(-1624.972 -686.551)" fill="#c4c461"/>
        <path id="Path_695" data-name="Path 695" d="M2319.677,1031.936a.415.415,0,0,1-.417.013c-.088-.047-8.976-4.754-23.038-4.765a70.377,70.377,0,0,0-24.969,4.726c-10.4,3.931-20.686,10.316-30.58,18.979a.415.415,0,1,1-.546-.624c9.979-8.738,20.363-15.178,30.866-19.143a71.171,71.171,0,0,1,25.28-4.766c14.256.022,23.292,4.816,23.381,4.865a.415.415,0,0,1,.022.717" transform="translate(-1655.396 -758.496)" fill="#9ea03d"/>
        <path id="Path_696" data-name="Path 696" d="M1864.823,560.116a1.575,1.575,0,0,0,.305,1.064l-.14.116c-1.768,1.46-4.082,3.353-6.268,5.137-.046.038-.093.074-.139.113l-.028-.031c-.915-.965-3.695-3.882-5.425-5.554-1.914-1.846-4.04-3.763-3.648-4.479.569-1.033,3.606,1.433,4.344,2.054a.232.232,0,0,0,.314-.011l.075-.073a.161.161,0,0,0,.006-.226c-1.506-1.609-5.114-5.416-3.983-6.279,1.033-.785,4.458,3.1,5.311,4.1a.27.27,0,0,0,.44-.309c-1.148-1.976-3.9-5.755-3.052-6.438,1.09-.882,3.764,3.867,4.333,4.916a.236.236,0,0,0,.315.1.239.239,0,0,0,.114-.3c-.685-1.81-1.94-4.854-1.052-5.22,1.537-.638,3.6,5.585,4.393,6.365,1,.983,1.161-4.394,2.012-4.547,1.542-.279.926,3.605,1.341,5.222a12.929,12.929,0,0,1,.43,4.283" transform="translate(-1366.769 -405.535)" fill="#fff"/>
        <path id="Path_697" data-name="Path 697" d="M1863.2,550.073a.821.821,0,0,0-.69-.158c-.477.089-.7,1-1.016,2.473-.09.419-.2.945-.328,1.378s-.258.77-.391.81c-.036.009-.1-.048-.117-.067a10.946,10.946,0,0,1-1.081-2.011c-1.084-2.291-2.32-4.883-3.51-4.391-.906.374-.218,2.392.776,4.99l.177.462a.059.059,0,0,1-.028.072.057.057,0,0,1-.073-.022c-.789-1.449-2.761-4.848-4.028-5.1a.692.692,0,0,0-.577.132c-.73.591.4,2.508,2.068,5.149.352.559.687,1.086.94,1.522a.086.086,0,0,1-.015.1.076.076,0,0,1-.066.029.078.078,0,0,1-.064-.031c-1.616-1.89-4.483-4.942-5.558-4.125a.712.712,0,0,0-.284.54c-.1,1.2,1.939,3.549,4.161,5.917l.069.074-.061.06a.054.054,0,0,1-.076,0c-.907-.763-3.128-2.523-4.154-2.331a.649.649,0,0,0-.463.327c-.4.733.918,2.054,3.1,4.148.191.184.385.367.573.551,1.743,1.683,4.656,4.742,5.486,5.616.16.166.281.292.289.3a3.311,3.311,0,0,0,.042-.75c-.831-.877-3.817-3.74-5.563-5.426-.192-.186-.386-.37-.578-.556-1.48-1.418-3.324-3.184-3.034-3.705a.268.268,0,0,1,.181-.141.111.111,0,0,1,.031-.005c.712-.134,2.523,1.129,3.854,2.252a.414.414,0,0,0,.557-.017l.075-.073a.347.347,0,0,0,.013-.485l-.085-.09c-1.246-1.328-4.164-4.44-4.062-5.636a.357.357,0,0,1,.142-.282c.572-.438,2.609,1.2,5.063,4.074a.465.465,0,0,0,.332.159.454.454,0,0,0,.4-.68c-.257-.438-.591-.972-.946-1.532-1-1.585-2.681-4.24-2.148-4.67a.321.321,0,0,1,.282-.058c.911.183,2.608,2.764,3.781,4.92a.411.411,0,0,0,.552.17.421.421,0,0,0,.2-.525l-.178-.465c-.528-1.381-1.627-4.253-.973-4.523a.386.386,0,0,1,.054-.02c.879-.228,2.2,2.554,2.99,4.23a10.177,10.177,0,0,0,1.155,2.116.458.458,0,0,0,.475.154c.45-.134.66-1.022.97-2.46.171-.8.454-2.123.719-2.192h.005a.468.468,0,0,1,.4.085c.454.37.5,1.71.539,2.89a11.022,11.022,0,0,0,.2,2.114,12.8,12.8,0,0,1,.423,4.223,1.7,1.7,0,0,0,.048.576,1.778,1.778,0,0,0,.3.62l.141-.116c.049-.039.2.139.247.1a2.157,2.157,0,0,1-.373-1.15,13.125,13.125,0,0,0-.433-4.344,10.64,10.64,0,0,1-.182-2.035c-.049-1.381-.094-2.687-.677-3.162" transform="translate(-1366.253 -405.016)" fill="#31313c"/>
        <path id="Path_698" data-name="Path 698" d="M1884.839,570.882s13.614,32.2,29.264,29.163c11.976-2.323,17.661-37.042,17.661-37.042l-12.99-8.257L1907.7,580.335l-17.84-15.793Z" transform="translate(-1392.936 -409.968)" fill="#fff"/>
        <path id="Path_699" data-name="Path 699" d="M1911.372,599.8c-5.927,0-12.324-4.7-18.642-13.742a98.2,98.2,0,0,1-8.788-15.764.239.239,0,1,1,.439-.188c.136.32,13.712,31.986,29,29.021,11.271-2.187,17.007-34.156,17.444-36.689l-12.619-8.022-10.968,25.332a.238.238,0,0,1-.377.084l-15.9-14.081a2.251,2.251,0,0,1-.619-.9l-.157-.423,16.75,14.829,10.948-25.286a.239.239,0,0,1,.149-.134.237.237,0,0,1,.2.027l12.989,8.257a.24.24,0,0,1,.108.242,136.624,136.624,0,0,1-4.348,17.685c-3.9,11.993-8.445,18.572-13.5,19.553a11.023,11.023,0,0,1-2.1.2" transform="translate(-1392.258 -409.288)" fill="#31313c"/>
        <path id="Path_700" data-name="Path 700" d="M1984.644,1240.044v5.931c-.291-.015-.583-.025-.878-.025-7.423,0-13.44,4.832-13.44,10.793h26.879s4.312-5.315,0-16.7c-1.118-2.95-12.561,0-12.561,0" transform="translate(-1456.112 -915.448)" fill="#79aac8"/>
        <path id="Path_701" data-name="Path 701" d="M2030.692,1270.788a.2.2,0,0,0,.184-.289,8.319,8.319,0,0,0-3.914-4.117,6.632,6.632,0,0,0-2.339-.68.2.2,0,0,0-.021.406,7.491,7.491,0,0,1,5.9,4.562.2.2,0,0,0,.185.118" transform="translate(-1496.081 -935.379)" fill="#eaeef1"/>
        <path id="Path_702" data-name="Path 702" d="M2193.757,1239.884v5.931c.291-.015.583-.025.878-.025,7.423,0,13.44,4.832,13.44,10.792H2181.2s-2.842-4.234,0-16.7c.7-3.077,12.562,0,12.562,0" transform="translate(-1611.016 -915.289)" fill="#79aac8"/>
        <path id="Path_703" data-name="Path 703" d="M2209.037,1270.786a.2.2,0,0,0,.184-.118,7.47,7.47,0,0,1,5.9-4.562.2.2,0,0,0,.193-.213.2.2,0,0,0-.213-.193,6.632,6.632,0,0,0-2.339.68,8.322,8.322,0,0,0-3.914,4.117.2.2,0,0,0,.184.289" transform="translate(-1632.375 -935.377)" fill="#eaeef1"/>
        <path id="Path_704" data-name="Path 704" d="M2014.182,751.467s-4.916,52.244-1.466,131.069h22.427s2.922-65.984,7.638-90.423l10.6,90.423h24.084c-2.877-76.841-9.647-126.9-9.647-126.9Z" transform="translate(-1486.532 -555.349)" fill="#31313c"/>
        <path id="Path_705" data-name="Path 705" d="M2015.59,817.079c.133,0,13.283-.139,14.426-12.136l-.5-.048c-1.1,11.544-13.794,11.677-13.922,11.677Z" transform="translate(-1489.563 -594.833)" fill="#fff"/>
        <path id="Path_706" data-name="Path 706" d="M2195.253,816.847l-.071-.627c-9.022-.523-13.982-10.216-14.032-10.314l-.482.308c.052.1,5.257,10.092,14.586,10.633" transform="translate(-1611.559 -595.58)" fill="#fff"/>
        <path id="Path_707" data-name="Path 707" d="M2046.07,522.365c-11.581-.933-23.06,5.389-24.862,17.726-5.032,34.459-6.3,53.481-6.3,53.481s18.464,12.869,56.714.916c0,0,7.345-69.472-25.554-72.122" transform="translate(-1489.061 -385.971)" fill="#ffd26d"/>
        <path id="Path_708" data-name="Path 708" d="M2007.024,517.379s34.844-30.737,70.043,1.611c0,0-3.675,7.714-14.765,14.4l-17.743-13.374-21.439.148-7.763,15.423s-8.7-5.4-8.333-18.208" transform="translate(-1483.225 -372.601)" fill="#ffd26d"/>
        <path id="Path_709" data-name="Path 709" d="M2115.171,481.879l-1.237.443a3.708,3.708,0,0,1-4.726-2.233l-2.157-6.019a3.708,3.708,0,0,1,2.234-4.728l1.237-.443a3.708,3.708,0,0,1,4.726,2.233l2.157,6.02a3.708,3.708,0,0,1-2.234,4.728" transform="translate(-1556.995 -346.366)" fill="#fff"/>
      </g>
    </g>
    <g id="Group_143" data-name="Group 143" transform="translate(549.84 122.317)">
      <g id="Group_142" data-name="Group 142" clip-path="url(#clip-path-3)">
        <path id="Path_710" data-name="Path 710" d="M2115.321,506.091a.17.17,0,1,0-.175-.165.17.17,0,0,0,.175.165" transform="translate(-2112.977 -496.077)" fill="#ffd578"/>
        <path id="Path_711" data-name="Path 711" d="M2113.434,503.046a.17.17,0,1,0-.175-.166.17.17,0,0,0,.175.166" transform="translate(-2111.582 -493.827)" fill="#ffd578"/>
        <path id="Path_712" data-name="Path 712" d="M2117.061,503.6a.17.17,0,1,0-.175-.166.171.171,0,0,0,.175.166" transform="translate(-2114.262 -494.237)" fill="#ffd578"/>
        <path id="Path_713" data-name="Path 713" d="M2110.763,506.215a.17.17,0,1,0-.175-.166.17.17,0,0,0,.175.166" transform="translate(-2109.608 -496.169)" fill="#ffd578"/>
        <path id="Path_714" data-name="Path 714" d="M2116.3,499.538a.17.17,0,1,0-.175-.166.17.17,0,0,0,.175.166" transform="translate(-2113.699 -491.234)" fill="#ffd578"/>
        <path id="Path_715" data-name="Path 715" d="M2109.808,502.492a.17.17,0,1,0-.175-.166.17.17,0,0,0,.175.166" transform="translate(-2108.903 -493.417)" fill="#ffd578"/>
        <path id="Path_716" data-name="Path 716" d="M2111.779,498.354a.17.17,0,1,0-.175-.166.17.17,0,0,0,.175.166" transform="translate(-2110.359 -490.359)" fill="#ffd578"/>
        <path id="Path_717" data-name="Path 717" d="M2119.334,496.843a.17.17,0,1,0-.175-.165.17.17,0,0,0,.175.165" transform="translate(-2115.942 -489.243)" fill="#ffd578"/>
        <path id="Path_718" data-name="Path 718" d="M2117.448,493.8a.17.17,0,1,0-.175-.166.17.17,0,0,0,.175.166" transform="translate(-2114.549 -486.992)" fill="#ffd578"/>
        <path id="Path_719" data-name="Path 719" d="M2121.075,494.353a.17.17,0,1,0-.175-.166.17.17,0,0,0,.175.166" transform="translate(-2117.229 -487.402)" fill="#ffd578"/>
        <path id="Path_720" data-name="Path 720" d="M2114.776,496.967a.17.17,0,1,0-.175-.166.17.17,0,0,0,.175.166" transform="translate(-2112.574 -489.334)" fill="#ffd578"/>
        <path id="Path_721" data-name="Path 721" d="M2120.311,490.29a.17.17,0,1,0-.175-.166.17.17,0,0,0,.175.166" transform="translate(-2116.664 -484.4)" fill="#ffd578"/>
        <path id="Path_722" data-name="Path 722" d="M2113.821,493.244a.17.17,0,1,0-.175-.166.171.171,0,0,0,.175.166" transform="translate(-2111.868 -486.583)" fill="#ffd578"/>
        <path id="Path_723" data-name="Path 723" d="M2115.793,489.106a.17.17,0,1,0-.175-.166.171.171,0,0,0,.175.166" transform="translate(-2113.325 -483.525)" fill="#ffd578"/>
        <path id="Path_724" data-name="Path 724" d="M2108.878,497.3a.17.17,0,1,0-.175-.166.171.171,0,0,0,.175.166" transform="translate(-2108.215 -489.577)" fill="#ffd578"/>
        <path id="Path_725" data-name="Path 725" d="M2106.991,494.249a.17.17,0,1,0-.175-.166.171.171,0,0,0,.175.166" transform="translate(-2106.821 -487.326)" fill="#ffd578"/>
        <path id="Path_726" data-name="Path 726" d="M2110.618,494.8a.17.17,0,1,0-.175-.166.171.171,0,0,0,.175.166" transform="translate(-2109.501 -487.736)" fill="#ffd578"/>
        <path id="Path_727" data-name="Path 727" d="M2104.32,497.418a.17.17,0,1,0-.175-.166.17.17,0,0,0,.175.166" transform="translate(-2104.847 -489.668)" fill="#ffd578"/>
        <path id="Path_728" data-name="Path 728" d="M2109.855,490.741a.17.17,0,1,0-.175-.166.17.17,0,0,0,.175.166" transform="translate(-2108.937 -484.733)" fill="#ffd578"/>
        <path id="Path_729" data-name="Path 729" d="M2104.4,489.583a.17.17,0,1,0-.175-.166.17.17,0,0,0,.175.166" transform="translate(-2104.909 -483.877)" fill="#ffd578"/>
        <path id="Path_730" data-name="Path 730" d="M2108.111,487.357a.17.17,0,1,0-.175-.166.17.17,0,0,0,.175.166" transform="translate(-2107.648 -482.232)" fill="#ffd578"/>
        <path id="Path_731" data-name="Path 731" d="M2105.553,507.83a.17.17,0,1,0-.175-.166.17.17,0,0,0,.175.166" transform="translate(-2105.758 -497.362)" fill="#ffd578"/>
        <path id="Path_732" data-name="Path 732" d="M2103.666,504.784a.17.17,0,1,0-.175-.165.17.17,0,0,0,.175.165" transform="translate(-2104.363 -495.111)" fill="#ffd578"/>
        <path id="Path_733" data-name="Path 733" d="M2107.293,505.339a.17.17,0,1,0-.175-.166.171.171,0,0,0,.175.166" transform="translate(-2107.044 -495.521)" fill="#ffd578"/>
        <path id="Path_734" data-name="Path 734" d="M2100.995,507.953a.17.17,0,1,0-.175-.166.171.171,0,0,0,.175.166" transform="translate(-2102.389 -497.453)" fill="#ffd578"/>
        <path id="Path_735" data-name="Path 735" d="M2106.529,501.276a.17.17,0,1,0-.175-.166.17.17,0,0,0,.175.166" transform="translate(-2106.479 -492.519)" fill="#ffd578"/>
        <path id="Path_736" data-name="Path 736" d="M2100.475,496.218a.17.17,0,1,0-.175-.166.17.17,0,0,0,.175.166" transform="translate(-2102.005 -488.781)" fill="#ffd578"/>
        <path id="Path_737" data-name="Path 737" d="M2102.011,500.093a.17.17,0,1,0-.175-.165.17.17,0,0,0,.175.165" transform="translate(-2103.14 -491.644)" fill="#ffd578"/>
        <path id="Path_738" data-name="Path 738" d="M2125.26,504.684a.17.17,0,1,0-.175-.166.171.171,0,0,0,.175.166" transform="translate(-2120.322 -495.037)" fill="#ffd578"/>
        <path id="Path_739" data-name="Path 739" d="M2123.373,501.639a.17.17,0,1,0-.175-.166.17.17,0,0,0,.175.166" transform="translate(-2118.927 -492.787)" fill="#ffd578"/>
        <path id="Path_740" data-name="Path 740" d="M2129.317,502.615a.17.17,0,1,0-.175-.166.17.17,0,0,0,.175.166" transform="translate(-2123.32 -493.508)" fill="#ffd578"/>
        <path id="Path_741" data-name="Path 741" d="M2120.7,504.808a.17.17,0,1,0-.175-.166.17.17,0,0,0,.175.166" transform="translate(-2116.953 -495.129)" fill="#ffd578"/>
        <path id="Path_742" data-name="Path 742" d="M2126.237,498.13a.17.17,0,1,0-.175-.166.17.17,0,0,0,.175.166" transform="translate(-2121.044 -490.194)" fill="#ffd578"/>
        <path id="Path_743" data-name="Path 743" d="M2119.747,501.084a.17.17,0,1,0-.175-.166.17.17,0,0,0,.175.166" transform="translate(-2116.248 -492.377)" fill="#ffd578"/>
        <path id="Path_744" data-name="Path 744" d="M2121.718,496.947a.17.17,0,1,0-.175-.166.171.171,0,0,0,.175.166" transform="translate(-2117.704 -489.32)" fill="#ffd578"/>
        <path id="Path_745" data-name="Path 745" d="M2115.411,485.355a.17.17,0,1,0-.175-.166.171.171,0,0,0,.175.166" transform="translate(-2113.043 -480.753)" fill="#ffd578"/>
        <path id="Path_746" data-name="Path 746" d="M2113.524,482.309a.17.17,0,1,0-.175-.165.17.17,0,0,0,.175.165" transform="translate(-2111.649 -478.502)" fill="#ffd578"/>
        <path id="Path_747" data-name="Path 747" d="M2117.151,482.864a.17.17,0,1,0-.175-.166.17.17,0,0,0,.175.166" transform="translate(-2114.329 -478.912)" fill="#ffd578"/>
        <path id="Path_748" data-name="Path 748" d="M2112.387,488.546a.17.17,0,1,0-.175-.166.17.17,0,0,0,.175.166" transform="translate(-2110.809 -483.111)" fill="#ffd578"/>
        <path id="Path_749" data-name="Path 749" d="M2120.663,482.116a.17.17,0,1,0-.175-.166.171.171,0,0,0,.175.166" transform="translate(-2116.924 -478.359)" fill="#ffd578"/>
        <path id="Path_750" data-name="Path 750" d="M2109.9,481.755a.17.17,0,1,0-.175-.166.171.171,0,0,0,.175.166" transform="translate(-2108.969 -478.092)" fill="#ffd578"/>
        <path id="Path_751" data-name="Path 751" d="M2111.87,477.617a.17.17,0,1,0-.175-.165.17.17,0,0,0,.175.165" transform="translate(-2110.426 -475.034)" fill="#ffd578"/>
        <path id="Path_752" data-name="Path 752" d="M2125.646,494.882a.17.17,0,1,0-.175-.166.17.17,0,0,0,.175.166" transform="translate(-2120.608 -487.793)" fill="#ffd578"/>
        <path id="Path_753" data-name="Path 753" d="M2126.641,488.979a.17.17,0,1,0-.175-.166.171.171,0,0,0,.175.166" transform="translate(-2121.343 -483.431)" fill="#ffd578"/>
        <path id="Path_754" data-name="Path 754" d="M2127.121,482.594a.17.17,0,1,0-.175-.166.171.171,0,0,0,.175.166" transform="translate(-2121.697 -478.712)" fill="#ffd578"/>
        <path id="Path_755" data-name="Path 755" d="M2123.969,492.148a.17.17,0,1,0-.175-.166.171.171,0,0,0,.175.166" transform="translate(-2119.368 -485.773)" fill="#ffd578"/>
        <path id="Path_756" data-name="Path 756" d="M2130.334,491.976a.17.17,0,1,0-.176-.166.171.171,0,0,0,.176.166" transform="translate(-2124.072 -485.646)" fill="#ffd578"/>
        <path id="Path_757" data-name="Path 757" d="M2123.015,488.425a.17.17,0,1,0-.175-.166.17.17,0,0,0,.175.166" transform="translate(-2118.663 -483.022)" fill="#ffd578"/>
        <path id="Path_758" data-name="Path 758" d="M2119.051,486.407a.17.17,0,1,0-.175-.166.171.171,0,0,0,.175.166" transform="translate(-2115.733 -481.53)" fill="#ffd578"/>
        <path id="Path_759" data-name="Path 759" d="M2123.07,514.536a.17.17,0,1,0-.175-.166.17.17,0,0,0,.175.166" transform="translate(-2118.703 -502.318)" fill="#ffd578"/>
        <path id="Path_760" data-name="Path 760" d="M2115.058,514.753a.17.17,0,1,0-.175-.166.17.17,0,0,0,.175.166" transform="translate(-2112.782 -502.479)" fill="#ffd578"/>
        <path id="Path_761" data-name="Path 761" d="M2122.685,508.5a.17.17,0,1,0-.175-.166.17.17,0,0,0,.175.166" transform="translate(-2118.419 -497.86)" fill="#ffd578"/>
        <path id="Path_762" data-name="Path 762" d="M2108.077,510.205a.17.17,0,1,0-.175-.165.17.17,0,0,0,.175.165" transform="translate(-2107.623 -499.117)" fill="#ffd578"/>
        <path id="Path_763" data-name="Path 763" d="M2117.921,511.244a.17.17,0,1,0-.175-.166.17.17,0,0,0,.175.166" transform="translate(-2114.898 -499.885)" fill="#ffd578"/>
        <path id="Path_764" data-name="Path 764" d="M2108.206,514.939a.17.17,0,1,0-.175-.166.171.171,0,0,0,.175.166" transform="translate(-2107.719 -502.616)" fill="#ffd578"/>
        <path id="Path_765" data-name="Path 765" d="M2113.4,510.061a.17.17,0,1,0-.175-.166.17.17,0,0,0,.175.166" transform="translate(-2111.559 -499.011)" fill="#ffd578"/>
        <path id="Path_766" data-name="Path 766" d="M2130.2,478.108a.17.17,0,1,0,.054.235.17.17,0,0,0-.054-.235" transform="translate(-2123.908 -475.629)" fill="#ffd578"/>
        <path id="Path_767" data-name="Path 767" d="M2130.081,481.688a.17.17,0,1,0,.053.235.171.171,0,0,0-.053-.235" transform="translate(-2123.821 -478.275)" fill="#ffd578"/>
        <path id="Path_768" data-name="Path 768" d="M2127.37,479.216a.17.17,0,1,0,.054.235.17.17,0,0,0-.054-.235" transform="translate(-2121.818 -476.448)" fill="#ffd578"/>
        <path id="Path_769" data-name="Path 769" d="M2134.062,480.533a.17.17,0,1,0,.054.235.17.17,0,0,0-.054-.235" transform="translate(-2126.763 -477.421)" fill="#ffd578"/>
        <path id="Path_770" data-name="Path 770" d="M2125.752,483.021a.17.17,0,1,0,.054.235.17.17,0,0,0-.054-.235" transform="translate(-2120.622 -479.26)" fill="#ffd578"/>
        <path id="Path_771" data-name="Path 771" d="M2132.791,484.161a.17.17,0,1,0,.054.235.171.171,0,0,0-.054-.235" transform="translate(-2125.824 -480.102)" fill="#ffd578"/>
        <path id="Path_772" data-name="Path 772" d="M2128.856,486.511a.17.17,0,1,0,.054.235.171.171,0,0,0-.054-.235" transform="translate(-2122.916 -481.839)" fill="#ffd578"/>
        <path id="Path_773" data-name="Path 773" d="M2121.731,483.579a.17.17,0,1,0,.054.235.17.17,0,0,0-.054-.235" transform="translate(-2117.65 -479.672)" fill="#ffd578"/>
        <path id="Path_774" data-name="Path 774" d="M2121.613,487.159a.17.17,0,1,0,.053.235.171.171,0,0,0-.053-.235" transform="translate(-2117.563 -482.318)" fill="#ffd578"/>
        <path id="Path_775" data-name="Path 775" d="M2118.9,484.686a.17.17,0,1,0,.054.235.17.17,0,0,0-.054-.235" transform="translate(-2115.56 -480.491)" fill="#ffd578"/>
        <path id="Path_776" data-name="Path 776" d="M2125.593,486a.17.17,0,1,0,.054.235.17.17,0,0,0-.054-.235" transform="translate(-2120.504 -481.464)" fill="#ffd578"/>
        <path id="Path_777" data-name="Path 777" d="M2117.284,488.491a.17.17,0,1,0,.054.235.17.17,0,0,0-.054-.235" transform="translate(-2114.364 -483.302)" fill="#ffd578"/>
        <path id="Path_778" data-name="Path 778" d="M2124.323,489.631a.17.17,0,1,0,.054.235.17.17,0,0,0-.054-.235" transform="translate(-2119.566 -484.145)" fill="#ffd578"/>
        <path id="Path_779" data-name="Path 779" d="M2120.388,491.981a.17.17,0,1,0,.054.235.17.17,0,0,0-.054-.235" transform="translate(-2116.658 -485.882)" fill="#ffd578"/>
        <path id="Path_780" data-name="Path 780" d="M2130.683,489a.17.17,0,1,0,.054.235.17.17,0,0,0-.054-.235" transform="translate(-2124.266 -483.679)" fill="#ffd578"/>
        <path id="Path_781" data-name="Path 781" d="M2130.564,492.582a.17.17,0,1,0,.054.235.17.17,0,0,0-.054-.235" transform="translate(-2124.178 -486.326)" fill="#ffd578"/>
        <path id="Path_782" data-name="Path 782" d="M2127.854,490.109a.17.17,0,1,0,.054.235.17.17,0,0,0-.054-.235" transform="translate(-2122.175 -484.498)" fill="#ffd578"/>
        <path id="Path_783" data-name="Path 783" d="M2134.544,491.426a.17.17,0,1,0,.054.235.17.17,0,0,0-.054-.235" transform="translate(-2127.12 -485.472)" fill="#ffd578"/>
        <path id="Path_784" data-name="Path 784" d="M2126.236,493.914a.17.17,0,1,0,.053.235.171.171,0,0,0-.053-.235" transform="translate(-2120.98 -487.31)" fill="#ffd578"/>
        <path id="Path_785" data-name="Path 785" d="M2130.129,497.9a.17.17,0,1,0,.054.235.17.17,0,0,0-.054-.235" transform="translate(-2123.857 -490.256)" fill="#ffd578"/>
        <path id="Path_786" data-name="Path 786" d="M2125.811,497.7a.17.17,0,1,0,.054.235.17.17,0,0,0-.054-.235" transform="translate(-2120.665 -490.106)" fill="#ffd578"/>
        <path id="Path_787" data-name="Path 787" d="M2139.292,482.078a.17.17,0,1,0,.054.235.171.171,0,0,0-.054-.235" transform="translate(-2130.629 -478.563)" fill="#ffd578"/>
        <path id="Path_788" data-name="Path 788" d="M2139.174,485.659a.17.17,0,1,0,.053.235.171.171,0,0,0-.053-.235" transform="translate(-2130.541 -481.21)" fill="#ffd578"/>
        <path id="Path_789" data-name="Path 789" d="M2136.463,483.186a.17.17,0,1,0,.054.235.17.17,0,0,0-.054-.235" transform="translate(-2128.538 -479.382)" fill="#ffd578"/>
        <path id="Path_790" data-name="Path 790" d="M2143.154,484.5a.17.17,0,1,0,.054.235.17.17,0,0,0-.054-.235" transform="translate(-2133.482 -480.355)" fill="#ffd578"/>
        <path id="Path_791" data-name="Path 791" d="M2134.845,486.991a.17.17,0,1,0,.053.235.17.17,0,0,0-.053-.235" transform="translate(-2127.342 -482.194)" fill="#ffd578"/>
        <path id="Path_792" data-name="Path 792" d="M2137.079,494.557a.17.17,0,1,0,.054.235.17.17,0,0,0-.054-.235" transform="translate(-2128.993 -487.785)" fill="#ffd578"/>
        <path id="Path_793" data-name="Path 793" d="M2137.949,490.481a.17.17,0,1,0,.054.235.17.17,0,0,0-.054-.235" transform="translate(-2129.636 -484.773)" fill="#ffd578"/>
        <path id="Path_794" data-name="Path 794" d="M2121.148,473.768a.17.17,0,1,0,.054.235.17.17,0,0,0-.054-.235" transform="translate(-2117.219 -472.422)" fill="#ffd578"/>
        <path id="Path_795" data-name="Path 795" d="M2121.03,477.348a.17.17,0,1,0,.054.235.171.171,0,0,0-.054-.235" transform="translate(-2117.132 -475.068)" fill="#ffd578"/>
        <path id="Path_796" data-name="Path 796" d="M2116.624,473.24a.17.17,0,1,0,.053.235.17.17,0,0,0-.053-.235" transform="translate(-2113.876 -472.032)" fill="#ffd578"/>
        <path id="Path_797" data-name="Path 797" d="M2125.01,476.193a.17.17,0,1,0,.054.235.17.17,0,0,0-.054-.235" transform="translate(-2120.073 -474.214)" fill="#ffd578"/>
        <path id="Path_798" data-name="Path 798" d="M2116.7,478.681a.17.17,0,1,0,.054.235.17.17,0,0,0-.054-.235" transform="translate(-2113.933 -476.053)" fill="#ffd578"/>
        <path id="Path_799" data-name="Path 799" d="M2123.74,479.821a.17.17,0,1,0,.054.235.17.17,0,0,0-.054-.235" transform="translate(-2119.135 -476.895)" fill="#ffd578"/>
        <path id="Path_800" data-name="Path 800" d="M2119.805,482.171a.17.17,0,1,0,.054.235.17.17,0,0,0-.054-.235" transform="translate(-2116.227 -478.632)" fill="#ffd578"/>
        <path id="Path_801" data-name="Path 801" d="M2118.626,495.315a.17.17,0,1,0,.054.235.17.17,0,0,0-.054-.235" transform="translate(-2115.355 -488.345)" fill="#ffd578"/>
        <path id="Path_802" data-name="Path 802" d="M2118.507,498.895a.17.17,0,1,0,.054.235.17.17,0,0,0-.054-.235" transform="translate(-2115.268 -490.991)" fill="#ffd578"/>
        <path id="Path_803" data-name="Path 803" d="M2115.8,496.423a.17.17,0,1,0,.054.235.17.17,0,0,0-.054-.235" transform="translate(-2113.264 -489.164)" fill="#ffd578"/>
        <path id="Path_804" data-name="Path 804" d="M2122.911,494.336a.17.17,0,1,0,.054.235.17.17,0,0,0-.054-.235" transform="translate(-2118.523 -487.622)" fill="#ffd578"/>
        <path id="Path_805" data-name="Path 805" d="M2112.459,495.1a.17.17,0,1,0,.054.235.17.17,0,0,0-.054-.235" transform="translate(-2110.798 -488.185)" fill="#ffd578"/>
        <path id="Path_806" data-name="Path 806" d="M2121.218,501.368a.17.17,0,1,0,.054.235.17.17,0,0,0-.054-.235" transform="translate(-2117.271 -492.819)" fill="#ffd578"/>
        <path id="Path_807" data-name="Path 807" d="M2117.282,503.718a.17.17,0,1,0,.054.235.17.17,0,0,0-.054-.235" transform="translate(-2114.362 -494.555)" fill="#ffd578"/>
        <path id="Path_808" data-name="Path 808" d="M2115.39,481.711a.17.17,0,1,0,.054.235.17.17,0,0,0-.054-.235" transform="translate(-2112.964 -478.292)" fill="#ffd578"/>
        <path id="Path_809" data-name="Path 809" d="M2111.291,486.071a.17.17,0,1,0,.054.235.17.17,0,0,0-.054-.235" transform="translate(-2109.935 -481.514)" fill="#ffd578"/>
        <path id="Path_810" data-name="Path 810" d="M2107.35,491.12a.17.17,0,1,0,.054.235.17.17,0,0,0-.054-.235" transform="translate(-2107.022 -485.245)" fill="#ffd578"/>
        <path id="Path_811" data-name="Path 811" d="M2115.27,484.916a.17.17,0,1,0,.054.235.17.17,0,0,0-.054-.235" transform="translate(-2112.875 -480.66)" fill="#ffd578"/>
        <path id="Path_812" data-name="Path 812" d="M2109.878,481.53a.17.17,0,1,0,.054.235.171.171,0,0,0-.054-.235" transform="translate(-2108.891 -478.159)" fill="#ffd578"/>
        <path id="Path_813" data-name="Path 813" d="M2114,488.544a.17.17,0,1,0,.054.235.17.17,0,0,0-.054-.235" transform="translate(-2111.938 -483.342)" fill="#ffd578"/>
        <path id="Path_814" data-name="Path 814" d="M2116.18,492.421a.17.17,0,1,0,.054.235.17.17,0,0,0-.054-.235" transform="translate(-2113.548 -486.207)" fill="#ffd578"/>
        <path id="Path_815" data-name="Path 815" d="M2128.433,466.784a.17.17,0,1,0,.053.235.17.17,0,0,0-.053-.235" transform="translate(-2122.604 -467.26)" fill="#ffd578"/>
        <path id="Path_816" data-name="Path 816" d="M2135.221,471.046a.17.17,0,1,0,.054.235.17.17,0,0,0-.054-.235" transform="translate(-2127.62 -470.41)" fill="#ffd578"/>
        <path id="Path_817" data-name="Path 817" d="M2125.409,472.018a.17.17,0,1,0,.054.235.17.17,0,0,0-.054-.235" transform="translate(-2120.368 -471.129)" fill="#ffd578"/>
        <path id="Path_818" data-name="Path 818" d="M2138.508,478.7a.17.17,0,1,0,.054.235.171.171,0,0,0-.054-.235" transform="translate(-2130.049 -476.068)" fill="#ffd578"/>
        <path id="Path_819" data-name="Path 819" d="M2130.893,472.378a.17.17,0,1,0,.053.235.171.171,0,0,0-.053-.235" transform="translate(-2124.421 -471.395)" fill="#ffd578"/>
        <path id="Path_820" data-name="Path 820" d="M2141.026,474.691a.17.17,0,1,0,.054.235.17.17,0,0,0-.054-.235" transform="translate(-2131.91 -473.104)" fill="#ffd578"/>
        <path id="Path_821" data-name="Path 821" d="M2134,475.868a.17.17,0,1,0,.053.235.17.17,0,0,0-.053-.235" transform="translate(-2126.716 -473.974)" fill="#ffd578"/>
      </g>
    </g>
    <g id="Group_145" data-name="Group 145" transform="translate(0 -0.001)">
      <g id="Group_144" data-name="Group 144" clip-path="url(#clip-path-2)">
        <path id="Path_823" data-name="Path 823" d="M2114.58,481.065l-1.793.642a3.659,3.659,0,0,1-4.672-2.208l-2.356-6.576a3.664,3.664,0,0,1,2.208-4.673l1.793-.642a3.658,3.658,0,0,1,4.672,2.208l2.357,6.576a3.665,3.665,0,0,1-2.088,4.628l-.121.046m-8.224-10.718a3.125,3.125,0,0,0-.121,2.405l2.356,6.576a3.152,3.152,0,0,0,4.024,1.9l1.793-.642a3.157,3.157,0,0,0,1.9-4.026l-2.357-6.576a3.152,3.152,0,0,0-4.024-1.9l-1.794.642-.1.039a3.127,3.127,0,0,0-1.678,1.581" transform="translate(-1556.041 -345.412)" fill="#31313c"/>
        <path id="Path_824" data-name="Path 824" d="M2090.293,418.895c-.757,6.914-5.429,12.053-10.435,11.478s-8.228-7.835-7.695-13.558c.646-6.926,5.429-12.053,10.435-11.478s8.451,6.644,7.695,13.558" transform="translate(-1531.33 -299.519)" fill="#fff"/>
        <path id="Path_825" data-name="Path 825" d="M2079.11,429.905c-5.13-.588-8.469-7.919-7.918-13.833a14.459,14.459,0,0,1,4.823-9.81,7.849,7.849,0,0,1,5.893-1.9c5.137.589,8.688,6.8,7.917,13.837a14.8,14.8,0,0,1-4.956,9.884,8.925,8.925,0,0,1-2.269,1.338,7.16,7.16,0,0,1-3.49.481m-2.775-23.25a13.944,13.944,0,0,0-4.639,9.464c-.645,6.924,3.487,12.826,7.472,13.283a7.239,7.239,0,0,0,5.386-1.711,14.288,14.288,0,0,0,4.768-9.543h0c.74-6.764-2.612-12.721-7.472-13.279a6.732,6.732,0,0,0-3.282.454,8.6,8.6,0,0,0-2.234,1.332" transform="translate(-1530.611 -298.8)" fill="#31313c"/>
        <path id="Path_826" data-name="Path 826" d="M2104.152,418.353s-1.3,3.659.962,4.331,2.994-1.771,2.994-1.771-2.467,5.064.618,6.04,3.667-4.44,3.667-4.44l-2.174-4.3Z" transform="translate(-1554.738 -309.065)" fill="#31313c"/>
        <path id="Path_827" data-name="Path 827" d="M2072.334,389.393s-3.843,6.682-11.184,3.771c0,0-4.658-3.58,1.748-8.689a8.394,8.394,0,0,1,3.974-1.787s-3.246-.166-1.92-2.192,5.042-2.235,8.927-.633c0,0-2.068-2.37.564-3.158s5.848.528,7.224,4.789c0,0,.206-1.275,1.221-1.48s.836,1.331.052,1.954c0,0,2.117-1.662,2.625-.626s-1.878,1.616-1.878,1.616,8.135,7.872.375,14c0,0,3.75,2.5-1.887,2.838,0,0,.675,2.786-1.909,1.208,0,0,.359-.8-1.169-3.908-.715-1.455-6.762-7.7-6.762-7.7" transform="translate(-1522.025 -278.231)" fill="#31313c"/>
        <path id="Path_828" data-name="Path 828" d="M2099.678,445.174a.2.2,0,0,1-.132-.362,2.171,2.171,0,0,1,2.671-.188.206.206,0,0,1,.076.278.221.221,0,0,1-.276.075,3.43,3.43,0,0,0-2.219.154.2.2,0,0,1-.12.044" transform="translate(-1551.553 -328.31)" fill="#31313c"/>
        <path id="Path_829" data-name="Path 829" d="M2075.933,447.442a.2.2,0,0,1-.164-.077.2.2,0,0,1,.031-.285,2.171,2.171,0,0,1,2.671-.188.207.207,0,0,1,.076.278.221.221,0,0,1-.276.075,3.431,3.431,0,0,0-2.219.154.2.2,0,0,1-.12.044" transform="translate(-1534.004 -329.986)" fill="#31313c"/>
        <path id="Path_830" data-name="Path 830" d="M2105.008,452.378a.789.789,0,0,1-.322,1.035c-.331.111-.725-.172-.878-.633a.788.788,0,0,1,.322-1.035c.332-.111.724.172.878.633" transform="translate(-1554.713 -333.83)" fill="#31313c"/>
        <path id="Path_831" data-name="Path 831" d="M2082.68,455.717a.788.788,0,0,1-.322,1.035c-.331.111-.725-.172-.878-.633a.788.788,0,0,1,.322-1.035c.331-.111.725.172.878.633" transform="translate(-1538.212 -336.297)" fill="#31313c"/>
        <path id="Path_832" data-name="Path 832" d="M2091.655,468.9a.181.181,0,0,0-.1-.346,1.727,1.727,0,0,1-1.42-.37.181.181,0,1,0-.249.262,2.078,2.078,0,0,0,1.734.463.169.169,0,0,0,.035-.01" transform="translate(-1544.428 -345.961)" fill="#31313c"/>
        <path id="Path_833" data-name="Path 833" d="M2056.045,617.505s-.059-4.816-3.281-4.408-7.793,4.428-7.793,4.428Z" transform="translate(-1511.276 -453.072)" fill="#fff"/>
        <path id="Path_834" data-name="Path 834" d="M2127.074,451.64a1.984,1.984,0,0,1-2.7.544c-.662-.611-.371-1.992.3-2.756a1.97,1.97,0,0,1,2.7-.544,2.02,2.02,0,0,1-.3,2.756" transform="translate(-1569.682 -331.482)" fill="#fff"/>
        <path id="Path_835" data-name="Path 835" d="M1976.785,659.529s-1.984-4.626-4.366-6.734Z" transform="translate(-1457.659 -482.428)" fill="#fff"/>
        <path id="Path_836" data-name="Path 836" d="M1976.107,659.091a.24.24,0,0,0,.22-.334c-.082-.191-2.033-4.7-4.427-6.819a.239.239,0,0,0-.317.358c2.315,2.049,4.285,6.6,4.3,6.649a.239.239,0,0,0,.22.145" transform="translate(-1456.981 -481.75)" fill="#31313c"/>
        <path id="Path_837" data-name="Path 837" d="M1889.138,577.492a24.932,24.932,0,0,0-1.326,2.392c-.811,1.62-.23,2.448-.23,2.448Z" transform="translate(-1394.814 -426.777)" fill="#fff"/>
        <path id="Path_838" data-name="Path 838" d="M1887.059,581.994a.185.185,0,0,0,.151-.291c-.02-.029-.5-.773.244-2.259a25.037,25.037,0,0,1,1.314-2.372.185.185,0,0,0-.308-.2,24.972,24.972,0,0,0-1.337,2.412c-.851,1.7-.242,2.6-.216,2.637a.185.185,0,0,0,.152.079" transform="translate(-1394.29 -426.253)" fill="#31313c"/>
        <path id="Path_839" data-name="Path 839" d="M2094,474.785s-2.8,1.586-4.82.854c0,0,.643,2.579,2.794,1.959a2.815,2.815,0,0,0,2.026-2.814" transform="translate(-1543.948 -350.875)" fill="#31313c"/>
        <path id="Path_840" data-name="Path 840" d="M1995.248,663.754h30.094l-13.814-34.935h-30.094Z" transform="translate(-1464.321 -464.709)" fill="#31313c"/>
        <path id="Path_841" data-name="Path 841" d="M2099.233,657.48c-2-1.151-5.567-2.939-7.095-4.67-1.285-1.226-6.273-5.807-7.042-4.58-.83,1.326,1.965,4.65,4.011,6.723a16,16,0,0,0-6.113,2.085c-1.312.953-1.668,2.3-.838,3.23-1.2,1.189-1.271,2.093-1.038,2.653.579,1.387,2.187,1.213,3.841.058a8.934,8.934,0,0,0-1.57,2.318,2.542,2.542,0,0,0,.319,1.922c.34.458,1.469.253,2.133-.14a13.135,13.135,0,0,0,2.334-1.837c.34-.347.134-.107.618-.328.606.523,2.349,1.69,2.654,1.91,1.135.819,3.182.225,4.662-.177.717-.194,5-8.086,3.123-9.167" transform="translate(-1537.912 -478.901)" fill="#fff"/>
        <path id="Path_842" data-name="Path 842" d="M2084.8,687.607a.208.208,0,0,0,.136-.051,11.782,11.782,0,0,1,6.848-2.4h0a.21.21,0,0,0,0-.421h-.005a12,12,0,0,0-7.118,2.505.21.21,0,0,0,.137.37" transform="translate(-1540.555 -506.03)" fill="#080435"/>
        <path id="Path_843" data-name="Path 843" d="M2097.178,698.9a.209.209,0,0,0,.137-.051,7.323,7.323,0,0,1,3.882-1.638.21.21,0,1,0-.026-.42,7.637,7.637,0,0,0-4.131,1.739.21.21,0,0,0,.137.37" transform="translate(-1549.703 -514.942)" fill="#080435"/>
        <path id="Path_844" data-name="Path 844" d="M2139.672,591.958s13.906.866,23.046-3.156c2.017-.888-4.519-24.447-4.519-24.447l6.979-2.34,7.92-1.082s13.73,28.514,3.311,37.48c-11.066,9.523-36.666,3.9-36.666,3.9Z" transform="translate(-1581.263 -414.54)" fill="#fff"/>
        <path id="Path_845" data-name="Path 845" d="M2227.344,664.455a.219.219,0,0,0,.092-.02,10.6,10.6,0,0,1,6.026-.863.224.224,0,0,0,.1-.438,10.874,10.874,0,0,0-6.306.892.224.224,0,0,0,.092.429" transform="translate(-1645.888 -489.968)" fill="#080435"/>
        <path id="Path_846" data-name="Path 846" d="M2115.734,714.609a8.012,8.012,0,0,0,5.173-2.365.224.224,0,0,0-.324-.311,7.633,7.633,0,0,1-4.984,2.225,5.833,5.833,0,0,1-4.263-2.307.224.224,0,1,0-.34.293,6.261,6.261,0,0,0,4.594,2.463l.144,0" transform="translate(-1560.03 -526.014)" fill="#080435"/>
        <path id="Path_847" data-name="Path 847" d="M2156.344,603.5c7.189,0,16.23-1.235,21.468-6.616,3.575-3.673,3.952-10.975,1.121-21.7a105.685,105.685,0,0,0-5.308-14.992.224.224,0,1,0-.408.187c.126.276,12.548,27.693,4.273,36.194-5.5,5.653-15.356,6.634-22.656,6.462a81.1,81.1,0,0,1-14.719-1.758.224.224,0,0,0-.1.437,81.552,81.552,0,0,0,14.8,1.77q.748.018,1.529.018" transform="translate(-1581.385 -413.894)" fill="#080435"/>
        <path id="Path_848" data-name="Path 848" d="M2083.817,612.533a4.6,4.6,0,0,0,2.7-1.557,5.742,5.742,0,0,1,2.931-1.538.21.21,0,0,0-.048-.418,6.05,6.05,0,0,0-3.171,1.65c-1.355,1.277-2.122,1.487-2.525,1.436a.768.768,0,0,1-.569-.385c-1.059-1.657.87-3.486,1.5-4.018.115-.089.186-.149.2-.161a.21.21,0,0,0-.262-.329c-.01.007-.087.064-.206.164a4.77,4.77,0,0,1-2.646,1.146,1.027,1.027,0,0,1-.739-.375,1.744,1.744,0,0,1-.468-1.368,2.758,2.758,0,0,1,1.073-1.607.21.21,0,0,0,.064-.273,2.02,2.02,0,0,1-.133-2c1.184-2.294,6.981-3.006,7.04-3.013a.21.21,0,0,0,.13-.352c-2.362-2.547-4.623-5.541-4.32-6.141a.694.694,0,0,1,.521-.423c.908-.15,2.783,1.174,5.579,3.931a23.607,23.607,0,0,0,2.238,1.964,10.148,10.148,0,0,0,5.962,2.4c1.294-.012,12.85-.2,20.091-3.172.422-.173,1.542-.634-1.309-12.806-1.39-5.935-3.072-11.835-3.088-11.894a.21.21,0,1,0-.4.116c4.333,15.174,5.625,23.791,4.641,24.2-5.822,2.391-15.27,3.1-19.935,3.141h-.059a9.487,9.487,0,0,1-5.645-2.31,23.215,23.215,0,0,1-2.2-1.929c-2.979-2.938-4.869-4.222-5.943-4.047a1.111,1.111,0,0,0-.828.648c-.537,1.066,2.9,4.982,4.115,6.32-1.384.209-5.856,1.039-6.963,3.183a2.384,2.384,0,0,0,.055,2.234,3.018,3.018,0,0,0-1.1,1.783,2.146,2.146,0,0,0,.562,1.693,1.449,1.449,0,0,0,1.028.524,3.145,3.145,0,0,0,1.523-.352l-.067.091a2.779,2.779,0,0,0-.362,3.266,1.18,1.18,0,0,0,.872.576,1.3,1.3,0,0,0,.161.01" transform="translate(-1537.225 -423.635)" fill="#080435"/>
        <path id="Path_849" data-name="Path 849" d="M2206.628,532.771s-3.023,14.421-18.825,15.144c-11.125.508-1.853-12.193-1.853-12.193s1.927-14.285,6.634-12.78c7.022,2.246,14.045,9.83,14.045,9.83" transform="translate(-1612.786 -386.381)" fill="#ffd26d"/>
        <path id="Path_850" data-name="Path 850" d="M2043.322,617.229l.324-.285c.188-.165,4.645-4.057,7.879-4.467a2.463,2.463,0,0,1,2.011.566c1.4,1.221,1.451,3.888,1.452,4l0,.164Zm8.6-4.453a2.8,2.8,0,0,0-.353.023c-2.638.334-6.26,3.185-7.37,4.1l10.462-.019c-.034-.592-.23-2.636-1.335-3.6a2.075,2.075,0,0,0-1.4-.511" transform="translate(-1510.058 -452.614)" fill="#31313c"/>
        <path id="Path_851" data-name="Path 851" d="M1994.433,611.169s-7.638,2.041-6.034,7.5-1.2,8.055-1.2,8.055h-21.5s2.646-5.745,1.081-9.184,2.458-6.618,3.852-6.993,23.806.619,23.806.619" transform="translate(-1452.69 -451.145)" fill="#fff"/>
        <path id="Path_852" data-name="Path 852" d="M1986.736,626.434h-21.5a.162.162,0,0,1-.147-.23c.026-.057,2.6-5.717,1.08-9.048a4.128,4.128,0,0,1,.09-3.609,7.583,7.583,0,0,1,3.868-3.608c1.4-.377,22.939.573,23.855.614a.162.162,0,0,1,.035.318c-.041.011-4.083,1.119-5.579,3.783a4.406,4.406,0,0,0-.341,3.518,9.608,9.608,0,0,1,0,6.178,5.608,5.608,0,0,1-1.246,2.041.162.162,0,0,1-.11.043m-21.252-.324h21.185c.341-.357,2.562-2.927,1.117-7.847a4.717,4.717,0,0,1,.37-3.769c1.143-2.034,3.611-3.173,4.922-3.657-7.941-.345-21.823-.866-22.867-.585a7.2,7.2,0,0,0-3.658,3.433,3.818,3.818,0,0,0-.088,3.336c.665,1.46.684,3.475.057,5.988a21.829,21.829,0,0,1-1.037,3.1" transform="translate(-1452.231 -450.691)" fill="#31313c"/>
        <rect id="Rectangle_5996" data-name="Rectangle 5996" width="311.49" height="243.14" transform="matrix(0.097, -0.995, 0.995, 0.097, 234.425, 316.495)" fill="#31313c"/>
        <path id="Path_853" data-name="Path 853" d="M1179.654,431.421H936.514V119.931h188.642l54.5,58.082Z" transform="translate(-692.104 -88.63)" fill="#fff"/>
        <path id="Path_854" data-name="Path 854" d="M1178.6,430.372H934.32V117.737h189.463l.169.181,54.653,58.247Zm-243.14-1.145H1177.46V176.619l-54.173-57.736H935.465Z" transform="translate(-690.482 -87.009)" fill="#31313c"/>
        <path id="Path_855" data-name="Path 855" d="M1659.339,119.931l54.5,58.082h-54.5Z" transform="translate(-1226.286 -88.63)" fill="#fff"/>
        <path id="Path_856" data-name="Path 856" d="M1712.215,176.964h-54.5a.572.572,0,0,1-.573-.573V118.309a.573.573,0,0,1,.99-.392l54.5,58.082a.573.573,0,0,1-.417.965m-53.925-1.145h52.6l-52.6-56.062Z" transform="translate(-1224.665 -87.008)" fill="#31313c"/>
        <path id="Path_857" data-name="Path 857" d="M1283.5,946.668h-62.583a11.028,11.028,0,0,1-11.028-11.028V876.328a11.028,11.028,0,0,1,11.028-11.028H1283.5a11.028,11.028,0,0,1,11.028,11.028V935.64a11.028,11.028,0,0,1-11.028,11.028" transform="translate(-894.136 -639.474)" fill="#ff9353"/>
        <path id="Path_858" data-name="Path 858" d="M1289.845,970.906a4.768,4.768,0,0,1-3.862-1.973l-24.261-33.526a4.769,4.769,0,0,1,7.726-5.591l19.891,27.487,21.707-38.649a4.768,4.768,0,1,1,8.315,4.67L1294,968.472a4.768,4.768,0,0,1-3.884,2.425q-.137.008-.274.008" transform="translate(-931.77 -677.104)" fill="#fff"/>
        <path id="Path_859" data-name="Path 859" d="M1045.8,57.852a12.2,12.2,0,0,1-6.771-2.055,12.144,12.144,0,0,1-3.4-16.835l12.752-19.208a1.11,1.11,0,1,1,1.85,1.228l-12.752,19.208a9.924,9.924,0,0,0,2.779,13.757,10.068,10.068,0,0,0,13.956-2.819l25.677-38.677a5.85,5.85,0,0,0-1.638-8.11l-1.52-1.009c-3.175-2.108-7.534-1.09-9.026,1.157l-17.87,26.973a1.11,1.11,0,1,1-1.851-1.226l17.871-26.974c2.547-3.837,8.6-4.107,12.1-1.78l1.52,1.009a8.07,8.07,0,0,1,2.26,11.188L1056.06,52.357a12.208,12.208,0,0,1-7.8,5.248,12.408,12.408,0,0,1-2.458.247" transform="translate(-763.848 0.004)" fill="#ffd26d"/>
        <path id="Path_860" data-name="Path 860" d="M1136.46,91.429a.929.929,0,0,1-.806-1.391l5.067-8.859a.929.929,0,1,1,1.614.923l-5.066,8.859a.929.929,0,0,1-.808.468" transform="translate(-839.181 -59.646)" fill="#31313c"/>
        <rect id="Rectangle_5997" data-name="Rectangle 5997" width="82.269" height="2.349" transform="translate(318.235 91.653)" fill="#31313c"/>
        <rect id="Rectangle_5998" data-name="Rectangle 5998" width="82.269" height="2.349" transform="translate(288.283 107.15)" fill="#31313c"/>
        <rect id="Rectangle_5999" data-name="Rectangle 5999" width="53.361" height="2.349" transform="translate(377.095 107.15)" fill="#31313c"/>
        <rect id="Rectangle_6000" data-name="Rectangle 6000" width="46.357" height="2.349" transform="translate(279.116 116.914)" fill="#31313c"/>
        <rect id="Rectangle_6001" data-name="Rectangle 6001" width="46.357" height="2.349" transform="translate(331.766 116.914)" fill="#31313c"/>
        <rect id="Rectangle_6002" data-name="Rectangle 6002" width="53.361" height="2.349" transform="translate(386.263 116.914)" fill="#31313c"/>
        <rect id="Rectangle_6003" data-name="Rectangle 6003" width="30.785" height="2.349" transform="translate(279.115 128.371)" fill="#31313c"/>
        <rect id="Rectangle_6004" data-name="Rectangle 6004" width="49.848" height="2.349" transform="translate(316.932 128.371)" fill="#31313c"/>
        <rect id="Rectangle_6005" data-name="Rectangle 6005" width="65.301" height="2.349" transform="translate(374.322 128.371)" fill="#31313c"/>
        <rect id="Rectangle_6006" data-name="Rectangle 6006" width="46.357" height="2.349" transform="translate(279.116 151.405)" fill="#31313c"/>
        <rect id="Rectangle_6007" data-name="Rectangle 6007" width="46.357" height="2.349" transform="translate(331.766 151.405)" fill="#31313c"/>
        <rect id="Rectangle_6008" data-name="Rectangle 6008" width="53.361" height="2.349" transform="translate(386.263 151.405)" fill="#31313c"/>
        <rect id="Rectangle_6009" data-name="Rectangle 6009" width="30.785" height="2.349" transform="translate(279.115 162.862)" fill="#31313c"/>
        <rect id="Rectangle_6010" data-name="Rectangle 6010" width="49.848" height="2.349" transform="translate(316.932 162.862)" fill="#31313c"/>
        <rect id="Rectangle_6011" data-name="Rectangle 6011" width="65.301" height="2.349" transform="translate(374.322 162.862)" fill="#31313c"/>
        <rect id="Rectangle_6012" data-name="Rectangle 6012" width="46.357" height="2.349" transform="translate(279.116 182.887)" fill="#31313c"/>
        <rect id="Rectangle_6013" data-name="Rectangle 6013" width="46.357" height="2.349" transform="translate(331.766 182.887)" fill="#31313c"/>
        <rect id="Rectangle_6014" data-name="Rectangle 6014" width="53.361" height="2.349" transform="translate(386.263 182.887)" fill="#31313c"/>
        <rect id="Rectangle_6015" data-name="Rectangle 6015" width="30.785" height="2.349" transform="translate(279.115 194.344)" fill="#31313c"/>
        <rect id="Rectangle_6016" data-name="Rectangle 6016" width="49.848" height="2.349" transform="translate(316.932 194.344)" fill="#31313c"/>
        <rect id="Rectangle_6017" data-name="Rectangle 6017" width="65.301" height="2.349" transform="translate(374.322 194.344)" fill="#31313c"/>
        <path id="Path_861" data-name="Path 861" d="M1142.32,91.545a1.111,1.111,0,0,1-.933-1.71l5.968-9.306a1.11,1.11,0,1,1,1.869,1.2l-5.967,9.306a1.109,1.109,0,0,1-.936.511" transform="translate(-843.379 -59.133)" fill="#ffd26d"/>
        <path id="Path_862" data-name="Path 862" d="M768.661,587.632s-13.794,29.162-28.173,25.784c-11-2.585-14.988-34.783-14.988-34.783l13.3-4.5,8.343,21.358,17.1-13.89Z" transform="translate(-536.16 -424.297)" fill="#fff"/>
        <path id="Path_863" data-name="Path 863" d="M741.747,613.893c5.488.22,11.586-3.874,17.769-11.97a90.433,90.433,0,0,0,8.719-14.2.221.221,0,1,0-.4-.189c-.138.29-13.877,28.962-27.923,25.664-10.356-2.433-14.489-32.1-14.8-34.45l13.1-4.045,8.1,20.868a.221.221,0,0,0,.346.092l17.1-13.89a.221.221,0,0,0-.279-.344l-16.866,13.7s-7.817-19.451-8.44-20.995c-.025-.061-13.416,4.306-13.416,4.306a.222.222,0,0,0-.109.219,125.582,125.582,0,0,0,3.374,16.455c3.171,11.194,7.135,17.424,11.783,18.516a10.251,10.251,0,0,0,1.937.263" transform="translate(-535.533 -424.295)" fill="#111"/>
        <path id="Path_864" data-name="Path 864" d="M596.953,410.31s-10.34-1.409-13.67,6.148.769,11.881.769,11.881-7.3-2.146-11.079,3.874a7.308,7.308,0,0,0,1.562,9.991s-9.682,4.868-2.836,9.095,45.4-1.665,47.579-8.326-6.4-12.914-6.4-12.914,5.949-27.692-15.919-19.75" transform="translate(-420.687 -302.169)" fill="#31313b"/>
        <path id="Path_865" data-name="Path 865" d="M589.084,533.319c16.41-5.444,38.32,1.034,39.184,3.672,5.906,18.039,5.045,20.321,2.531,24.631,0,0,.051,14.612-3.322,17.243-6.638,5.178-32.185,6.707-43.679-4.068,0,0,0-15.868,4.07-26.286,0,0-7.966-12.145,1.215-15.192" transform="translate(-431.439 -392.57)" fill="#79aac8"/>
        <path id="Path_866" data-name="Path 866" d="M659.322,532.2s.847,9.811-5.971,12.506-15.438-7.478-16.92-13.1a211.593,211.593,0,0,1,22.891.59" transform="translate(-470.336 -392.81)" fill="#fff"/>
        <path id="Path_867" data-name="Path 867" d="M539.108,1023.038l-36.061,57.245-10.123-6.273,15.814-49.535Z" transform="translate(-364.281 -756.046)" fill="#fff"/>
        <path id="Path_868" data-name="Path 868" d="M502.368,1079.845a.238.238,0,0,1-.126-.036l-10.123-6.273a.239.239,0,0,1-.1-.276l15.814-49.535a.239.239,0,0,1,.217-.166l30.37-1.437a.24.24,0,0,1,.214.367l-36.062,57.245a.239.239,0,0,1-.2.112m-9.838-6.618,9.762,6.05,35.69-56.656-29.746,1.407Z" transform="translate(-363.602 -755.368)" fill="#080435"/>
        <path id="Path_869" data-name="Path 869" d="M651.225,962.483l-11.014,72.38H628.3L624.167,965.6Z" transform="translate(-461.273 -711.294)" fill="#fff"/>
        <path id="Path_870" data-name="Path 870" d="M657.555,531.7l-.03,0c-.156-.02-15.7-1.93-23.793-.563a.24.24,0,0,1-.08-.472c4.271-.721,10.553-.53,15.07-.243,4.888.311,8.822.8,8.861.8a.239.239,0,0,1-.03.477" transform="translate(-468.135 -391.798)" fill="#080435"/>
        <path id="Path_871" data-name="Path 871" d="M639.533,1034.424H627.623a.239.239,0,0,1-.239-.225l-4.135-69.267a.24.24,0,0,1,.212-.252l27.058-3.113a.237.237,0,0,1,.2.072.24.24,0,0,1,.064.2l-11.014,72.38a.239.239,0,0,1-.237.2m-11.684-.479h11.478l10.936-71.867-26.521,3.051Z" transform="translate(-460.594 -710.615)" fill="#080435"/>
        <path id="Path_872" data-name="Path 872" d="M651.54,1239.824l-.268,5.595c.276-.014.553-.024.833-.024,7.038,0,12.742,4.559,12.742,10.181H639.362l-.228-15.752Z" transform="translate(-472.333 -916.255)" fill="#31313c"/>
        <path id="Path_873" data-name="Path 873" d="M663.017,1265.325a.192.192,0,0,1-.174-.273,7.868,7.868,0,0,1,3.711-3.884,6.311,6.311,0,0,1,2.217-.641.2.2,0,0,1,.2.182.192.192,0,0,1-.182.2,7.1,7.1,0,0,0-5.6,4.3.192.192,0,0,1-.174.111" transform="translate(-489.841 -931.555)" fill="#eaeef1"/>
        <path id="Path_874" data-name="Path 874" d="M479.674,1225.177l-3.071,4.458c.242.133.482.271.721.418,5.982,3.707,8.43,10.587,5.468,15.366l-11.539-7.151L461.13,1232l8.009-13.3Z" transform="translate(-340.785 -900.641)" fill="#31313c"/>
        <path id="Path_875" data-name="Path 875" d="M492.2,1259.164a.192.192,0,0,1-.105-.353,7.874,7.874,0,0,1,5.2-1.347,6.318,6.318,0,0,1,2.222.623.192.192,0,0,1-.186.336,7.106,7.106,0,0,0-7.026.709.192.192,0,0,1-.105.031" transform="translate(-363.602 -929.262)" fill="#eaeef1"/>
        <path id="Path_876" data-name="Path 876" d="M461.352,702.309s20.254,37.715,23.128,101.553c0,0-17.24,17.406-40.547,8.27s-42.782,11.971-62.257,5.743-22.668-19.722-22.668-19.722,34.641-81.836,58.665-99.912c0,0,20.551,13.756,43.679,4.068" transform="translate(-265.314 -516.013)" fill="#ffd26d"/>
        <path id="Path_877" data-name="Path 877" d="M485.237,898.646a35.57,35.57,0,0,1-8.786-1.079,30.566,30.566,0,0,1-13.185-7.012,32.675,32.675,0,0,1-8.878-13.831,50.812,50.812,0,0,1-2.2-20.355l.477.037a50.348,50.348,0,0,0,2.172,20.163,32.207,32.207,0,0,0,8.747,13.631,30.1,30.1,0,0,0,12.981,6.9,37.07,37.07,0,0,0,15.559.455c5.754-1,10.661-4.869,14.191-11.19a40.034,40.034,0,0,0,3.584-8.934q-.99-.083-1.991-.236c-7.753-1.181-13.127-5.019-15.132-10.807a16.937,16.937,0,0,1,3.394-16.511c2.484-2.652,5.5-3.662,8.485-2.841,2.53.695,4.56,3.068,5.871,6.863a35.954,35.954,0,0,1,1.51,13,49.833,49.833,0,0,1-1.526,10.1,25.832,25.832,0,0,0,13.535-2.783,35.083,35.083,0,0,0,11.082-9.245,55.35,55.35,0,0,0,8.488-14.662l.452.16a55.863,55.863,0,0,1-8.56,14.8,35.579,35.579,0,0,1-11.238,9.376,26.3,26.3,0,0,1-13.884,2.831,40.573,40.573,0,0,1-3.652,9.131c-3.6,6.451-8.626,10.4-14.527,11.428a40.736,40.736,0,0,1-6.973.616m17.4-51.4a8.414,8.414,0,0,0-6.113,2.966,15.785,15.785,0,0,0-3.7,7.266,16.031,16.031,0,0,0,.405,8.761c1.375,3.969,5.051,9.012,14.752,10.49q1.028.157,2.045.239a49.316,49.316,0,0,0,1.533-10.088c.494-10.3-2.331-18.086-7.029-19.376a7.155,7.155,0,0,0-1.9-.259" transform="translate(-334.038 -625.773)" fill="#fff"/>
        <path id="Path_878" data-name="Path 878" d="M559.489,760.248a2.948,2.948,0,0,1-.993-.172c-2.418-.859-3.894-4.847-3.509-9.48A14.818,14.818,0,0,1,560.413,740a36.961,36.961,0,0,0-4.221-3.223,50.869,50.869,0,0,0-7.589-4.119l.183-.443a47.315,47.315,0,0,1,12.04,7.482,13.538,13.538,0,0,1,5.481-2.218c10.363-1.839,13.268,4.674,16.077,10.973,2.015,4.518,3.918,8.785,8.448,9.862,4.137.985,7.42-.45,8.783-3.836a10.289,10.289,0,0,0-4.354-12.247l.243-.413a10.784,10.784,0,0,1,4.556,12.839c-1.459,3.625-4.95,5.166-9.338,4.123-4.761-1.133-6.8-5.708-8.774-10.133-2.734-6.13-5.561-12.47-15.556-10.7a13.069,13.069,0,0,0-5.2,2.081,17.1,17.1,0,0,1,4.973,7.32,10.426,10.426,0,0,1-1.713,9.175c-1.995,2.916-3.695,3.718-4.962,3.718m1.288-19.915a14.318,14.318,0,0,0-5.313,10.3c-.362,4.349,1.011,8.214,3.192,8.989,1.607.571,3.524-.624,5.4-3.366a9.97,9.97,0,0,0,1.649-8.767,16.789,16.789,0,0,0-4.929-7.159" transform="translate(-405.429 -541.123)" fill="#fff"/>
        <path id="Path_879" data-name="Path 879" d="M675.569,1025.07l-.478-.031a34.887,34.887,0,0,1,7.155-19.314,44.871,44.871,0,0,1,13.721-11.575,66.311,66.311,0,0,1,19.308-7.114l.079.473a65.8,65.8,0,0,0-19.162,7.065,44.4,44.4,0,0,0-13.57,11.448,34.415,34.415,0,0,0-7.052,19.047" transform="translate(-498.906 -729.439)" fill="#fff"/>
        <path id="Path_880" data-name="Path 880" d="M432.428,1036.133a43.854,43.854,0,0,0-7.65-17.844,59.916,59.916,0,0,0-12.054-12.36,72.673,72.673,0,0,0-16.046-9.508l.175-.446a73.146,73.146,0,0,1,16.154,9.568A60.407,60.407,0,0,1,425.163,1018a44.338,44.338,0,0,1,7.737,18.045Z" transform="translate(-293.153 -736.045)" fill="#fff"/>
        <path id="Path_881" data-name="Path 881" d="M405.875,1084.021a99.141,99.141,0,0,1-4.557-9.206q-.665-1.556-1.193-2.971a18.462,18.462,0,0,1-7.954,4.875l-.138-.459a18.011,18.011,0,0,0,7.909-4.913c-1.764-4.868-2.261-8.427-1.478-10.606a3.487,3.487,0,0,1,2.107-2.2c1.707-.641,2.707-.224,3.245.239,1.021.878,1.33,2.684.848,4.956a17.15,17.15,0,0,1-4.168,7.714,94.079,94.079,0,0,0,5.793,12.333Zm-3.7-25.329a4.142,4.142,0,0,0-1.438.3,2.989,2.989,0,0,0-1.825,1.915c-.835,2.324.017,6.164,1.4,10.04a16.566,16.566,0,0,0,3.883-7.307c.438-2.064.179-3.744-.692-4.493a1.973,1.973,0,0,0-1.327-.45" transform="translate(-289.721 -782.039)" fill="#fff"/>
        <path id="Path_882" data-name="Path 882" d="M723.6,649.666a14.316,14.316,0,0,1-5.587-1.215l.186-.441c7.338,3.1,11.581-.875,11.623-.915l.332.345a9.98,9.98,0,0,1-6.554,2.226" transform="translate(-530.623 -478.215)" fill="#31313b"/>
        <path id="Path_883" data-name="Path 883" d="M656.647,640.291q-.3,0-.613-.016l.025-.478c6.734.344,8.081-5.167,8.135-5.4l.467.107a7.958,7.958,0,0,1-8.014,5.789" transform="translate(-484.823 -468.83)" fill="#31313b"/>
        <path id="Path_884" data-name="Path 884" d="M669.268,508.7h1.263a3.506,3.506,0,0,0,3.5-3.5v-6.015a3.506,3.506,0,0,0-3.5-3.5h-1.263a3.506,3.506,0,0,0-3.5,3.5V505.2a3.506,3.506,0,0,0,3.5,3.5" transform="translate(-492.019 -366.324)" fill="#fff"/>
      </g>
    </g>
    <g id="Group_147" data-name="Group 147" transform="translate(173.752 129.365)">
      <g id="Group_146" data-name="Group 146" clip-path="url(#clip-path-5)">
        <path id="Path_885" data-name="Path 885" d="M673.266,517.258a.146.146,0,1,1,.2-.056.146.146,0,0,1-.2.056" transform="translate(-671.254 -511.427)" fill="#ffd578"/>
        <path id="Path_886" data-name="Path 886" d="M675.92,515.7a.146.146,0,1,1,.2-.056.146.146,0,0,1-.2.056" transform="translate(-673.216 -510.274)" fill="#ffd578"/>
        <path id="Path_887" data-name="Path 887" d="M672.941,514.667a.146.146,0,1,1,.2-.056.146.146,0,0,1-.2.056" transform="translate(-671.014 -509.512)" fill="#ffd578"/>
        <path id="Path_888" data-name="Path 888" d="M676.682,519.179a.146.146,0,1,1,.2-.056.146.146,0,0,1-.2.056" transform="translate(-673.779 -512.846)" fill="#ffd578"/>
        <path id="Path_889" data-name="Path 889" d="M675.15,511.883a.146.146,0,1,1,.2-.056.146.146,0,0,1-.2.056" transform="translate(-672.647 -507.455)" fill="#ffd578"/>
        <path id="Path_890" data-name="Path 890" d="M678.9,516.731a.146.146,0,1,1,.2-.056.147.147,0,0,1-.2.056" transform="translate(-675.418 -511.037)" fill="#ffd578"/>
        <path id="Path_891" data-name="Path 891" d="M679.059,512.795a.146.146,0,1,1,.2-.056.146.146,0,0,1-.2.056" transform="translate(-675.536 -508.128)" fill="#ffd578"/>
        <path id="Path_892" data-name="Path 892" d="M673.92,508.618a.146.146,0,1,1,.2-.056.147.147,0,0,1-.2.056" transform="translate(-671.738 -505.041)" fill="#ffd578"/>
        <path id="Path_893" data-name="Path 893" d="M676.575,507.059a.146.146,0,1,1,.2-.056.146.146,0,0,1-.2.056" transform="translate(-673.7 -503.889)" fill="#ffd578"/>
        <path id="Path_894" data-name="Path 894" d="M673.6,506.027a.146.146,0,1,1,.2-.056.146.146,0,0,1-.2.056" transform="translate(-671.498 -503.127)" fill="#ffd578"/>
        <path id="Path_895" data-name="Path 895" d="M677.336,510.539a.146.146,0,1,1,.2-.056.146.146,0,0,1-.2.056" transform="translate(-674.262 -506.461)" fill="#ffd578"/>
        <path id="Path_896" data-name="Path 896" d="M675.8,503.243a.146.146,0,1,1,.2-.056.146.146,0,0,1-.2.056" transform="translate(-673.13 -501.07)" fill="#ffd578"/>
        <path id="Path_897" data-name="Path 897" d="M679.555,508.091a.146.146,0,1,1,.2-.056.146.146,0,0,1-.2.056" transform="translate(-675.902 -504.652)" fill="#ffd578"/>
        <path id="Path_898" data-name="Path 898" d="M679.714,504.155a.146.146,0,1,1,.2-.056.146.146,0,0,1-.2.056" transform="translate(-676.02 -501.743)" fill="#ffd578"/>
        <path id="Path_899" data-name="Path 899" d="M681.69,513.152a.146.146,0,1,1,.2-.056.146.146,0,0,1-.2.056" transform="translate(-677.48 -508.392)" fill="#ffd578"/>
        <path id="Path_900" data-name="Path 900" d="M684.344,511.592a.146.146,0,1,1,.2-.056.146.146,0,0,1-.2.056" transform="translate(-679.442 -507.239)" fill="#ffd578"/>
        <path id="Path_901" data-name="Path 901" d="M681.365,510.561a.146.146,0,1,1,.2-.056.146.146,0,0,1-.2.056" transform="translate(-677.24 -506.477)" fill="#ffd578"/>
        <path id="Path_902" data-name="Path 902" d="M685.105,515.072a.146.146,0,1,1,.2-.056.146.146,0,0,1-.2.056" transform="translate(-680.004 -509.811)" fill="#ffd578"/>
        <path id="Path_903" data-name="Path 903" d="M683.573,507.777a.146.146,0,1,1,.2-.056.146.146,0,0,1-.2.056" transform="translate(-678.872 -504.42)" fill="#ffd578"/>
        <path id="Path_904" data-name="Path 904" d="M688.182,509.081a.146.146,0,1,1,.2-.056.146.146,0,0,1-.2.056" transform="translate(-682.278 -505.384)" fill="#ffd578"/>
        <path id="Path_905" data-name="Path 905" d="M686.255,505.9a.146.146,0,1,1,.2-.056.146.146,0,0,1-.2.056" transform="translate(-680.854 -503.035)" fill="#ffd578"/>
        <path id="Path_906" data-name="Path 906" d="M680,522.494a.146.146,0,1,1,.2-.056.146.146,0,0,1-.2.056" transform="translate(-676.228 -515.296)" fill="#ffd578"/>
        <path id="Path_907" data-name="Path 907" d="M682.651,520.935a.146.146,0,1,1,.2-.056.146.146,0,0,1-.2.056" transform="translate(-678.19 -514.144)" fill="#ffd578"/>
        <path id="Path_908" data-name="Path 908" d="M679.671,519.9a.146.146,0,1,1,.2-.056.146.146,0,0,1-.2.056" transform="translate(-675.988 -513.381)" fill="#ffd578"/>
        <path id="Path_909" data-name="Path 909" d="M683.411,524.415a.146.146,0,1,1,.2-.056.146.146,0,0,1-.2.056" transform="translate(-678.753 -516.716)" fill="#ffd578"/>
        <path id="Path_910" data-name="Path 910" d="M681.879,517.12a.146.146,0,1,1,.2-.056.146.146,0,0,1-.2.056" transform="translate(-677.62 -511.325)" fill="#ffd578"/>
        <path id="Path_911" data-name="Path 911" d="M688.51,515.7a.146.146,0,1,1,.2-.056.146.146,0,0,1-.2.056" transform="translate(-682.521 -510.276)" fill="#ffd578"/>
        <path id="Path_912" data-name="Path 912" d="M685.789,518.031a.146.146,0,1,1,.2-.056.146.146,0,0,1-.2.056" transform="translate(-680.51 -511.998)" fill="#ffd578"/>
        <path id="Path_913" data-name="Path 913" d="M666.272,512.2a.146.146,0,1,1,.2-.056.146.146,0,0,1-.2.056" transform="translate(-666.086 -507.692)" fill="#ffd578"/>
        <path id="Path_914" data-name="Path 914" d="M668.928,510.646a.146.146,0,1,1,.2-.056.146.146,0,0,1-.2.056" transform="translate(-668.049 -506.54)" fill="#ffd578"/>
        <path id="Path_915" data-name="Path 915" d="M664.016,509.006a.146.146,0,1,1,.2-.056.146.146,0,0,1-.2.056" transform="translate(-664.419 -505.328)" fill="#ffd578"/>
        <path id="Path_916" data-name="Path 916" d="M669.688,514.126a.146.146,0,1,1,.2-.056.146.146,0,0,1-.2.056" transform="translate(-668.611 -509.112)" fill="#ffd578"/>
        <path id="Path_917" data-name="Path 917" d="M668.156,506.83a.146.146,0,1,1,.2-.056.147.147,0,0,1-.2.056" transform="translate(-667.479 -503.72)" fill="#ffd578"/>
        <path id="Path_918" data-name="Path 918" d="M671.907,511.677a.146.146,0,1,1,.2-.056.146.146,0,0,1-.2.056" transform="translate(-670.251 -507.303)" fill="#ffd578"/>
        <path id="Path_919" data-name="Path 919" d="M672.066,507.741a.146.146,0,1,1,.2-.056.147.147,0,0,1-.2.056" transform="translate(-670.368 -504.394)" fill="#ffd578"/>
        <path id="Path_920" data-name="Path 920" d="M681.508,501.455a.146.146,0,1,1,.2-.056.146.146,0,0,1-.2.056" transform="translate(-677.345 -499.748)" fill="#ffd578"/>
        <path id="Path_921" data-name="Path 921" d="M684.162,499.9a.146.146,0,1,1,.2-.056.146.146,0,0,1-.2.056" transform="translate(-679.307 -498.596)" fill="#ffd578"/>
        <path id="Path_922" data-name="Path 922" d="M681.182,498.864a.146.146,0,1,1,.2-.056.146.146,0,0,1-.2.056" transform="translate(-677.105 -497.833)" fill="#ffd578"/>
        <path id="Path_923" data-name="Path 923" d="M682.527,505.093a.146.146,0,1,1,.2-.056.147.147,0,0,1-.2.056" transform="translate(-678.099 -502.436)" fill="#ffd578"/>
        <path id="Path_924" data-name="Path 924" d="M678.813,496.888a.146.146,0,1,1,.2-.056.146.146,0,0,1-.2.056" transform="translate(-675.354 -496.373)" fill="#ffd578"/>
        <path id="Path_925" data-name="Path 925" d="M687.141,500.928a.146.146,0,1,1,.2-.056.146.146,0,0,1-.2.056" transform="translate(-681.509 -499.358)" fill="#ffd578"/>
        <path id="Path_926" data-name="Path 926" d="M687.3,496.992a.146.146,0,1,1,.2-.056.146.146,0,0,1-.2.056" transform="translate(-681.627 -496.45)" fill="#ffd578"/>
        <path id="Path_927" data-name="Path 927" d="M669.906,504.6a.146.146,0,1,1,.2-.056.146.146,0,0,1-.2.056" transform="translate(-668.772 -502.07)" fill="#ffd578"/>
        <path id="Path_928" data-name="Path 928" d="M671.516,499.711a.146.146,0,1,1,.2-.056.146.146,0,0,1-.2.056" transform="translate(-669.962 -498.459)" fill="#ffd578"/>
        <path id="Path_929" data-name="Path 929" d="M673.711,494.663a.146.146,0,1,1,.2-.056.146.146,0,0,1-.2.056" transform="translate(-671.583 -494.728)" fill="#ffd578"/>
        <path id="Path_930" data-name="Path 930" d="M672.278,503.19a.146.146,0,1,1,.2-.056.146.146,0,0,1-.2.056" transform="translate(-670.524 -501.031)" fill="#ffd578"/>
        <path id="Path_931" data-name="Path 931" d="M667.508,500.509a.146.146,0,1,1,.2-.056.146.146,0,0,1-.2.056" transform="translate(-666.999 -499.049)" fill="#ffd578"/>
        <path id="Path_932" data-name="Path 932" d="M674.5,500.742a.146.146,0,1,1,.2-.056.146.146,0,0,1-.2.056" transform="translate(-672.163 -499.221)" fill="#ffd578"/>
        <path id="Path_933" data-name="Path 933" d="M678.318,500.8a.146.146,0,1,1,.2-.056.146.146,0,0,1-.2.056" transform="translate(-674.988 -499.262)" fill="#ffd578"/>
        <path id="Path_934" data-name="Path 934" d="M663.99,520.573a.146.146,0,1,1,.2-.056.146.146,0,0,1-.2.056" transform="translate(-664.399 -513.876)" fill="#ffd578"/>
        <path id="Path_935" data-name="Path 935" d="M669.995,523.949a.146.146,0,1,1,.2-.056.146.146,0,0,1-.2.056" transform="translate(-668.837 -516.371)" fill="#ffd578"/>
        <path id="Path_936" data-name="Path 936" d="M666.7,516.141a.146.146,0,1,1,.2-.056.146.146,0,0,1-.2.056" transform="translate(-666.402 -510.601)" fill="#ffd578"/>
        <path id="Path_937" data-name="Path 937" d="M677.124,523.289a.146.146,0,1,1,.2-.056.146.146,0,0,1-.2.056" transform="translate(-674.106 -515.884)" fill="#ffd578"/>
        <path id="Path_938" data-name="Path 938" d="M669.224,520.134a.146.146,0,1,1,.2-.056.146.146,0,0,1-.2.056" transform="translate(-668.267 -513.552)" fill="#ffd578"/>
        <path id="Path_939" data-name="Path 939" d="M675.13,526.836a.146.146,0,1,1,.2-.056.146.146,0,0,1-.2.056" transform="translate(-672.632 -518.505)" fill="#ffd578"/>
        <path id="Path_940" data-name="Path 940" d="M673.133,521.045a.146.146,0,1,1,.2-.056.146.146,0,0,1-.2.056" transform="translate(-671.156 -514.225)" fill="#ffd578"/>
        <path id="Path_941" data-name="Path 941" d="M686.408,506.382a.146.146,0,1,1-.142.151.146.146,0,0,1,.142-.151" transform="translate(-680.917 -503.591)" fill="#ffd578"/>
        <path id="Path_942" data-name="Path 942" d="M684.934,509.085a.146.146,0,1,1-.142.15.146.146,0,0,1,.142-.15" transform="translate(-679.828 -505.589)" fill="#ffd578"/>
        <path id="Path_943" data-name="Path 943" d="M688.02,508.437a.146.146,0,1,1-.142.151.146.146,0,0,1,.142-.151" transform="translate(-682.108 -505.11)" fill="#ffd578"/>
        <path id="Path_944" data-name="Path 944" d="M682.491,506.492a.146.146,0,1,1-.142.151.146.146,0,0,1,.142-.151" transform="translate(-678.022 -503.673)" fill="#ffd578"/>
        <path id="Path_945" data-name="Path 945" d="M687.558,511.96a.146.146,0,1,1-.142.15.146.146,0,0,1,.142-.15" transform="translate(-681.767 -507.714)" fill="#ffd578"/>
        <path id="Path_946" data-name="Path 946" d="M681.848,509.733a.146.146,0,1,1-.142.151.146.146,0,0,1,.142-.151" transform="translate(-677.547 -506.068)" fill="#ffd578"/>
        <path id="Path_947" data-name="Path 947" d="M683.736,513.19a.146.146,0,1,1-.142.151.147.147,0,0,1,.142-.151" transform="translate(-678.942 -508.623)" fill="#ffd578"/>
        <path id="Path_948" data-name="Path 948" d="M690.292,514.128a.146.146,0,1,1-.142.15.146.146,0,0,1,.142-.15" transform="translate(-683.787 -509.316)" fill="#ffd578"/>
        <path id="Path_949" data-name="Path 949" d="M688.817,516.831a.146.146,0,1,1-.142.151.146.146,0,0,1,.142-.151" transform="translate(-682.697 -511.313)" fill="#ffd578"/>
        <path id="Path_950" data-name="Path 950" d="M691.9,516.183a.146.146,0,1,1-.142.15.146.146,0,0,1,.142-.15" transform="translate(-684.978 -510.835)" fill="#ffd578"/>
        <path id="Path_951" data-name="Path 951" d="M686.374,514.238a.146.146,0,1,1-.142.151.147.147,0,0,1,.142-.151" transform="translate(-680.892 -509.397)" fill="#ffd578"/>
        <path id="Path_952" data-name="Path 952" d="M691.441,519.706a.146.146,0,1,1-.142.15.146.146,0,0,1,.142-.15" transform="translate(-684.637 -513.438)" fill="#ffd578"/>
        <path id="Path_953" data-name="Path 953" d="M685.731,517.479a.146.146,0,1,1-.142.151.146.146,0,0,1,.142-.151" transform="translate(-680.417 -511.792)" fill="#ffd578"/>
        <path id="Path_954" data-name="Path 954" d="M687.619,520.936a.146.146,0,1,1-.142.15.146.146,0,0,1,.142-.15" transform="translate(-681.812 -514.347)" fill="#ffd578"/>
        <path id="Path_955" data-name="Path 955" d="M681.3,514.237a.146.146,0,1,1-.142.15.146.146,0,0,1,.142-.15" transform="translate(-677.14 -509.396)" fill="#ffd578"/>
        <path id="Path_956" data-name="Path 956" d="M679.822,516.94a.146.146,0,1,1-.142.15.147.147,0,0,1,.142-.15" transform="translate(-676.05 -511.394)" fill="#ffd578"/>
        <path id="Path_957" data-name="Path 957" d="M682.908,516.292a.146.146,0,1,1-.142.15.146.146,0,0,1,.142-.15" transform="translate(-678.33 -510.915)" fill="#ffd578"/>
        <path id="Path_958" data-name="Path 958" d="M677.379,514.347a.146.146,0,1,1-.142.15.146.146,0,0,1,.142-.15" transform="translate(-674.244 -509.478)" fill="#ffd578"/>
        <path id="Path_959" data-name="Path 959" d="M682.446,519.815a.146.146,0,1,1-.142.151.146.146,0,0,1,.142-.151" transform="translate(-677.989 -513.519)" fill="#ffd578"/>
        <path id="Path_960" data-name="Path 960" d="M677.824,521.067a.146.146,0,1,1-.142.15.146.146,0,0,1,.142-.15" transform="translate(-674.573 -514.444)" fill="#ffd578"/>
        <path id="Path_961" data-name="Path 961" d="M681.11,522.8a.146.146,0,1,1-.142.15.146.146,0,0,1,.142-.15" transform="translate(-677.002 -515.726)" fill="#ffd578"/>
        <path id="Path_962" data-name="Path 962" d="M677.943,505.354a.146.146,0,1,1-.142.151.146.146,0,0,1,.142-.151" transform="translate(-674.661 -502.832)" fill="#ffd578"/>
        <path id="Path_963" data-name="Path 963" d="M676.469,508.057a.146.146,0,1,1-.142.15.146.146,0,0,1,.142-.15" transform="translate(-673.572 -504.829)" fill="#ffd578"/>
        <path id="Path_964" data-name="Path 964" d="M679.554,507.409a.146.146,0,1,1-.143.151.146.146,0,0,1,.143-.151" transform="translate(-675.852 -504.35)" fill="#ffd578"/>
        <path id="Path_965" data-name="Path 965" d="M674.026,505.464a.146.146,0,1,1-.142.151.146.146,0,0,1,.142-.151" transform="translate(-671.766 -502.913)" fill="#ffd578"/>
        <path id="Path_966" data-name="Path 966" d="M679.092,510.932a.146.146,0,1,1-.142.15.146.146,0,0,1,.142-.15" transform="translate(-675.51 -506.954)" fill="#ffd578"/>
        <path id="Path_967" data-name="Path 967" d="M674.136,515.56a.146.146,0,1,1-.142.151.146.146,0,0,1,.142-.151" transform="translate(-671.848 -510.374)" fill="#ffd578"/>
        <path id="Path_968" data-name="Path 968" d="M675.271,512.162a.146.146,0,1,1-.142.151.146.146,0,0,1,.142-.151" transform="translate(-672.687 -507.863)" fill="#ffd578"/>
        <path id="Path_969" data-name="Path 969" d="M695,507.118a.146.146,0,1,1-.142.15.146.146,0,0,1,.142-.15" transform="translate(-687.27 -504.135)" fill="#ffd578"/>
        <path id="Path_970" data-name="Path 970" d="M693.53,509.821a.146.146,0,1,1-.142.15.146.146,0,0,1,.142-.15" transform="translate(-686.18 -506.133)" fill="#ffd578"/>
        <path id="Path_971" data-name="Path 971" d="M698.584,508.7a.146.146,0,1,1-.142.151.146.146,0,0,1,.142-.151" transform="translate(-689.915 -505.305)" fill="#ffd578"/>
        <path id="Path_972" data-name="Path 972" d="M691.087,507.228a.146.146,0,1,1-.142.15.147.147,0,0,1,.142-.15" transform="translate(-684.375 -504.217)" fill="#ffd578"/>
        <path id="Path_973" data-name="Path 973" d="M696.154,512.7a.146.146,0,1,1-.142.15.147.147,0,0,1,.142-.15" transform="translate(-688.12 -508.258)" fill="#ffd578"/>
        <path id="Path_974" data-name="Path 974" d="M690.444,510.469a.146.146,0,1,1-.142.151.146.146,0,0,1,.142-.151" transform="translate(-683.9 -506.612)" fill="#ffd578"/>
        <path id="Path_975" data-name="Path 975" d="M692.332,513.926a.146.146,0,1,1-.142.151.146.146,0,0,1,.142-.151" transform="translate(-685.295 -509.167)" fill="#ffd578"/>
        <path id="Path_976" data-name="Path 976" d="M687.47,524.173a.146.146,0,1,1-.142.151.147.147,0,0,1,.142-.151" transform="translate(-681.702 -516.739)" fill="#ffd578"/>
        <path id="Path_977" data-name="Path 977" d="M686,526.876a.146.146,0,1,1-.142.151.146.146,0,0,1,.142-.151" transform="translate(-680.612 -518.737)" fill="#ffd578"/>
        <path id="Path_978" data-name="Path 978" d="M689.081,526.228a.146.146,0,1,1-.142.151.146.146,0,0,1,.142-.151" transform="translate(-682.892 -518.258)" fill="#ffd578"/>
        <path id="Path_979" data-name="Path 979" d="M684.724,521.578a.146.146,0,1,1-.142.15.146.146,0,0,1,.142-.15" transform="translate(-679.672 -514.822)" fill="#ffd578"/>
        <path id="Path_980" data-name="Path 980" d="M692.13,526.7a.146.146,0,1,1-.142.15.146.146,0,0,1,.142-.15" transform="translate(-685.146 -518.61)" fill="#ffd578"/>
        <path id="Path_981" data-name="Path 981" d="M682.909,527.524a.146.146,0,1,1-.142.15.146.146,0,0,1,.142-.15" transform="translate(-678.331 -519.216)" fill="#ffd578"/>
        <path id="Path_982" data-name="Path 982" d="M684.8,530.981a.146.146,0,1,1-.142.15.146.146,0,0,1,.142-.15" transform="translate(-679.727 -521.771)" fill="#ffd578"/>
        <path id="Path_983" data-name="Path 983" d="M695.8,515.512a.146.146,0,1,1-.142.151.146.146,0,0,1,.142-.151" transform="translate(-687.859 -510.339)" fill="#ffd578"/>
        <path id="Path_984" data-name="Path 984" d="M696.935,520.53a.146.146,0,1,1-.142.151.146.146,0,0,1,.142-.151" transform="translate(-688.697 -514.047)" fill="#ffd578"/>
        <path id="Path_985" data-name="Path 985" d="M697.65,525.987a.146.146,0,1,1-.142.15.146.146,0,0,1,.142-.15" transform="translate(-689.225 -518.08)" fill="#ffd578"/>
        <path id="Path_986" data-name="Path 986" d="M694.492,517.937a.146.146,0,1,1-.142.15.146.146,0,0,1,.142-.15" transform="translate(-686.891 -512.131)" fill="#ffd578"/>
        <path id="Path_987" data-name="Path 987" d="M699.962,517.784a.146.146,0,1,1-.142.15.146.146,0,0,1,.142-.15" transform="translate(-690.934 -512.018)" fill="#ffd578"/>
        <path id="Path_988" data-name="Path 988" d="M693.849,521.178a.146.146,0,1,1-.142.15.146.146,0,0,1,.142-.15" transform="translate(-686.416 -514.526)" fill="#ffd578"/>
        <path id="Path_989" data-name="Path 989" d="M690.544,523.1a.146.146,0,1,1-.142.15.146.146,0,0,1,.142-.15" transform="translate(-683.974 -515.945)" fill="#ffd578"/>
        <path id="Path_990" data-name="Path 990" d="M692.658,498.768a.146.146,0,1,1-.142.15.146.146,0,0,1,.142-.15" transform="translate(-685.536 -497.965)" fill="#ffd578"/>
        <path id="Path_991" data-name="Path 991" d="M685.771,498.962a.146.146,0,1,1-.142.15.146.146,0,0,1,.142-.15" transform="translate(-680.446 -498.108)" fill="#ffd578"/>
        <path id="Path_992" data-name="Path 992" d="M692.613,503.963a.146.146,0,1,1-.142.151.146.146,0,0,1,.142-.151" transform="translate(-685.503 -501.804)" fill="#ffd578"/>
        <path id="Path_993" data-name="Path 993" d="M680,503.195a.146.146,0,1,1-.142.151.146.146,0,0,1,.142-.151" transform="translate(-676.179 -501.236)" fill="#ffd578"/>
        <path id="Path_994" data-name="Path 994" d="M688.4,501.837a.146.146,0,1,1-.142.151.146.146,0,0,1,.142-.151" transform="translate(-682.385 -500.233)" fill="#ffd578"/>
        <path id="Path_995" data-name="Path 995" d="M679.883,499.127a.146.146,0,1,1-.142.151.146.146,0,0,1,.142-.151" transform="translate(-676.095 -498.23)" fill="#ffd578"/>
        <path id="Path_996" data-name="Path 996" d="M684.574,503.067a.146.146,0,1,1-.142.151.146.146,0,0,1,.142-.151" transform="translate(-679.562 -501.142)" fill="#ffd578"/>
        <path id="Path_997" data-name="Path 997" d="M690.725,526.89a.146.146,0,1,1,.207.005.146.146,0,0,1-.207-.005" transform="translate(-684.182 -518.565)" fill="#ffd578"/>
        <path id="Path_998" data-name="Path 998" d="M693.721,526.178a.146.146,0,1,1,.207.005.146.146,0,0,1-.207-.005" transform="translate(-686.396 -518.039)" fill="#ffd578"/>
        <path id="Path_999" data-name="Path 999" d="M691.175,524.318a.146.146,0,1,1,.207.005.146.146,0,0,1-.207-.005" transform="translate(-684.515 -516.664)" fill="#ffd578"/>
        <path id="Path_1000" data-name="Path 1000" d="M693.427,529.729a.146.146,0,1,1,.207.005.146.146,0,0,1-.207-.005" transform="translate(-686.179 -520.662)" fill="#ffd578"/>
        <path id="Path_1001" data-name="Path 1001" d="M694.1,522.3a.146.146,0,1,1,.207.005.146.146,0,0,1-.207-.005" transform="translate(-686.68 -515.176)" fill="#ffd578"/>
        <path id="Path_1002" data-name="Path 1002" d="M696.266,528.04a.146.146,0,1,1,.207.005.146.146,0,0,1-.207-.005" transform="translate(-688.277 -519.414)" fill="#ffd578"/>
        <path id="Path_1003" data-name="Path 1003" d="M697.574,524.324a.146.146,0,1,1,.207.005.146.146,0,0,1-.207-.005" transform="translate(-689.244 -516.668)" fill="#ffd578"/>
        <path id="Path_1004" data-name="Path 1004" d="M693.887,518.823a.146.146,0,1,1,.207.005.146.146,0,0,1-.207-.005" transform="translate(-686.519 -512.603)" fill="#ffd578"/>
        <path id="Path_1005" data-name="Path 1005" d="M696.883,518.112a.146.146,0,1,1,.207.005.146.146,0,0,1-.207-.005" transform="translate(-688.733 -512.077)" fill="#ffd578"/>
        <path id="Path_1006" data-name="Path 1006" d="M694.337,516.251a.146.146,0,1,1,.207,0,.146.146,0,0,1-.207,0" transform="translate(-686.852 -510.702)" fill="#ffd578"/>
        <path id="Path_1007" data-name="Path 1007" d="M696.589,521.662a.146.146,0,1,1,.207.005.146.146,0,0,1-.207-.005" transform="translate(-688.516 -514.701)" fill="#ffd578"/>
        <path id="Path_1008" data-name="Path 1008" d="M697.266,514.238a.146.146,0,1,1,.207.005.146.146,0,0,1-.207-.005" transform="translate(-689.016 -509.214)" fill="#ffd578"/>
        <path id="Path_1009" data-name="Path 1009" d="M699.428,519.973a.146.146,0,1,1,.207.005.146.146,0,0,1-.207-.005" transform="translate(-690.614 -513.453)" fill="#ffd578"/>
        <path id="Path_1010" data-name="Path 1010" d="M700.735,516.257a.146.146,0,1,1,.207.005.146.146,0,0,1-.207-.005" transform="translate(-691.58 -510.706)" fill="#ffd578"/>
        <path id="Path_1011" data-name="Path 1011" d="M699.983,525.437a.146.146,0,1,1,.207.005.146.146,0,0,1-.207-.005" transform="translate(-691.024 -517.491)" fill="#ffd578"/>
        <path id="Path_1012" data-name="Path 1012" d="M702.979,524.726a.146.146,0,1,1,.207.005.146.146,0,0,1-.207-.005" transform="translate(-693.238 -516.965)" fill="#ffd578"/>
        <path id="Path_1013" data-name="Path 1013" d="M700.433,522.865a.146.146,0,1,1,.207.005.146.146,0,0,1-.207-.005" transform="translate(-691.357 -515.59)" fill="#ffd578"/>
        <path id="Path_1014" data-name="Path 1014" d="M702.685,528.276a.146.146,0,1,1,.207.005.146.146,0,0,1-.207-.005" transform="translate(-693.021 -519.589)" fill="#ffd578"/>
        <path id="Path_1015" data-name="Path 1015" d="M703.362,520.852a.146.146,0,1,1,.207.005.146.146,0,0,1-.207-.005" transform="translate(-693.521 -514.102)" fill="#ffd578"/>
        <path id="Path_1016" data-name="Path 1016" d="M707.384,523.451a.146.146,0,1,1,.207.005.146.146,0,0,1-.207-.005" transform="translate(-696.494 -516.023)" fill="#ffd578"/>
        <path id="Path_1017" data-name="Path 1017" d="M706.476,519.849a.146.146,0,1,1,.207.005.146.146,0,0,1-.207-.005" transform="translate(-695.823 -513.361)" fill="#ffd578"/>
        <path id="Path_1018" data-name="Path 1018" d="M695.622,533.871a.146.146,0,1,1,.207.005.146.146,0,0,1-.207-.005" transform="translate(-687.801 -523.723)" fill="#ffd578"/>
        <path id="Path_1019" data-name="Path 1019" d="M698.618,533.16a.146.146,0,1,1,.207.005.146.146,0,0,1-.207-.005" transform="translate(-690.016 -523.198)" fill="#ffd578"/>
        <path id="Path_1020" data-name="Path 1020" d="M696.072,531.3a.146.146,0,1,1,.207.005.146.146,0,0,1-.207-.005" transform="translate(-688.134 -521.823)" fill="#ffd578"/>
        <path id="Path_1021" data-name="Path 1021" d="M698.324,536.71a.146.146,0,1,1,.207.005.146.146,0,0,1-.207-.005" transform="translate(-689.798 -525.822)" fill="#ffd578"/>
        <path id="Path_1022" data-name="Path 1022" d="M699,529.286a.146.146,0,1,1,.207.005.146.146,0,0,1-.207-.005" transform="translate(-690.298 -520.335)" fill="#ffd578"/>
        <path id="Path_1023" data-name="Path 1023" d="M705.756,529.875a.146.146,0,1,1,.207.005.146.146,0,0,1-.207-.005" transform="translate(-695.291 -520.771)" fill="#ffd578"/>
        <path id="Path_1024" data-name="Path 1024" d="M702.47,531.3a.146.146,0,1,1,.207.005.146.146,0,0,1-.207-.005" transform="translate(-692.862 -521.827)" fill="#ffd578"/>
        <path id="Path_1025" data-name="Path 1025" d="M685.524,520.007a.146.146,0,1,1,.207.005.146.146,0,0,1-.207-.005" transform="translate(-680.339 -513.478)" fill="#ffd578"/>
        <path id="Path_1026" data-name="Path 1026" d="M688.519,519.3a.146.146,0,1,1,.207.005.146.146,0,0,1-.207-.005" transform="translate(-682.552 -512.952)" fill="#ffd578"/>
        <path id="Path_1027" data-name="Path 1027" d="M684.306,516.287a.146.146,0,1,1,.207.005.146.146,0,0,1-.207-.005" transform="translate(-679.439 -510.728)" fill="#ffd578"/>
        <path id="Path_1028" data-name="Path 1028" d="M688.225,522.846a.146.146,0,1,1,.207.005.146.146,0,0,1-.207-.005" transform="translate(-682.335 -515.576)" fill="#ffd578"/>
        <path id="Path_1029" data-name="Path 1029" d="M688.9,515.422a.146.146,0,1,1,.207.005.146.146,0,0,1-.207-.005" transform="translate(-682.835 -510.089)" fill="#ffd578"/>
        <path id="Path_1030" data-name="Path 1030" d="M691.065,521.156a.146.146,0,1,1,.207.005.146.146,0,0,1-.207-.005" transform="translate(-684.434 -514.327)" fill="#ffd578"/>
        <path id="Path_1031" data-name="Path 1031" d="M692.372,517.441a.146.146,0,1,1,.207.005.146.146,0,0,1-.207-.005" transform="translate(-685.4 -511.581)" fill="#ffd578"/>
        <path id="Path_1032" data-name="Path 1032" d="M703.243,514.2a.146.146,0,1,1,.207.005.146.146,0,0,1-.207-.005" transform="translate(-693.433 -509.188)" fill="#ffd578"/>
        <path id="Path_1033" data-name="Path 1033" d="M706.238,513.491a.146.146,0,1,1,.207.005.146.146,0,0,1-.207-.005" transform="translate(-695.647 -508.663)" fill="#ffd578"/>
        <path id="Path_1034" data-name="Path 1034" d="M703.693,511.63a.146.146,0,1,1,.207.005.146.146,0,0,1-.207-.005" transform="translate(-693.766 -507.287)" fill="#ffd578"/>
        <path id="Path_1035" data-name="Path 1035" d="M703.15,517.98a.146.146,0,1,1,.207.005.146.146,0,0,1-.207-.005" transform="translate(-693.365 -511.98)" fill="#ffd578"/>
        <path id="Path_1036" data-name="Path 1036" d="M702.007,509.045a.146.146,0,1,1,.207.005.146.146,0,0,1-.207-.005" transform="translate(-692.52 -505.377)" fill="#ffd578"/>
        <path id="Path_1037" data-name="Path 1037" d="M708.784,515.352a.146.146,0,1,1,.207.006.146.146,0,0,1-.207-.006" transform="translate(-697.528 -510.038)" fill="#ffd578"/>
        <path id="Path_1038" data-name="Path 1038" d="M710.091,511.636a.146.146,0,1,1,.207.005.146.146,0,0,1-.207-.005" transform="translate(-698.494 -507.292)" fill="#ffd578"/>
        <path id="Path_1039" data-name="Path 1039" d="M691.231,513.8a.146.146,0,1,1,.207.005.146.146,0,0,1-.207-.005" transform="translate(-684.556 -508.892)" fill="#ffd578"/>
        <path id="Path_1040" data-name="Path 1040" d="M694.2,509.6a.146.146,0,1,1,.207.005.146.146,0,0,1-.207-.005" transform="translate(-686.753 -505.788)" fill="#ffd578"/>
        <path id="Path_1041" data-name="Path 1041" d="M697.783,505.421a.146.146,0,1,1,.207.005.146.146,0,0,1-.207-.005" transform="translate(-689.398 -502.698)" fill="#ffd578"/>
        <path id="Path_1042" data-name="Path 1042" d="M693.91,513.151a.146.146,0,1,1,.207.005.146.146,0,0,1-.207-.005" transform="translate(-686.536 -508.412)" fill="#ffd578"/>
        <path id="Path_1043" data-name="Path 1043" d="M690.138,509.188a.146.146,0,1,1,.207.005.146.146,0,0,1-.207-.005" transform="translate(-683.749 -505.482)" fill="#ffd578"/>
        <path id="Path_1044" data-name="Path 1044" d="M696.749,511.463a.146.146,0,1,1,.207.005.146.146,0,0,1-.207-.005" transform="translate(-688.634 -507.163)" fill="#ffd578"/>
        <path id="Path_1045" data-name="Path 1045" d="M700.387,512.637a.146.146,0,1,1,.207.005.146.146,0,0,1-.207-.005" transform="translate(-691.323 -508.031)" fill="#ffd578"/>
        <path id="Path_1046" data-name="Path 1046" d="M680.885,527.336a.146.146,0,1,1,.207.005.146.146,0,0,1-.207-.005" transform="translate(-676.91 -518.894)" fill="#ffd578"/>
        <path id="Path_1047" data-name="Path 1047" d="M685.634,532.326a.146.146,0,1,1,.207.005.146.146,0,0,1-.207-.005" transform="translate(-680.42 -522.582)" fill="#ffd578"/>
        <path id="Path_1048" data-name="Path 1048" d="M684.777,523.895a.146.146,0,1,1,.207.005.146.146,0,0,1-.207-.005" transform="translate(-679.787 -516.351)" fill="#ffd578"/>
        <path id="Path_1049" data-name="Path 1049" d="M692.643,533.788a.146.146,0,1,1,.207.005.146.146,0,0,1-.207-.005" transform="translate(-685.6 -523.662)" fill="#ffd578"/>
        <path id="Path_1050" data-name="Path 1050" d="M686.017,528.452a.146.146,0,1,1,.207.005.146.146,0,0,1-.207-.005" transform="translate(-680.703 -519.719)" fill="#ffd578"/>
        <path id="Path_1051" data-name="Path 1051" d="M689.695,536.593a.146.146,0,1,1,.207.005.146.146,0,0,1-.207-.005" transform="translate(-683.421 -525.735)" fill="#ffd578"/>
        <path id="Path_1052" data-name="Path 1052" d="M689.487,530.471a.146.146,0,1,1,.207.005.146.146,0,0,1-.207-.005" transform="translate(-683.267 -521.211)" fill="#ffd578"/>
      </g>
    </g>
    <g id="Group_152" data-name="Group 152" transform="translate(0 -0.001)">
      <g id="Group_151" data-name="Group 151" clip-path="url(#clip-path-2)">
        <path id="Path_1053" data-name="Path 1053" d="M665.094,505.843a.24.24,0,0,1-.24-.24v-7.376a3.46,3.46,0,0,1,3.456-3.456h1.822a3.46,3.46,0,0,1,3.456,3.456V504.8a.239.239,0,0,1-.479,0v-6.574a2.98,2.98,0,0,0-2.977-2.977H668.31a2.98,2.98,0,0,0-2.977,2.977V505.6a.24.24,0,0,1-.24.24" transform="translate(-491.341 -365.646)" fill="#080435"/>
        <path id="Path_1054" data-name="Path 1054" d="M652.212,448.658c2.886,5.9,8.7,8.979,12.984,6.877s4.838-9.575,2.531-14.488c-2.791-5.946-8.7-8.979-12.985-6.877s-5.418,8.588-2.531,14.488" transform="translate(-480.818 -320.368)" fill="#fff"/>
        <path id="Path_1055" data-name="Path 1055" d="M661.63,455.749a8.408,8.408,0,0,1-2.724-.476,14.019,14.019,0,0,1-7.571-7.2c-2.94-6.009-1.755-12.652,2.641-14.808a7.475,7.475,0,0,1,5.878-.184,13.692,13.692,0,0,1,7.429,7.175c2.383,5.078,1.748,12.651-2.643,14.8a6.78,6.78,0,0,1-3.01.687m-9.865-7.884a13.533,13.533,0,0,0,7.3,6.956,6.9,6.9,0,0,0,5.367-.188c1.913-.938,3.193-3.072,3.606-6.008a15.05,15.05,0,0,0-1.186-8.163,13.206,13.206,0,0,0-7.154-6.926,7.009,7.009,0,0,0-5.508.162c-4.159,2.04-5.246,8.4-2.422,14.168" transform="translate(-480.156 -319.679)" fill="#080435"/>
        <path id="Path_1056" data-name="Path 1056" d="M683.678,468.35a.192.192,0,0,0,0-.364,2.064,2.064,0,0,0-2.443.682.193.193,0,0,0,.021.271.209.209,0,0,0,.27-.021,3.268,3.268,0,0,1,2.029-.569.191.191,0,0,0,.121,0" transform="translate(-503.414 -345.737)" fill="#080435"/>
        <path id="Path_1057" data-name="Path 1057" d="M705.6,462.816a.192.192,0,0,0,0-.364,2.065,2.065,0,0,0-2.444.682.193.193,0,0,0,.021.271.209.209,0,0,0,.27-.021,3.266,3.266,0,0,1,2.029-.569.19.19,0,0,0,.121,0" transform="translate(-519.613 -341.647)" fill="#080435"/>
        <path id="Path_1058" data-name="Path 1058" d="M685.363,475.808c.01.458.287.824.618.817s.592-.383.581-.841-.287-.824-.619-.817-.591.383-.581.841" transform="translate(-506.498 -351.009)" fill="#080435"/>
        <path id="Path_1059" data-name="Path 1059" d="M706.359,471.676c.01.458.287.824.618.817s.592-.383.581-.841-.287-.824-.619-.817-.591.383-.581.841" transform="translate(-522.014 -347.955)" fill="#080435"/>
        <path id="Path_1060" data-name="Path 1060" d="M700.78,485.969a.171.171,0,0,1-.028-.34,1.622,1.622,0,0,0,1.15-.781.171.171,0,0,1,.3.155,1.967,1.967,0,0,1-1.4.963l-.028,0" transform="translate(-517.765 -358.244)" fill="#080435"/>
        <path id="Path_1061" data-name="Path 1061" d="M654.627,427.126s.792,11.9-10.817,15.893,0-15.893,0-15.893Z" transform="translate(-471.977 -315.654)" fill="#31313b"/>
        <path id="Path_1062" data-name="Path 1062" d="M659.432,483.666a1.887,1.887,0,0,0,2.582-.374c.4-.753-.306-1.887-1.15-2.352a1.873,1.873,0,0,0-2.582.375,1.9,1.9,0,0,0,1.15,2.352" transform="translate(-486.385 -355.18)" fill="#fff"/>
        <path id="Path_1063" data-name="Path 1063" d="M660.25,483.32a2.618,2.618,0,0,1-2.034-1.561,1.689,1.689,0,0,1,.344-1.621c.87-1.009,2.677.237,2.753.292l-.174.247c-.016-.011-1.658-1.144-2.351-.341a1.388,1.388,0,0,0-.284,1.332,2.336,2.336,0,0,0,1.819,1.359Z" transform="translate(-486.378 -354.54)" fill="#080435"/>
        <path id="Path_1064" data-name="Path 1064" d="M723.452,534.071s12.017-.754,17.274,9.809c0,0-7.534,10.172-13.268,10.413s-4.006-20.221-4.006-20.221" transform="translate(-534.465 -394.679)" fill="#79aac8"/>
        <path id="Path_1065" data-name="Path 1065" d="M692.266,495.618a3.318,3.318,0,0,0,.662.83,2.837,2.837,0,0,0,2.459.731,2.128,2.128,0,0,0,1.27-.631,2.4,2.4,0,0,0,.493-1.85,15.745,15.745,0,0,1-4.885.919" transform="translate(-511.599 -365.592)" fill="#31313c"/>
        <path id="Path_1066" data-name="Path 1066" d="M694.8,499.989a2.835,2.835,0,0,0,2.459.732,2.128,2.128,0,0,0,1.271-.631c-.506-.437-1.6-1.045-3.73-.1" transform="translate(-513.475 -369.132)" fill="#fd8065"/>
        <g id="Group_150" data-name="Group 150" transform="translate(230.381 70.881)" opacity="0.3">
          <g id="Group_149" data-name="Group 149">
            <g id="Group_148" data-name="Group 148" clip-path="url(#clip-path-7)">
              <path id="Path_1067" data-name="Path 1067" d="M968.725,378.524a57.3,57.3,0,1,0-78.28-20.968,57.3,57.3,0,0,0,78.28,20.968" transform="translate(-882.756 -271.587)" fill="#fff"/>
            </g>
          </g>
        </g>
        <path id="Path_1068" data-name="Path 1068" d="M615.945,632.874l2.562,4.437a2.41,2.41,0,0,0,3.283.879l71.641-41.37a2.41,2.41,0,0,0,.879-3.283l-2.562-4.437a2.41,2.41,0,0,0-3.283-.879l-71.642,41.37a2.41,2.41,0,0,0-.879,3.283" transform="translate(-454.96 -434.47)" fill="#31313b"/>
        <path id="Path_1069" data-name="Path 1069" d="M589.041,688.312h0a4.979,4.979,0,0,0,6.782,1.817l48.214-27.842-4.966-8.6L590.857,681.53a4.979,4.979,0,0,0-1.817,6.782" transform="translate(-434.825 -483.088)" fill="#31313b"/>
        <path id="Path_1070" data-name="Path 1070" d="M916.961,379.274a59.665,59.665,0,1,1,15.623,2.069,60.408,60.408,0,0,1-15.623-2.069M959.792,368.6a54.6,54.6,0,1,0-41.434,5.459,54.665,54.665,0,0,0,41.434-5.459" transform="translate(-644.792 -193.12)" fill="#31313b"/>
        <path id="Path_1071" data-name="Path 1071" d="M636.718,706.947c2.239-.248,6.127-.454,8.169-1.406,1.627-.594,7.878-2.744,8.086-1.346.225,1.51-3.573,3.392-6.212,4.447a15.6,15.6,0,0,1,4.652,4.252c.8,1.365.6,2.705-.512,3.216.607,1.531.32,2.369-.108,2.778-1.059,1.015-2.429.23-3.458-1.448a8.73,8.73,0,0,1,.5,2.687,2.481,2.481,0,0,1-1.036,1.594c-.483.277-1.412-.347-1.853-.958a12.829,12.829,0,0,1-1.37-2.554c-.168-.443-.078-.148-.424-.535-.747.231-2.761.594-3.119.672-1.335.289-2.934-1.041-4.1-1.978-.565-.454-1.317-9.185.786-9.418" transform="translate(-469.518 -520.07)" fill="#fff"/>
        <path id="Path_1072" data-name="Path 1072" d="M679.453,736.844a.205.205,0,0,1-.185-.116,11.5,11.5,0,0,0-5.186-4.824.205.205,0,0,1,.163-.377,11.72,11.72,0,0,1,5.393,5.023.2.2,0,0,1-.184.294" transform="translate(-498.069 -540.601)" fill="#080435"/>
        <path id="Path_1073" data-name="Path 1073" d="M671.52,745.405a.2.2,0,0,1-.185-.116,7.173,7.173,0,0,0-2.833-2.981.205.205,0,0,1,.187-.365,7.456,7.456,0,0,1,3.016,3.168.205.205,0,0,1-.185.294" transform="translate(-493.954 -548.293)" fill="#080435"/>
        <path id="Path_1074" data-name="Path 1074" d="M549.568,600.9s-12.776-4.655-19.38-11.822c-1.458-1.582,13.588-20.1,13.588-20.1l-5.328-4.818-6.661-4.061s-23.413,20.141-17.6,32.229c6.178,12.838,31.272,17.8,31.272,17.8Z" transform="translate(-379.311 -413.923)" fill="#fff"/>
        <path id="Path_1075" data-name="Path 1075" d="M562.853,661.7a.219.219,0,0,1-.162-.072,10.339,10.339,0,0,0-5.052-3.125.219.219,0,1,1,.085-.43,10.612,10.612,0,0,1,5.292,3.26.219.219,0,0,1-.162.366" transform="translate(-411.976 -486.325)" fill="#080435"/>
        <path id="Path_1076" data-name="Path 1076" d="M636.488,746.674a5.162,5.162,0,0,1-1.956-.378,7.754,7.754,0,0,1-3.832-4.19.219.219,0,1,1,.411-.151,7.443,7.443,0,0,0,3.588,3.936,5.693,5.693,0,0,0,4.714-.4.219.219,0,0,1,.19.394,7.2,7.2,0,0,1-3.115.787" transform="translate(-466.09 -548.213)" fill="#080435"/>
        <path id="Path_1077" data-name="Path 1077" d="M544.174,609.27a.22.22,0,0,1-.04,0,79.587,79.587,0,0,1-13.931-4.2c-12.1-4.944-16.462-10.821-17.991-14.88-1.763-4.681.751-11.359,7.472-19.848a103.125,103.125,0,0,1,10.6-11.336.219.219,0,1,1,.292.326c-.221.2-22.036,19.868-17.955,30.7,2.714,7.2,11.145,11.93,17.74,14.626a79.163,79.163,0,0,0,13.851,4.175.219.219,0,0,1-.039.434" transform="translate(-378.132 -413.074)" fill="#080435"/>
        <path id="Path_1078" data-name="Path 1078" d="M603.091,640.444a1.139,1.139,0,0,1-.324-.048c-.677-.2-1.336-1.043-1.959-2.5a5.6,5.6,0,0,0-2.021-2.52.205.205,0,0,1,.206-.355,5.9,5.9,0,0,1,2.192,2.714c.713,1.672,1.317,2.157,1.7,2.271a.749.749,0,0,0,.659-.122c1.593-1.068.589-3.448.231-4.173-.069-.128-.11-.211-.118-.227a.205.205,0,0,1,.363-.192c.006.01.052.092.12.227.279.507,1.042,1.758,1.918,2.058a1,1,0,0,0,.808-.046,1.7,1.7,0,0,0,.952-1.04,2.689,2.689,0,0,0-.333-1.857.2.2,0,0,1,.05-.269,1.971,1.971,0,0,0,.9-1.736c-.163-2.514-5.07-5.415-5.12-5.444a.205.205,0,0,1,.022-.365c3.106-1.356,6.3-3.15,6.262-3.806a.676.676,0,0,0-.3-.581c-.752-.487-2.948-.037-6.525,1.337a23.09,23.09,0,0,1-2.768.883,9.877,9.877,0,0,1-6.268-.185c-1.153-.515-11.415-5.2-16.73-10.682-.31-.32-1.133-1.169,6.171-10.942,3.561-4.765,7.368-9.386,7.406-9.432a.205.205,0,0,1,.317.261c-.038.046-3.84,4.66-7.4,9.417-6.582,8.807-6.412,10.194-6.2,10.41,2.011,2.075,7.77,6.642,16.6,10.593a9.213,9.213,0,0,0,6,.161,22.651,22.651,0,0,0,2.718-.867c3.811-1.464,6-1.877,6.9-1.3a1.082,1.082,0,0,1,.488.9c.064,1.163-4.536,3.325-6.148,4.046,1.156.727,4.832,3.216,4.984,5.565a2.326,2.326,0,0,1-.922,1.977,2.946,2.946,0,0,1,.29,2.025,2.1,2.1,0,0,1-1.164,1.294,1.415,1.415,0,0,1-1.124.067,3.065,3.065,0,0,1-1.224-.91q.012.053.024.107a2.712,2.712,0,0,1-.952,3.062,1.211,1.211,0,0,1-.68.223" transform="translate(-426.276 -438.484)" fill="#080435"/>
        <path id="Path_1079" data-name="Path 1079" d="M576.721,531.726s-.48,0-1.319.078a32.3,32.3,0,0,0-19.807,9.29s8.7,15.367,22.154,14.462l3.1-7.092Z" transform="translate(-410.596 -392.955)" fill="#79aac8"/>
        <path id="Path_1080" data-name="Path 1080" d="M877.862,636.088a7.729,7.729,0,0,0-4.028-2.777c-1.618-.306-2.614,1.2-.666,3.047a19.315,19.315,0,0,0,2.676,2.393,1.7,1.7,0,0,0,2.019-2.663" transform="translate(-644.496 -467.999)" fill="#fff"/>
        <path id="Path_1081" data-name="Path 1081" d="M872.247,635.724c-.831-.878-1.12-1.785-.773-2.465a1.626,1.626,0,0,1,1.832-.7,7.889,7.889,0,0,1,4.15,2.853,1.958,1.958,0,0,1,0,2.5,1.832,1.832,0,0,1-2.27.456,11.534,11.534,0,0,1-2.036-1.758c-.237-.233-.469-.462-.687-.668-.077-.073-.15-.146-.219-.219m4.41-.641a7.156,7.156,0,0,0-3.425-2.136,1.245,1.245,0,0,0-1.4.493c-.292.57.049,1.4.911,2.215.219.207.453.438.692.673a11.717,11.717,0,0,0,1.937,1.687,1.428,1.428,0,0,0,1.787-.358,1.571,1.571,0,0,0-.017-2.01,6.543,6.543,0,0,0-.482-.565" transform="translate(-643.931 -467.44)" fill="#080435"/>
        <path id="Path_1082" data-name="Path 1082" d="M868.2,635.289a10.085,10.085,0,0,0-3.762-5.157c-1.86-1.075-3.738.354-2.135,3.465a25.193,25.193,0,0,0,2.263,4.1,2.222,2.222,0,0,0,3.635-2.409" transform="translate(-636.809 -465.418)" fill="#fff"/>
        <path id="Path_1083" data-name="Path 1083" d="M863.638,637.142a15.2,15.2,0,0,1-1.74-3.035c-.191-.389-.379-.771-.558-1.118-.821-1.593-.845-2.989-.063-3.733a2.121,2.121,0,0,1,2.559-.075,10.3,10.3,0,0,1,3.88,5.3,2.556,2.556,0,0,1-1.076,3.083,2.39,2.39,0,0,1-2.993-.417l-.008-.009m1.252-6.444a5.926,5.926,0,0,0-1.314-1.069,1.624,1.624,0,0,0-1.942,0c-.605.577-.543,1.743.167,3.121.18.349.369.734.562,1.127a15.033,15.033,0,0,0,1.658,2.914,1.863,1.863,0,0,0,2.354.33,2.049,2.049,0,0,0,.846-2.482,11.289,11.289,0,0,0-2.331-3.942" transform="translate(-636.08 -464.691)" fill="#080435"/>
        <path id="Path_1084" data-name="Path 1084" d="M856.734,642.512a10.085,10.085,0,0,0-3.762-5.157c-1.86-1.075-3.738.354-2.135,3.465a25.21,25.21,0,0,0,2.263,4.1,2.222,2.222,0,0,0,3.635-2.409" transform="translate(-628.338 -470.755)" fill="#fff"/>
        <path id="Path_1085" data-name="Path 1085" d="M852.176,644.365a15.222,15.222,0,0,1-1.74-3.036c-.191-.389-.379-.771-.557-1.117-.821-1.593-.844-2.989-.063-3.733a2.121,2.121,0,0,1,2.558-.075,10.3,10.3,0,0,1,3.88,5.3,2.556,2.556,0,0,1-1.076,3.083,2.391,2.391,0,0,1-2.993-.418l-.008-.008m1.252-6.443a5.919,5.919,0,0,0-1.314-1.069,1.624,1.624,0,0,0-1.942,0c-.605.577-.543,1.743.167,3.121.18.349.369.734.561,1.126a15.489,15.489,0,0,0,1.652,2.908l.007.007a1.863,1.863,0,0,0,2.354.33,2.049,2.049,0,0,0,.846-2.482,11.29,11.29,0,0,0-2.331-3.942" transform="translate(-627.61 -470.029)" fill="#080435"/>
        <path id="Path_1086" data-name="Path 1086" d="M847.693,652.828a8.517,8.517,0,0,0-3.176-4.354c-1.57-.908-3.156.3-1.8,2.925a21.268,21.268,0,0,0,1.91,3.462,1.876,1.876,0,0,0,3.069-2.034" transform="translate(-622.406 -479.013)" fill="#fff"/>
        <path id="Path_1087" data-name="Path 1087" d="M843.7,654.3a12.85,12.85,0,0,1-1.476-2.572c-.161-.328-.319-.65-.47-.943-.7-1.362-.719-2.558-.046-3.2a1.829,1.829,0,0,1,2.208-.069,8.738,8.738,0,0,1,3.294,4.5,2.2,2.2,0,0,1-.926,2.65,2.058,2.058,0,0,1-2.576-.359l-.007-.007m1.058-5.439a4.974,4.974,0,0,0-1.1-.9,1.334,1.334,0,0,0-1.591,0c-.5.474-.442,1.441.149,2.587.152.3.312.62.475.952a13.08,13.08,0,0,0,1.387,2.444l.005.005a1.534,1.534,0,0,0,1.938.272,1.691,1.691,0,0,0,.7-2.048,9.486,9.486,0,0,0-1.958-3.312" transform="translate(-621.677 -478.286)" fill="#080435"/>
        <path id="Path_1088" data-name="Path 1088" d="M784.923,296.142l.34-2.856,4.725-1.127,10.19,6.25Zm.678-2.556-.267,2.241,13.1,1.946-8.509-5.219Z" transform="translate(-580.075 -215.91)" fill="#31313b"/>
        <path id="Path_1089" data-name="Path 1089" d="M762.943,288.711l-14.768-9.583-14.017-.449Z" transform="translate(-542.558 -205.948)" fill="#ffd26d"/>
        <path id="Path_1090" data-name="Path 1090" d="M805.419,259.509l10.187,10.237-6.159-16.73Z" transform="translate(-595.222 -186.983)" fill="#ffd26d"/>
        <path id="Path_1091" data-name="Path 1091" d="M804.634,277.895l-.277,3.447,10.464,6.791Z" transform="translate(-594.437 -205.369)" fill="#31313b"/>
        <path id="Path_1092" data-name="Path 1092" d="M497.17,241.733a6.484,6.484,0,0,1-4.72-3.363c-1.032-2.255-.253-5.238,2.192-8.4,2.769-3.581,7.638-7.372,14.079-10.964a64.4,64.4,0,0,1,22.334-7.57q3.027-.432,6.112-.58a46.925,46.925,0,0,0,2.991-12.015l.37.033a47.149,47.149,0,0,1-2.957,11.963,69.032,69.032,0,0,1,12.658.649,64.982,64.982,0,0,1,18.47,5.334l-.169.331a64.61,64.61,0,0,0-18.367-5.3,68.636,68.636,0,0,0-12.735-.637,59.7,59.7,0,0,1-5.113,10.215c-3.99,6.354-11.02,14.758-21.849,18.708-5.184,1.891-9.914,2.393-13.294,1.595m39.852-30.5q-2.986.15-5.923.57a64.028,64.028,0,0,0-22.2,7.525c-6.4,3.568-11.228,7.325-13.967,10.867-2.357,3.048-3.12,5.9-2.148,8.019.846,1.849,2.961,3.061,5.956,3.411a26.113,26.113,0,0,0,11.593-1.837c10.73-3.914,17.7-12.252,21.662-18.557a59.337,59.337,0,0,0,5.023-10" transform="translate(-363.603 -146.946)" fill="#31313b"/>
        <path id="Path_1093" data-name="Path 1093" d="M1619.245,1146.646l15.227-1.9,4.926,3.822-1.116,3.52Zm15.091-1.406-12.715,1.589,16.347,4.671.876-2.762Z" transform="translate(-1196.656 -845.988)" fill="#31313b"/>
        <path id="Path_1094" data-name="Path 1094" d="M1617.45,1143.1l22.346-3.373,16.625,6.906Z" transform="translate(-1195.33 -842.28)" fill="#ffd26d"/>
        <path id="Path_1095" data-name="Path 1095" d="M1634.788,1099.948l-17.338,6.567,16.071-16.293Z" transform="translate(-1195.329 -805.695)" fill="#ffd26d"/>
        <path id="Path_1096" data-name="Path 1096" d="M1634.788,1127.49l-1.5,4.176-15.834,2.39Z" transform="translate(-1195.329 -833.238)" fill="#31313b"/>
        <path id="Path_1097" data-name="Path 1097" d="M1656.039,902.457a21.353,21.353,0,0,1-3.957-.336l.1-.485a22.684,22.684,0,0,0,9.415-.37c6.533-1.74,10.663-6.418,12.275-13.9a13.925,13.925,0,0,0,.11-5q-.811.027-1.623.024c-10.135-.035-17.839-3.651-21.136-9.919-1.386-2.635-.8-4.051-.059-4.774,2.019-1.981,7.792-1.224,13.142,1.725a22.39,22.39,0,0,1,8.013,7.19,14.718,14.718,0,0,1,2.139,5.241c13.323-.573,26.309-6.953,30.786-15.322,2.8-5.232,2.228-11.044-1.647-16.807-4.491-6.678-11.081-12.024-19.589-15.889a83.718,83.718,0,0,0-23.946-6.415,128.113,128.113,0,0,0-28.8-.326l-.062-.492a128.686,128.686,0,0,1,28.921.326,84.2,84.2,0,0,1,24.088,6.456c8.593,3.9,15.253,9.308,19.8,16.063,3.985,5.926,4.563,11.914,1.673,17.318-4.546,8.5-17.674,14.981-31.139,15.581a14.135,14.135,0,0,1-.185,5.129c-2.063,9.577-8.018,13.053-12.65,14.283a22.289,22.289,0,0,1-5.672.707m-1.255-35.376a4.667,4.667,0,0,0-3.268.962c-.886.869-.834,2.318.151,4.19,3.209,6.1,10.753,9.62,20.7,9.654.511,0,1.024-.005,1.535-.021-.706-3.666-3.086-8.3-9.829-12.018a20.713,20.713,0,0,0-9.287-2.767" transform="translate(-1205.496 -610.386)" fill="#0c0c0f"/>
      </g>
    </g>
  </g>
</svg>
