<svg xmlns="http://www.w3.org/2000/svg" width="201.145" height="220.843" viewBox="0 0 201.145 220.843">
  <g id="undraw_taken_re_yn20_1_" data-name="undraw_taken_re_yn20 (1)" transform="translate(0 0.001)">
    <path id="Path_1108" data-name="Path 1108" d="M521.876,126.573a298.906,298.906,0,0,0-46.358-3.413,305.033,305.033,0,0,0-42.763,2.865c0-.2.006-.4.015-.6a44.563,44.563,0,0,1,89.1.544C521.873,126.173,521.876,126.373,521.876,126.573Z" transform="translate(-382.203 -81.77)" fill="#2565af"/>
    <g id="Group_165" data-name="Group 165" transform="translate(50.416 -0.001)" opacity="0.1">
      <path id="Path_1109" data-name="Path 1109" d="M482.843,81.2a44.578,44.578,0,0,0-50.525,42.838c-.009.2-.012.4-.015.6,3.877-.556,7.891-1.033,12.013-1.431A44.57,44.57,0,0,1,482.843,81.2Z" transform="translate(-432.303 -80.802)" fill="#fff"/>
    </g>
    <path id="Path_1110" data-name="Path 1110" d="M422.9,224.743a179.488,179.488,0,0,0-19.5-4.139,282.14,282.14,0,0,0-32.523-3.125c-4.537-.185-9.158-.281-13.83-.281-3.7,0-7.376.06-11,.179a291.1,291.1,0,0,0-31.751,2.683,186.714,186.714,0,0,0-23.1,4.684c-17.709,4.9-27.462,11.458-27.462,18.475s9.753,13.579,27.462,18.475c12.454,3.445,27.809,5.793,44.54,6.87,6.906.449,14.045.676,21.313.676,7.292,0,14.455-.23,21.382-.679a234.33,234.33,0,0,0,41.1-5.982c.063-.018.123-.033.185-.048.8-.2,1.579-.4,2.354-.61.278-.078.553-.153.828-.227a.294.294,0,0,1,.048-.015c.263-.072.523-.147.784-.218.52-.15,1.035-.3,1.54-.449l.066-.018c.44-.132.87-.263,1.3-.395.35-.111.7-.218,1.041-.329q.377-.121.745-.242c.179-.06.356-.117.529-.176.236-.078.473-.159.706-.239.1-.033.2-.066.293-.1.224-.075.443-.153.661-.23.236-.084.473-.171.706-.254.195-.069.389-.141.58-.212.161-.063.32-.123.482-.182.44-.165.87-.335,1.3-.5.212-.087.425-.17.634-.257s.416-.171.619-.257q.5-.211.987-.422c.156-.072.314-.141.467-.206l.347-.159c.084-.036.168-.075.248-.114.3-.138.6-.278.894-.419q1.687-.808,3.149-1.651c6.116-3.5,9.344-7.387,9.344-11.425C450.363,236.2,440.61,229.639,422.9,224.743Zm-.161,36.375c-12.469,3.448-27.866,5.8-44.642,6.864-6.822.434-13.874.658-21.05.658-7.151,0-14.18-.221-20.981-.655-16.8-1.065-32.223-3.413-44.71-6.867-17.428-4.821-27.025-11.177-27.025-17.9a7.213,7.213,0,0,1,.221-1.762c1.525-6.065,10.908-11.742,26.8-16.139a186.576,186.576,0,0,1,22.928-4.657,291.913,291.913,0,0,1,31.942-2.692q5.348-.175,10.821-.173c4.609,0,9.167.093,13.647.272a281.553,281.553,0,0,1,32.711,3.14,179.12,179.12,0,0,1,19.333,4.109c15.893,4.4,25.273,10.07,26.8,16.133a7.124,7.124,0,0,1,.224,1.768C449.765,249.941,440.167,256.3,422.74,261.118Z" transform="translate(-263.734 -176.404)" fill="#3f3d56"/>
    <path id="Path_1111" data-name="Path 1111" d="M451.195,299.065c0,4-3.293,7.776-9.173,11.153-.978.562-2.031,1.113-3.149,1.651-.293.141-.592.281-.894.419-.081.039-.165.078-.248.114l-.347.159c-.152.066-.311.135-.467.206q-.485.211-.987.422c-.2.087-.413.173-.619.257s-.422.17-.634.257c-.425.168-.856.338-1.3.5-.161.06-.32.12-.482.182-.191.072-.386.144-.58.212-.233.084-.469.17-.706.254-.218.078-.437.156-.661.23-.1.036-.194.069-.293.1-.233.081-.47.161-.706.239-.173.06-.35.117-.529.176l-.745.242c-.344.111-.691.218-1.041.329-.428.132-.858.263-1.3.395l-.066.018c-.505.153-1.02.3-1.54.449-.26.072-.52.147-.784.218a.29.29,0,0,0-.048.015c-.275.075-.55.15-.828.227-.772.2-1.558.41-2.354.61-.063.015-.123.03-.185.048a236.418,236.418,0,0,1-41.115,5.961c-6.822.44-13.934.673-21.241.673-7.372,0-14.545-.236-21.421-.685-41.047-2.677-71.6-12.87-71.6-25.036a7.5,7.5,0,0,1,.335-2.183c.018.051.036.1.057.15,4.268,11.21,34.556,20.269,73.856,22.479,6.021.341,12.257.517,18.639.517,6.409,0,12.669-.179,18.714-.52,39.267-2.219,69.525-11.282,73.778-22.482q.108-.269.188-.538a7.567,7.567,0,0,1,.464,2.578Z" transform="translate(-264.736 -231.98)" fill="#3f3d56"/>
    <path id="Path_1112" data-name="Path 1112" d="M331.341,280.021c-4.978,0-10.268-1.071-10.268-3.056s5.29-3.056,10.268-3.056,10.268,1.071,10.268,3.056S336.319,280.021,331.341,280.021Zm0-5.513c-5.7,0-9.67,1.3-9.67,2.458s3.971,2.458,9.67,2.458,9.67-1.3,9.67-2.458-3.971-2.458-9.67-2.458Z" transform="translate(-303.924 -216.155)" fill="#3f3d56"/>
    <path id="Path_1113" data-name="Path 1113" d="M402.34,327.021c-4.978,0-10.268-1.071-10.268-3.056s5.29-3.056,10.268-3.056,10.268,1.071,10.268,3.056S407.318,327.021,402.34,327.021Zm0-5.513c-5.7,0-9.67,1.3-9.67,2.458s3.971,2.458,9.67,2.458,9.67-1.3,9.67-2.458-3.971-2.458-9.67-2.458Z" transform="translate(-353.689 -249.098)" fill="#3f3d56"/>
    <path id="Path_1114" data-name="Path 1114" d="M771.34,280.021c-4.978,0-10.268-1.071-10.268-3.056s5.29-3.056,10.268-3.056,10.268,1.071,10.268,3.056S776.318,280.021,771.34,280.021Zm0-5.513c-5.7,0-9.67,1.3-9.67,2.458s3.971,2.458,9.67,2.458,9.67-1.3,9.67-2.458-3.971-2.458-9.67-2.458Z" transform="translate(-612.326 -216.155)" fill="#3f3d56"/>
    <path id="Path_1115" data-name="Path 1115" d="M700.34,327.021c-4.978,0-10.268-1.071-10.268-3.056s5.29-3.056,10.268-3.056,10.268,1.071,10.268,3.056S705.318,327.021,700.34,327.021Zm0-5.513c-5.7,0-9.67,1.3-9.67,2.458s3.971,2.458,9.67,2.458,9.67-1.3,9.67-2.458-3.971-2.458-9.67-2.458Z" transform="translate(-562.561 -249.098)" fill="#3f3d56"/>
    <path id="Path_1116" data-name="Path 1116" d="M551.34,349.021c-4.978,0-10.268-1.071-10.268-3.056s5.29-3.056,10.268-3.056,10.268,1.071,10.268,3.056S556.318,349.021,551.34,349.021Zm0-5.513c-5.7,0-9.67,1.3-9.67,2.458s3.971,2.458,9.67,2.458,9.67-1.3,9.67-2.458-3.971-2.458-9.67-2.458Z" transform="translate(-458.125 -264.518)" fill="#3f3d56"/>
    <circle id="Ellipse_41" data-name="Ellipse 41" cx="12.565" cy="12.565" r="12.565" transform="translate(88.22 122.233)" fill="#2f2e41"/>
    <rect id="Rectangle_6030" data-name="Rectangle 6030" width="6.839" height="3.817" transform="translate(89.891 146.118) rotate(-26.601)" fill="#2f2e41"/>
    <ellipse id="Ellipse_42" data-name="Ellipse 42" cx="1.193" cy="3.181" rx="1.193" ry="3.181" transform="translate(86.438 146.676) rotate(-56.601)" fill="#2f2e41"/>
    <rect id="Rectangle_6031" data-name="Rectangle 6031" width="3.817" height="6.839" transform="translate(103.854 146.466) rotate(-63.399)" fill="#2f2e41"/>
    <ellipse id="Ellipse_43" data-name="Ellipse 43" cx="3.181" cy="1.193" rx="3.181" ry="1.193" transform="translate(108.506 148.188) rotate(-33.399)" fill="#2f2e41"/>
    <circle id="Ellipse_44" data-name="Ellipse 44" cx="4.294" cy="4.294" r="4.294" transform="translate(95.611 127.43)" fill="#fff"/>
    <ellipse id="Ellipse_45" data-name="Ellipse 45" cx="1.426" cy="1.436" rx="1.426" ry="1.436" transform="translate(97.913 129.879) rotate(-45)" fill="#3f3d56"/>
    <path id="Path_1117" data-name="Path 1117" d="M590.262,465.158c.189-4.652-3.82-8.592-8.955-8.8s-9.45,3.393-9.639,8.045,3.38,5.709,8.515,5.917S590.073,469.809,590.262,465.158Z" transform="translate(-479.565 -344.029)" fill="#2565af"/>
    <ellipse id="Ellipse_46" data-name="Ellipse 46" cx="1.972" cy="6.283" rx="1.972" ry="6.283" transform="translate(108.259 133.13) rotate(-40.645)" fill="#2f2e41"/>
    <ellipse id="Ellipse_47" data-name="Ellipse 47" cx="6.283" cy="1.972" rx="6.283" ry="1.972" transform="translate(82.168 140.093) rotate(-49.355)" fill="#2f2e41"/>
    <path id="Path_1118" data-name="Path 1118" d="M598.95,544.566a2.863,2.863,0,1,1-5.633,1.026v-.006c-.282-1.556.921-2.106,2.477-2.388S598.669,543.01,598.95,544.566Z" transform="translate(-494.714 -404.815)" fill="#fff"/>
    <path id="Path_1119" data-name="Path 1119" d="M528.332,490.685a.6.6,0,0,1-.6-.6V454.8a.6.6,0,0,1,1.2,0v35.292A.6.6,0,0,1,528.332,490.685Z" transform="translate(-448.776 -342.521)" fill="#ccc"/>
    <path id="Path_1120" data-name="Path 1120" d="M498.332,619.115a.6.6,0,0,1-.6-.6V592.8a.6.6,0,0,1,1.2,0v25.721a.6.6,0,0,1-.6.6Z" transform="translate(-427.748 -439.247)" fill="#ccc"/>
    <path id="Path_1121" data-name="Path 1121" d="M575.332,525.685a.6.6,0,0,1-.6-.6V489.8a.6.6,0,1,1,1.2,0v35.292A.6.6,0,0,1,575.332,525.685Z" transform="translate(-481.719 -367.053)" fill="#ccc"/>
    <path id="Path_1122" data-name="Path 1122" d="M546.332,659.749a.6.6,0,0,1-.6-.6V644.8a.6.6,0,1,1,1.2,0v14.356A.6.6,0,0,1,546.332,659.749Z" transform="translate(-461.392 -475.695)" fill="#ccc"/>
    <path id="Path_1123" data-name="Path 1123" d="M587.332,413.749a.6.6,0,0,1-.6-.6V398.8a.6.6,0,0,1,1.2,0v14.356A.6.6,0,0,1,587.332,413.749Z" transform="translate(-490.13 -303.27)" fill="#ccc"/>
    <path id="Path_1124" data-name="Path 1124" d="M487.332,434.749a.6.6,0,0,1-.6-.6V419.8a.6.6,0,0,1,1.2,0v14.356a.6.6,0,0,1-.6.6Z" transform="translate(-420.038 -317.989)" fill="#ccc"/>
    <path id="Path_1125" data-name="Path 1125" d="M661.332,439.749a.6.6,0,0,1-.6-.6V424.8a.6.6,0,0,1,1.2,0v14.356A.6.6,0,0,1,661.332,439.749Z" transform="translate(-541.997 -321.494)" fill="#ccc"/>
    <path id="Path_1126" data-name="Path 1126" d="M657.332,582.74a.6.6,0,0,1-.6-.6V564.8a.6.6,0,1,1,1.2,0v17.347a.6.6,0,0,1-.6.6Z" transform="translate(-539.194 -419.622)" fill="#ccc"/>
    <path id="Path_1127" data-name="Path 1127" d="M617.332,614.115a.6.6,0,0,1-.6-.6V587.8a.6.6,0,1,1,1.2,0v25.721a.6.6,0,0,1-.6.6Z" transform="translate(-511.157 -435.743)" fill="#ccc"/>
    <path id="Path_1128" data-name="Path 1128" d="M625.332,444.685a.6.6,0,0,1-.6-.6V408.8a.6.6,0,1,1,1.2,0v35.292A.6.6,0,0,1,625.332,444.685Z" transform="translate(-516.764 -310.279)" fill="#ccc"/>
    <ellipse id="Ellipse_48" data-name="Ellipse 48" cx="2.022" cy="6.44" rx="2.022" ry="6.44" transform="translate(172.083 200.929) rotate(-39.938)" fill="#2f2e41"/>
    <circle id="Ellipse_49" data-name="Ellipse 49" cx="12.881" cy="12.881" r="12.881" transform="matrix(0.316, -0.949, 0.949, 0.316, 147.773, 210.479)" fill="#2f2e41"/>
    <rect id="Rectangle_6032" data-name="Rectangle 6032" width="3.913" height="7.011" transform="translate(165.605 212.44)" fill="#2f2e41"/>
    <rect id="Rectangle_6033" data-name="Rectangle 6033" width="3.913" height="7.011" transform="translate(157.779 212.44)" fill="#2f2e41"/>
    <ellipse id="Ellipse_50" data-name="Ellipse 50" cx="3.261" cy="1.223" rx="3.261" ry="1.223" transform="translate(162.997 218.31)" fill="#2f2e41"/>
    <ellipse id="Ellipse_51" data-name="Ellipse 51" cx="3.261" cy="1.223" rx="3.261" ry="1.223" transform="translate(155.17 218.147)" fill="#2f2e41"/>
    <path id="Path_1129" data-name="Path 1129" d="M798.347,688.171c1.15-4.632,6.227-7.358,11.34-6.088s8.325,6.054,7.175,10.686-4.966,4.647-10.079,3.377S797.2,692.8,798.347,688.171Z" transform="translate(-638.325 -502.031)" fill="#ccc"/>
    <ellipse id="Ellipse_52" data-name="Ellipse 52" cx="2.022" cy="6.44" rx="2.022" ry="6.44" transform="translate(142.874 195.421) rotate(-64.626)" fill="#2f2e41"/>
    <circle id="Ellipse_53" data-name="Ellipse 53" cx="4.294" cy="4.294" r="4.294" transform="translate(157.847 195.319)" fill="#fff"/>
    <circle id="Ellipse_54" data-name="Ellipse 54" cx="1.431" cy="1.431" r="1.431" transform="translate(158.944 196.643)" fill="#3f3d56"/>
    <circle id="Ellipse_55" data-name="Ellipse 55" cx="1.816" cy="1.816" r="1.816" transform="translate(160.274 206.873)" fill="#fff"/>
    <path id="Path_1130" data-name="Path 1130" d="M769.149,817.8H698.565a.3.3,0,0,1,0-.6h70.584a.3.3,0,0,1,0,.6Z" transform="translate(-568.304 -596.953)" fill="#3f3d56"/>
  </g>
</svg>
