<svg xmlns="http://www.w3.org/2000/svg" width="34" height="34" viewBox="0 0 34 34">
  <g id="vuesax_bold_gallery" data-name="vuesax/bold/gallery" transform="translate(-364 -252)">
    <g id="gallery" transform="translate(364 252)">
      <path id="Vector" d="M.751,2.8l-.028.028A8.765,8.765,0,0,1,0,0,8.7,8.7,0,0,0,.751,2.8Z" transform="translate(2.904 24.126)" fill="#707070"/>
      <path id="Vector-2" data-name="Vector" d="M6.743,3.372A3.372,3.372,0,1,1,3.372,0,3.372,3.372,0,0,1,6.743,3.372Z" transform="translate(9.378 7.962)" fill="#707070"/>
      <path id="Vector-3" data-name="Vector" d="M20.1,0H8.231C3.074,0,0,3.074,0,8.231V20.1a9.524,9.524,0,0,0,.793,4.023c1.218,2.692,3.825,4.207,7.437,4.207H20.1c5.157,0,8.231-3.074,8.231-8.231V8.231C28.333,3.074,25.259,0,20.1,0Zm5.922,14.875a3.158,3.158,0,0,0-4,0l-5.893,5.057a3.158,3.158,0,0,1-4,0l-.482-.4a3.146,3.146,0,0,0-3.74-.2l-5.3,3.556a7.555,7.555,0,0,1-.5-2.791V8.231c0-3.995,2.111-6.106,6.106-6.106H20.1c3.995,0,6.106,2.111,6.106,6.106v6.8Z" transform="translate(2.833 2.833)" fill="#707070"/>
      <path id="Vector-4" data-name="Vector" d="M0,0H34V34H0Z" fill="none" opacity="0"/>
    </g>
  </g>
</svg>
