<svg xmlns="http://www.w3.org/2000/svg" width="20" height="20" viewBox="0 0 20 20">
  <g id="vuesax_linear_messages" data-name="vuesax/linear/messages" opacity="0.8">
    <g id="messages" transform="translate(0 0)">
      <g id="Group" transform="translate(1.667 5)">
        <path id="Vector" d="M13.317,3.992V7.325a5.054,5.054,0,0,1-.033.625c-.192,2.25-1.517,3.367-3.958,3.367H8.992a.671.671,0,0,0-.533.267l-1,1.333a.943.943,0,0,1-1.6,0l-1-1.333a.77.77,0,0,0-.533-.267H3.992C1.333,11.317,0,10.658,0,7.325V3.992C0,1.55,1.125.225,3.367.033A5.054,5.054,0,0,1,3.992,0H9.325Q13.313,0,13.317,3.992Z" fill="none" stroke="#292d32" stroke-linecap="round" stroke-linejoin="round" stroke-width="1.5"/>
      </g>
      <path id="Vector-2" data-name="Vector" d="M13.283,3.992V7.325q0,3.675-3.367,3.958a5.054,5.054,0,0,0,.033-.625V7.325q0-3.988-3.992-3.992H.625A5.054,5.054,0,0,0,0,3.367C.192,1.125,1.517,0,3.958,0H9.292Q13.279,0,13.283,3.992Z" transform="translate(5.033 1.667)" fill="none" stroke="#292d32" stroke-linecap="round" stroke-linejoin="round" stroke-width="1.5"/>
      <path id="Vector-3" data-name="Vector" d="M0,0H20V20H0Z" fill="none" opacity="0"/>
      <path id="Vector-4" data-name="Vector" d="M.5.5H.5" transform="translate(10.751 10.542)" fill="none" stroke="#292d32" stroke-linecap="round" stroke-linejoin="round" stroke-width="1.5"/>
      <path id="Vector-5" data-name="Vector" d="M.5.5H.5" transform="translate(7.834 10.542)" fill="none" stroke="#292d32" stroke-linecap="round" stroke-linejoin="round" stroke-width="1.5"/>
      <path id="Vector-6" data-name="Vector" d="M.5.5H.5" transform="translate(4.917 10.542)" fill="none" stroke="#292d32" stroke-linecap="round" stroke-linejoin="round" stroke-width="1.5"/>
    </g>
  </g>
</svg>
