<svg xmlns="http://www.w3.org/2000/svg" width="34" height="34" viewBox="0 0 34 34">
  <g id="vuesax_bold_video-play" data-name="vuesax/bold/video-play" transform="translate(-236 -380)">
    <g id="video-play" transform="translate(236 380)">
      <path id="Vector" d="M0,0H7.735V6.177H0Z" transform="translate(13.133 2.833)" fill="#707070"/>
      <path id="Vector-2" data-name="Vector" d="M0,0V6.177H7.99C7.268,2.281,4.392.014,0,0Z" transform="translate(22.992 2.833)" fill="#707070"/>
      <path id="Vector-3" data-name="Vector" d="M0,0V11.8c0,5.157,3.074,8.231,8.231,8.231H20.1c5.157,0,8.231-3.074,8.231-8.231V0ZM17.623,11.787l-2.947,1.7a3.686,3.686,0,0,1-1.8.538,2.325,2.325,0,0,1-1.162-.3,2.906,2.906,0,0,1-1.275-2.677V7.65a2.906,2.906,0,0,1,1.275-2.678,2.876,2.876,0,0,1,2.961.241l2.947,1.7a2.907,2.907,0,0,1,1.686,2.451A2.914,2.914,0,0,1,17.623,11.787Z" transform="translate(2.833 11.135)" fill="#707070"/>
      <path id="Vector-4" data-name="Vector" d="M7.99,0C3.6.014.722,2.281,0,6.177H7.99Z" transform="translate(3.018 2.833)" fill="#707070"/>
      <path id="Vector-5" data-name="Vector" d="M0,0H34V34H0Z" fill="none" opacity="0"/>
    </g>
  </g>
</svg>
